<?xml version="1.0" encoding="utf-8"?>
<!-- Generator: Adobe Illustrator 17.0.0, SVG Export Plug-In . SVG Version: 6.00 Build 0)  -->
<!DOCTYPE svg PUBLIC "-//W3C//DTD SVG 1.1//EN" "http://www.w3.org/Graphics/SVG/1.1/DTD/svg11.dtd">
<svg version="1.1" id="Layer_1" xmlns="http://www.w3.org/2000/svg" xmlns:xlink="http://www.w3.org/1999/xlink" x="0px" y="0px"
	 width="88.344px" height="56px" viewBox="0 0 88.344 56" enable-background="new 0 0 88.344 56" xml:space="preserve">
<path fill-rule="evenodd" clip-rule="evenodd" fill="#A3A3A3" d="M68.398,52.136c-1.072,0-0.966-5.796-0.966-5.796
	s13.523-3.767,13.523-19.318c0-15.307-13.523-21.25-13.523-21.25s-0.688-3.864,0.966-3.864c10.136,0,18.352,12.311,18.352,25.114
	S78.534,52.136,68.398,52.136z M58.529,42.477c-0.746,0-0.672-5.796-0.672-5.796s7.475,0.708,7.475-9.659
	c0-10.205-7.475-10.947-7.475-10.947s-0.478-4.508,0.672-4.508c7.051,0,12.767,6.919,12.767,15.455S65.58,42.477,58.529,42.477z
	 M49.328,34.363c-0.447,0-0.403-5.409-0.403-5.409s2.553,4.288,2.553-1.932c0-6.123-2.553-2.705-2.553-2.705
	s-0.287-4.636,0.403-4.636c4.231,0,7.66,2.22,7.66,7.341S53.559,34.363,49.328,34.363z M1.75,56c0,0-2.012,0.08,3.864-5.796
	c2.116-2.116,2.688-3.371,7.727-3.884v-5.36c-4.564-2.543-7.727-6.236-7.727-13.938c0-0.941,0.047-3.799,0.138-4.704
	c0.941-9.356,6.575-12.683,13.385-12.683c6.258,0,11.523,4.141,13.065,12.386c0.298,1.595,0.457,3.271,0.457,5
	c0,8.75-2.143,12.902-7.727,14.811v4.383c5.962,0.448,5.556,1.816,7.727,3.988C37.871,55.416,36.523,56,36.523,56H1.75z
	 M26.864,27.022c-5.282,0-9.383,0-13.523,0c0,4.268,3.027,7.727,6.761,7.727C23.836,34.75,26.864,31.29,26.864,27.022z"/>
</svg>
