<?xml version="1.0" encoding="utf-8"?>
<!-- Generator: Adobe Illustrator 17.0.0, SVG Export Plug-In . SVG Version: 6.00 Build 0)  -->
<!DOCTYPE svg PUBLIC "-//W3C//DTD SVG 1.1//EN" "http://www.w3.org/Graphics/SVG/1.1/DTD/svg11.dtd">
<svg version="1.1" id="Layer_1" xmlns="http://www.w3.org/2000/svg" xmlns:xlink="http://www.w3.org/1999/xlink" x="0px" y="0px"
	 width="93.986px" height="73.993px" viewBox="0 0 93.986 73.993" enable-background="new 0 0 93.986 73.993" xml:space="preserve">
<path fill-rule="evenodd" clip-rule="evenodd" fill="#A3A3A3" d="M57.669,62.706c1.658,5.564,9.203,7.913,13.541,10.654
	c-8.359,0.012-17.73-1.684-27.033-9.861C19.966,62.513,0.776,48.828,0.776,32.087c0-17.384,20.686-31.477,46.202-31.477
	c25.518,0,46.204,14.092,46.204,31.477C93.182,46.962,78.03,59.418,57.669,62.706z M33.008,45.19h4.875l0.951-4.681h-4.875
	L33.008,45.19z M38.279,17.26l-3.488,19.866h4.399l4.32-19.866H38.279z M52.146,45.19l0.912-4.681h-4.875l-0.951,4.681H52.146z
	 M55.317,16.709c-4.241,0-7.57,2.518-7.57,2.518l2.259,3.737c0,0,2.14-1.652,4.558-1.652c1.942,0,3.25,1.141,3.25,2.714
	c0,4.17-7.49,5.153-8.64,11.211l-0.357,1.888h4.835l0.317-1.534c0.832-4.052,9.155-5.311,9.155-12.274
	C63.125,19.148,59.597,16.709,55.317,16.709z"/>
</svg>
