<?xml version="1.0" standalone="no"?>
<!DOCTYPE svg PUBLIC "-//W3C//DTD SVG 1.1//EN" "http://www.w3.org/Graphics/SVG/1.1/DTD/svg11.dtd" >
<svg>
<metadata>
Created by FontForge 20090914 at Wed Jun 12 20:21:33 2013
 By www-data
Generated by Fontographer 3.5
</metadata>
<defs>
<font id="SherwoodRegular" horiz-adv-x="0" >
  <font-face 
    font-family="Sherwood"
    font-weight="5"
    font-stretch="normal"
    units-per-em="1000"
    panose-1="0 0 0 0 0 0 0 0 0 0"
    ascent="800"
    descent="-200"
    x-height="424"
    cap-height="628"
    bbox="-70.9483 -228.999 1194 868.005"
    underline-thickness="20"
    underline-position="-190"
    unicode-range="U+0020-U+F002"
  />
<missing-glyph horiz-adv-x="800" 
d="M50 0v800h700v-800h-700zM700 50v700h-600v-700h600z" />
    <glyph glyph-name=".notdef" horiz-adv-x="800" 
d="M50 0v800h700v-800h-700zM700 50v700h-600v-700h600z" />
    <glyph glyph-name="space" unicode=" " horiz-adv-x="360" 
 />
    <glyph glyph-name="exclam" unicode="!" horiz-adv-x="261" 
d="M214 657c0 -78 -4.16504 -156.668 -12.498 -236.001l-24.5 -235c-17.333 -6.66699 -34.833 -11.167 -52.5 -13.5s-38.834 -3.5 -63.501 -3.5c0 2 -1 4.66699 -3 8c0 49.333 2.5 126.5 7.5 231.5s7.5 183.167 7.5 234.5c23.333 4.66699 46.666 8.83398 69.999 12.501
s45.333 5.5 66 5.5c2 0 3.66699 -1.33301 5 -4zM235.002 1.99902l-5 0.00195312l-128 -14h-14c-4 0.666992 -7 1 -9 1c-16 28 -28 54 -36 78c0 2.66699 3 4 9 4c21.333 2 40.5 4.16699 57.5 6.5s41.5 6.16602 73.5 11.499c8 -4 15.167 -10.833 21.5 -20.5
s10.5 -18.834 12.5 -27.501l10.5 -20c3 -6 5.5 -12.333 7.5 -19z" />
    <glyph glyph-name="quotedbl" unicode="&#x22;" horiz-adv-x="403" 
d="M373 605c-10.667 -20.667 -18.666 -42.001 -23.999 -64.001s-9.66602 -47.333 -12.999 -76c-10.667 -4 -23.334 -7.5 -38.001 -10.5l-51 -10.5l-4 5c4 31.333 6 67 6 107c0 8.66699 -0.166992 18.167 -0.5 28.5s-1.5 22.5 -3.5 36.5
c9.33301 2.66699 21.666 4.66699 36.999 6s29.333 2 42 2c14 0 24.5 -0.666992 31.5 -2s12.833 -8.66602 17.5 -21.999zM213.001 604.999c-10.667 -20.667 -18.666 -42.001 -23.999 -64.001s-9.66602 -47.333 -12.999 -76c-10.667 -4 -23.334 -7.5 -38.001 -10.5l-51 -10.5
l-4 5c4 31.333 6 67 6 107c0 8.66699 -0.166992 18.167 -0.5 28.5s-1.5 22.5 -3.5 36.5c9.33301 2.66699 21.666 4.66699 36.999 6s29.333 2 42 2c14 0 24.5 -0.666992 31.5 -2s12.833 -8.66602 17.5 -21.999z" />
    <glyph glyph-name="numbersign" unicode="#" horiz-adv-x="588" 
d="M576 432c-0.666992 -5.33301 -1.66699 -8.00098 -3 -8.00098c-10 -8.66699 -17.833 -21.834 -23.5 -39.501s-12.834 -30.5 -21.501 -38.5l-10 -2l-66 3l-27 -78l107 3l-2 -6c-10 -8 -18.333 -21.333 -25 -40s-16 -32.334 -28 -41.001
c-9.33301 0 -23.5 0.833008 -42.5 2.5s-31.167 2.5 -36.5 2.5l-65 -186c-14.667 -2 -30.667 -3.83301 -48 -5.5s-32.666 -2.5 -45.999 -2.5l72 196l-118 -2l-64 -186c-14.667 -2 -30.667 -3.83301 -48 -5.5s-32.666 -2.5 -45.999 -2.5l71 193
c-30 0 -51.333 -0.166992 -64 -0.5s-24.667 -1.16602 -36 -2.49902c0.666992 5.33301 1.66699 8 3 8l45 78l10 2c8 0 20 -0.666992 36 -2s28 -2 36 -2l27 79l-113 -3l2 6c10 8 18.333 21.333 25 40s16 32.334 28 41.001c8 0 21.667 -1 41 -3s34.666 -3 45.999 -3l49.5 138
c13 36.667 19.5 57 19.5 61c0 2 8.5 3.33301 25.5 4s28.833 1 35.5 1h22l16 -6c-27.333 -60.667 -55 -127 -83 -199l119 2l49.5 136c13 36.667 19.5 57.334 19.5 62.001c0 2 8.5 3.33301 25.5 4s28.833 1 35.5 1h22l16 -6c-26.667 -59.333 -53.667 -124.666 -81 -195.999
c28 0 48 0.166992 60 0.5s23 1.16602 33 2.49902zM368 348.999l-118 2l-29 -83l117 -1z" />
    <glyph glyph-name="dollar" unicode="$" horiz-adv-x="641" 
d="M624 631l-89 -139.001l-46 38l-68 -101c67.333 -28.667 109.666 -50 126.999 -64s26 -51.667 26 -113c0 -66 -22 -108 -66 -126s-89.833 -30 -137.5 -36s-80.167 -11.333 -97.5 -16s-38.666 -7 -63.999 -7l-22 -22h-124l13 31l-46 21l-12 142l124 -59l89 136
c-42 0 -78.667 13.333 -110 40s-47 60.667 -47 102c0 8.66699 1.5 24.334 4.5 47.001s27.833 47 74.5 73s96 39 148 39c14 0 32.333 1.33301 55 4s40.667 4 54 4l19 34l160 22l-33 -50h68zM375 554.999c-16 8 -32.0029 12 -48.0029 12
c-27.333 0 -48.666 -8.66699 -63.999 -26s-27.166 -32.333 -35.499 -45s-12.5 -24.334 -12.5 -35.001c0 -15.333 7.83301 -26.833 23.5 -34.5s27.834 -11.5 36.501 -11.5c6 0 11.333 1.33301 16 4s9 5.33398 13 8.00098c18.667 26.667 36.5 53.667 53.5 81
s22.833 43 17.5 47zM408.997 290.999c-4.66699 8.66699 -9 17.334 -13 26.001c-6 9.33301 -12.333 14 -19 14c-5.33301 0 -11.166 -3.16699 -17.499 -9.5s-13.833 -16.5 -22.5 -30.5l-84 -140c9.33301 -6 17.666 -10.167 24.999 -12.5s16 -3.5 26 -3.5
c29.333 0 55.333 13.667 78 41s34 55.666 34 84.999c0 11.333 -2.33301 21.333 -7 30z" />
    <glyph glyph-name="percent" unicode="%" horiz-adv-x="954" 
d="M425 381c-12.667 -33.333 -34.666 -59.332 -65.999 -77.999s-66.333 -30.667 -105 -36c-28 -6.66699 -54 -10 -78 -10c-30 0 -57.333 5 -82 15s-45.334 26.667 -62.001 50c-17.333 26 -26 58.667 -26 98c0 34 6.33301 63.333 19 88c18 40 45.833 68 83.5 84
s82.167 24 133.5 24c12 1.33301 20.667 2 26 2c30 0 58.333 -6.16699 85 -18.5s47.834 -30.333 63.501 -54s23.5 -53.834 23.5 -90.501c0 -13.333 -1.33301 -26 -4 -38s-6.33398 -24 -11.001 -36zM720.001 640.001l-125.499 -207.499l-139.5 -234.5
c-35.333 -62 -68.666 -125.333 -99.999 -190c0 -1.33301 -1.33301 -2 -4 -2s-4 -0.666992 -4 -2c-4.66699 0 -9.83398 0.166992 -15.501 0.5s-9.5 0.5 -11.5 0.5c-16 0 -33.167 -1 -51.5 -3l-53.5 -6c0 4 0.666992 7 2 9s11.5 15.667 30.5 41s42.667 61.333 71 108
l110 188.5l100.5 173.5c8.66699 17.333 16.834 34.666 24.501 51.999s13.667 32 18 44s7.16602 18.667 8.49902 20c41.333 3.33301 82.666 7 123.999 11zM925.002 136.002c-20.667 -40 -49.166 -65.668 -85.499 -77.001s-92.166 -22 -167.499 -32
c-55.333 0 -94 14.833 -116 44.5s-35.5 52.834 -40.5 69.501s-7.5 34.667 -7.5 54c0 30 6 57 18 81c17.333 40.667 46.333 69.5 87 86.5s87.667 25.5 141 25.5c33.333 0 63.666 -4.5 90.999 -13.5s48.166 -22.667 62.499 -41s23.833 -36 28.5 -53s7 -35.833 7 -56.5
c0 -32.667 -6 -62 -18 -88zM331.003 508.001c-12 19.333 -24.8389 33.5 -38.5059 42.5s-29.167 15.5 -46.5 19.5c-5.33301 0.666992 -9.66602 1 -12.999 1c-37.333 0 -67.666 -14.667 -90.999 -44c-26.667 -26.667 -40 -59.334 -40 -98.001
c0 -11.333 2.16699 -25.666 6.5 -42.999s16.333 -33.833 36 -49.5s35.834 -24.167 48.501 -25.5s22.334 -2 29.001 -2c18.667 0 36.334 5.5 53.001 16.5s31.334 25.5 44.001 43.5c17.333 28.667 26 57.667 26 87c0 20 -4.66699 37.333 -14 52zM839.997 272.001
c-8.66699 18.667 -19.667 33.168 -33 43.501s-29.666 19.166 -48.999 26.499c-24.667 0 -46.5 -3.5 -65.5 -10.5s-36.167 -19.167 -51.5 -36.5c-24 -24 -36 -55.667 -36 -95c0 -12 1.83301 -27 5.5 -45s15.167 -34.667 34.5 -50s39 -23 59 -23c8 -2 15.667 -3 23 -3
c17.333 0 33.166 4.5 47.499 13.5s29.5 22.167 45.5 39.5c19.333 28 29 59 29 93c0 17.333 -3 33 -9 47z" />
    <glyph glyph-name="ampersand" unicode="&#x26;" horiz-adv-x="656" 
d="M634 3c-17.333 0 -46.0029 -0.667969 -86.0029 -2.00098s-61.667 -2 -65 -2h-21c-14 0 -24.667 0.833008 -32 2.5s-14.666 6.5 -21.999 14.5c-6 0 -14.5 -2.16699 -25.5 -6.5s-18.167 -6.5 -21.5 -6.5c-10 -2 -23 -3.66699 -39 -5s-30 -2 -42 -2
c-18.667 0 -37.667 1 -57 3c-22 -3.33301 -43 -5 -63 -5c-27.333 0 -51.5 4 -72.5 12s-37.5 22.333 -49.5 43c-17.333 26.667 -26 56.667 -26 90c0 28 6.33301 52.667 19 74c5.33301 16 13.166 30.833 23.499 44.5s24.5 29.167 42.5 46.5
c-1.33301 8 -6.66602 18.5 -15.999 31.5s-15 22.5 -17 28.5c-14.667 28 -22 60.667 -22 98c0 20.667 2.83301 40.334 8.5 59.001s18.5 40.5 38.5 65.5s50 37.5 90 37.5c11.333 0 22 -1.33301 32 -4c6 -2.66699 11.333 -4.33398 16 -5.00098s10.667 -1 18 -1
c14.667 0.666992 26 1 34 1c8.66699 0 24.834 -3 48.501 -9s44.834 -26.667 63.501 -62c9.33301 -22 14 -47.333 14 -76c0 -18 -1.66699 -34.5 -5 -49.5s-9.33301 -29.167 -18 -42.5c-10 -18 -23 -35 -39 -51s-35 -32.333 -57 -49
c-1.33301 -8.66699 1.83398 -16.834 9.50098 -24.501l23.5 -22.5c6 -3.33301 15.333 -10.333 28 -21s24.334 -16 35.001 -16c32 50.667 48 105.667 48 165v15v12c-1.33301 6 -2 10.333 -2 13c3.33301 0 5 1.66699 5 5c12 -1.33301 20.667 -2 26 -2
c10.667 0 21.167 0.333008 31.5 1l30.5 2c9.33301 0 16.333 -0.333008 21 -1c2.66699 -5.33301 4 -12.666 4 -21.999c-0.666992 -12 -1 -21 -1 -27c0 -6.66699 0.333008 -11.667 1 -15c0 -36.667 -5.33301 -72.167 -16 -106.5s-26.334 -68.5 -47.001 -102.5v-8
c51.333 -37.333 101.666 -76.666 150.999 -117.999zM277.997 498.999c-2 22 -7.5 37 -16.5 45s-21.833 14 -38.5 18c-8 -3.33301 -14.833 -6.33301 -20.5 -9s-11.5 -7 -17.5 -13c-12.667 -16.667 -19 -36.667 -19 -60c0 -14.667 2.16699 -30 6.5 -46
s8.83301 -28.667 13.5 -38s9 -16 13 -20s8 -5.33301 12 -4c44.667 30 67 72.333 67 127zM289.997 94.999c-13.333 13.333 -29.8311 27.833 -49.498 43.5l-55.5 45.5c-2.66699 2 -2.33398 1.5 0.999023 -1.5s5 -4.83301 5 -5.5c-0.666992 0 -1.33398 0.166992 -2.00098 0.5
s-5 3.83301 -13 10.5c-13.333 -14.667 -20 -30.334 -20 -47.001c-2 -15.333 0.166992 -29.166 6.5 -41.499s16.5 -25.166 30.5 -38.499c10 -6 21 -9 33 -9c10.667 0 20.667 2 30 6c8.66699 6.66699 16.5 13.167 23.5 19.5s10.5 12.166 10.5 17.499z" />
    <glyph glyph-name="quotesingle" unicode="'" horiz-adv-x="275" 
d="M213 605c-10.667 -20.667 -18.666 -42.001 -23.999 -64.001s-9.66602 -47.333 -12.999 -76c-10.667 -4 -23.334 -7.5 -38.001 -10.5l-51 -10.5l-4 5c4 31.333 6 67 6 107c0 8.66699 -0.166992 18.167 -0.5 28.5s-1.5 22.5 -3.5 36.5
c9.33301 2.66699 21.666 4.66699 36.999 6s29.333 2 42 2c14 0 24.5 -0.666992 31.5 -2s12.833 -8.66602 17.5 -21.999z" />
    <glyph glyph-name="parenleft" unicode="(" horiz-adv-x="348" 
d="M333 -116c-14 -11.333 -27.5029 -20.668 -40.5029 -28.001s-33.167 -17.666 -60.5 -30.999c-50 13.333 -95 42.666 -135 87.999s-63.667 87.333 -71 126s-12.166 68.5 -14.499 89.5s-3.5 42.833 -3.5 65.5c0 46.667 5.66699 87.334 17 122.001s28.5 72.667 51.5 114
s52.333 77.5 88 108.5s72.834 57.167 111.501 78.5l47 22c-59.333 -62.667 -108.166 -132 -146.499 -208s-57.5 -155 -57.5 -237c0 -66 9.66699 -121.667 29 -167s48.5 -77.333 87.5 -96z" />
    <glyph glyph-name="parenright" unicode=")" horiz-adv-x="354" 
d="M320 401c10 -53.333 14.999 -98.998 14.999 -136.998c0 -46.667 -5.5 -86.667 -16.5 -120s-28 -71 -51 -113s-53 -79 -90 -111s-73.833 -58 -110.5 -78c-16 -6.66699 -31.667 -13.667 -47 -21c58.667 61.333 107.5 130.166 146.5 206.499s58.5 155.5 58.5 237.5
c0 66 -9.66699 121.833 -29 167.5s-48.666 77.667 -87.999 96s-72 34.166 -98 47.499c12.667 10.667 26.5 20 41.5 28s34.833 18 59.5 30c50.667 -12.667 95.667 -41.667 135 -87s64 -94 74 -146z" />
    <glyph glyph-name="asterisk" unicode="*" horiz-adv-x="385" 
d="M346 511l-41.501 -6.5c-11 -1.66699 -16.833 -3.5 -17.5 -5.5c0.666992 -3.33301 5.5 -8.66602 14.5 -15.999s13.5 -14 13.5 -20l-46 -22c-4.66699 1.33301 -12.5 4.83301 -23.5 10.5s-17.167 7.83398 -18.5 6.50098v-42c0 -11.333 -0.333008 -19.333 -1 -24
c-18 8 -32.5 15.333 -43.5 22s-16.5 19.334 -16.5 38.001c-6 -3.33301 -11.667 -6.33301 -17 -9c-14 -10 -24 -16.333 -30 -19c-2 10.667 -4.33301 20.667 -7 30l-8 29l6 22c-3.33301 3.33301 -9 5 -17 5c-4 0 -8.66699 0.166992 -14 0.5s-9.66602 4.5 -12.999 12.5
c-6 9.33301 -10.667 17 -14 23s-5 11.667 -5 17c5.33301 2 17.166 3.66699 35.499 5s27.5 2.66602 27.5 3.99902c-4.66699 7.33301 -10.5 14 -17.5 20s-11.167 11.667 -12.5 17c12 7.33301 22.5 13.5 31.5 18.5s17.167 5.83301 24.5 2.5
c2.66699 -0.666992 6.83398 -3.16699 12.501 -7.5s10.5 -5.83301 14.5 -4.5c2.66699 6 4.33398 15 5.00098 27s1.66699 20.667 3 26c8 -3.33301 17.333 -9.33301 28 -18s17.334 -15 20.001 -19c2.66699 -6.66699 5.33398 -13 8.00098 -19c6 1.33301 14 5.83301 24 13.5
s16 11.834 18 12.501c6 -1.33301 11 -6.5 15 -15.5s7.66699 -15.167 11 -18.5c1.33301 -4.66699 -0.833984 -10.5 -6.50098 -17.5s-8.5 -11.167 -8.5 -12.5c0 -2.66699 2.16699 -4.83398 6.5 -6.50098s12.166 -2.83398 23.499 -3.50098s18.666 -6.33398 21.999 -17.001
s8 -23.667 14 -39z" />
    <glyph glyph-name="plus" unicode="+" horiz-adv-x="500" 
d="M484 354c-6.66699 -11.333 -10.6709 -27.9971 -12.0039 -49.9971s-5 -38.333 -11 -49c-2.66699 0 -4.83398 -0.5 -6.50098 -1.5s-2.5 -1.83301 -2.5 -2.5c-20 2 -44.833 4 -74.5 6s-54.5 3 -74.5 3c0 -20 1 -50.667 3 -92s3 -72.333 3 -93h-7c-8 5.33301 -17.667 8 -29 8
c-6.66699 0 -16.167 -0.833008 -28.5 -2.5s-19.5 -2.5 -21.5 -2.5c-12 0 -22 3 -30 9c7.33301 47.333 11 105 11 173c-27.333 0 -62 -0.833008 -104 -2.5s-66.333 -2.5 -73 -2.5v7c6 8.66699 10.5 25.5 13.5 50.5s8.5 42.5 16.5 52.5c44.667 -6.66699 93.667 -10 147 -10
c0 49.333 -0.166992 85.166 -0.5 107.499s-1.16602 43.5 -2.49902 63.5h9c4.66699 -2.66699 10.834 -4.83398 18.501 -6.50098s14.834 -2.5 21.501 -2.5h22c8.66699 0 15.334 -0.333008 20.001 -1s10.334 -3 17.001 -7c0 -2.66699 0.5 -4.83398 1.5 -6.50098
s1.83301 -2.5 2.5 -2.5c-2 -19.333 -4 -43.333 -6 -72s-3 -52.667 -3 -72c44.667 0 80.5 0.666992 107.5 2s51.167 3 72.5 5v-9z" />
    <glyph glyph-name="comma" unicode="," horiz-adv-x="295" 
d="M270 143c2 -10 -13.5 -39.333 -46.5 -88s-64.5 -86 -94.5 -112c-6 -0.666992 -12.667 -1 -20 -1h-17c-8 0 -17 0.166992 -27 0.5s-21.333 0.5 -34 0.5c16.667 28 33.167 62 49.5 102l40.5 102c13.333 1.33301 28.166 2.33301 44.499 3s33.5 1 51.5 1
c18.667 0 31.834 -0.5 39.501 -1.5s12.167 -3.16699 13.5 -6.5z" />
    <glyph glyph-name="hyphen" unicode="-" horiz-adv-x="348" 
d="M326 351c-4 -10.667 -10.8291 -23.5 -20.4961 -38.5l-32.5 -49.5c-12.667 -0.666992 -28.334 -1.16699 -47.001 -1.5s-37.334 -0.5 -56.001 -0.5h-26h-23h-20h-16h-13h-31c-8 0 -14.667 0.333008 -20 1l55 91c23.333 0 60.166 0.833008 110.499 2.5
s78.166 2.5 83.499 2.5c28 0 44 -0.333008 48 -1z" />
    <glyph glyph-name="hyphen" unicode="&#xad;" horiz-adv-x="348" 
d="M326 351c-4 -10.667 -10.8291 -23.5 -20.4961 -38.5l-32.5 -49.5c-12.667 -0.666992 -28.334 -1.16699 -47.001 -1.5s-37.334 -0.5 -56.001 -0.5h-26h-23h-20h-16h-13h-31c-8 0 -14.667 0.333008 -20 1l55 91c23.333 0 60.166 0.833008 110.499 2.5
s78.166 2.5 83.499 2.5c28 0 44 -0.333008 48 -1z" />
    <glyph glyph-name="period" unicode="." horiz-adv-x="260" 
d="M222 64c-2.66699 -3.33301 -10.832 -14.3301 -24.499 -32.9971s-25.834 -32.334 -36.501 -41.001l-72 24.5c-17.333 5.66699 -37 13.5 -59 23.5c0 5.33301 3 10.666 9 15.999s9.66699 9.66602 11 12.999l33.5 37c5.66699 6 12.834 12.667 21.501 20
c22.667 -10 42 -19 58 -27l35.5 -17.5c7.66699 -3.66699 13.667 -6.16699 18 -7.5s6.16602 -4 5.49902 -8z" />
    <glyph glyph-name="slash" unicode="/" horiz-adv-x="520" 
d="M487 643l-182.999 -317c-58.667 -106.667 -101.5 -187.334 -128.5 -242.001s-53.5 -83 -79.5 -85s-47.667 -3 -65 -3c26 62 56.333 127.833 91 197.5l135.5 265c55.667 107 84.167 162.833 85.5 167.5c2 2.66699 23 6.66699 63 12s64 8 72 8
c2 0 4.16699 -0.166992 6.5 -0.5s3.16602 -1.16602 2.49902 -2.49902z" />
    <glyph glyph-name="zero" unicode="0" horiz-adv-x="860" 
d="M788 493c24 -45.333 35.999 -96.3301 35.999 -152.997c0 -38 -5.33301 -74.667 -16 -110s-30.667 -72.666 -60 -111.999s-71.833 -70.666 -127.5 -93.999s-117.5 -35 -185.5 -35c-23.333 -4.66699 -42.5 -7.83398 -57.5 -9.50098s-32.833 -2.5 -53.5 -2.5
c-42.667 0 -81.667 6.16699 -117 18.5s-65.833 33.166 -91.5 62.499s-45.667 63.166 -60 101.499s-21.5 78.166 -21.5 119.499c0 39.333 7.83301 81.5 23.5 126.5s48.834 88.167 99.501 129.5s105 66.333 163 75c24.667 2 49.5 4.5 74.5 7.5s45.5 7.16699 61.5 12.5
s30.167 8.66602 42.5 9.99902s24.5 2 36.5 2c52.667 0 102 -13.833 148 -41.5s81 -63.5 105 -107.5zM632.999 449.003c-22.667 37.333 -46.3311 63.5 -70.998 78.5s-49.834 25.5 -75.501 31.5s-45.834 9 -60.501 9c-24.667 0 -48.667 -5.83301 -72 -17.5
s-48 -28.167 -74 -49.5c-60 -60 -90 -131.333 -90 -214c0 -36 7.83301 -72.833 23.5 -110.5s43.5 -69.167 83.5 -94.5s83.667 -38 131 -38c81.333 12.667 137.333 40.667 168 84s50 78.833 58 106.5s12 55.834 12 84.501c0 49.333 -11 92.666 -33 129.999z" />
    <glyph glyph-name="one" unicode="1" horiz-adv-x="535" 
d="M512 66c-4 -6 -7.00293 -18.666 -9.00293 -37.999s-6.33301 -33 -13 -41c-62.667 0 -151.5 1.5 -266.5 4.5s-178.833 4.5 -191.5 4.5c-2 4 -3 7.66699 -3 11s1.16699 8.16602 3.5 14.499s3.5 10.833 3.5 13.5c1.33301 4 2.66602 13.333 3.99902 28s6 26 14 34
c27.333 -4 50.833 -7.16699 70.5 -9.5s37.834 -3.5 54.501 -3.5c11.333 0 17 4.33301 17 13c0 57.333 1.5 138.5 4.5 243.5s4.5 163.167 4.5 174.5c-4 10 -8.66699 16 -14 18c-13.333 0 -39 -3 -77 -9s-65.333 -9 -82 -9c-3.33301 1.33301 -4.16602 4.83301 -2.49902 10.5
s2.5 9.5 2.5 11.5c2.66699 9.33301 6.5 25 11.5 47s8.5 36.667 10.5 44c2.66699 0 5.33398 1.66699 8.00098 5c48.667 -4.66699 103 -7 163 -7c59.333 0 113.333 2.33301 162 7v-5c-14 -75.333 -23.333 -157.5 -28 -246.5s-7 -187.167 -7 -294.5
c2 -3.33301 4.33301 -5.5 7 -6.5s6 -1.5 10 -1.5c5.33301 -0.666992 10.833 -1 16.5 -1h17.5c14.667 0 28.834 0.333008 42.501 1l41.5 2c6 0 14.333 -0.666992 25 -2v-13z" />
    <glyph glyph-name="two" unicode="2" horiz-adv-x="768" 
d="M745 100c-4.66699 -6 -16.002 -21.4961 -34.002 -46.4961s-31 -43.833 -39 -56.5c-8 -2.66699 -17 -4 -27 -4c-13.333 0.666992 -23.666 1 -30.999 1c-9.33301 0 -16.333 -0.333008 -21 -1c-50 0 -110.5 0.666992 -181.5 2l-212.5 4
c-70.667 1.33301 -131.334 2 -182.001 2v4c88 46 148 78.167 180 96.5s68.833 43.166 110.5 74.499s80.834 69.666 117.501 114.999c0 2 -0.333008 3.66699 -1 5s-1.66699 2.33301 -3 3c-20 -8 -39.667 -14.167 -59 -18.5s-39.333 -6.5 -60 -6.5
c-19.333 0 -36.5 2.16699 -51.5 6.5s-31.167 13.833 -48.5 28.5s-31 34.167 -41 58.5s-15 50.833 -15 79.5c0 15.333 1.83301 34 5.5 56s21.5 47.667 53.5 77s67.667 48.333 107 57c15.333 0 38.333 1.33301 69 4s54 4 70 4c14.667 0 29 -1 43 -3h18.5
c6.33301 0 12.5 0.333008 18.5 1c22.667 0 41.834 -5.83301 57.501 -17.5s33.334 -36 53.001 -73s29.5 -71.5 29.5 -103.5c0 -36.667 -8.33301 -72.167 -25 -106.5s-36.334 -65.333 -59.001 -93s-43 -49.834 -61 -66.501s-51.667 -44.334 -101 -83.001
c0 -2.66699 1.66699 -5 5 -7s6.33301 -3.66699 9 -5c38 0 94.833 2 170.5 6s119.167 6 130.5 6h5zM493.998 416.004c3.33301 12 5 23.332 5 33.999c0 12 -1.33301 24.333 -4 37s-8.5 27.5 -17.5 44.5s-18.5 29 -28.5 36s-20.667 11.333 -32 13s-19 2.5 -23 2.5
c-16.667 0 -32 -4.33301 -46 -13s-26 -21 -36 -37c-10 -19.333 -15 -42.333 -15 -69c0 -20 3.5 -36.667 10.5 -50s17 -24.166 30 -32.499s25.833 -12.5 38.5 -12.5c9.33301 -1.33301 16.333 -2 21 -2c20 0 38 4.16699 54 12.5s30.333 20.5 43 36.5z" />
    <glyph glyph-name="three" unicode="3" horiz-adv-x="661" 
d="M646 620c-4 -3.33301 -17.6709 -14.1689 -41.0039 -32.502s-57.833 -47.666 -103.5 -87.999l-137.5 -126.5c0 -7.33301 4 -11 12 -11c6.66699 0.666992 11.667 1 15 1c4 0 7.66699 -1 11 -3c40 -4.66699 75.833 -17.667 107.5 -39s51.834 -49.666 60.501 -84.999
c2 -12 3 -23.333 3 -34c0 -22 -4.33301 -42.667 -13 -62s-26.167 -41.833 -52.5 -67.5s-63.666 -46.167 -111.999 -61.5s-100.5 -23 -156.5 -23c-35.333 0 -70.666 2.5 -105.999 7.5s-71.333 12.5 -108 22.5c-2.66699 2.66699 -4 7 -4 13c0 14.667 0.166992 29.167 0.5 43.5
s1.5 29.833 3.5 46.5c1.33301 2 3 3 5 3c72 -28 121 -46.167 147 -54.5s59.667 -12.5 101 -12.5c22.667 4 44.667 13.667 66 29s33.666 29.5 36.999 42.5s5.33301 21.833 6 26.5s1 9 1 13c0 17.333 -4.33301 33.333 -13 48s-21 28.334 -37 41.001
c-18.667 10.667 -38 18.167 -58 22.5s-42 6.5 -66 6.5c-22.667 0 -50.5 -2.5 -83.5 -7.5l-92.5 -13.5c-1.33301 1.33301 -1.83301 2.66602 -1.5 3.99902s0.833008 3 1.5 5l256 257c0 5.33301 -2.33301 8 -7 8c-26 0 -69.167 -0.666992 -129.5 -2s-93.166 -2 -98.499 -2l-3 4
c12.667 36 25.334 69 38.001 99c2 2.66699 4.66699 4 8 4c86 0 198.167 -3 336.5 -9s207.5 -10.333 207.5 -13z" />
    <glyph glyph-name="four" unicode="4" horiz-adv-x="737" 
d="M706 232l-47 -102.002l-4 -5h-104c-6.66699 -9.33301 -10 -21.333 -10 -36c0 -4 0.333008 -10.167 1 -18.5s1 -14.166 1 -17.499v-14v-20c-2 -8.66699 -3.33301 -14.667 -4 -18c-6.66699 -0.666992 -12.667 -1.16699 -18 -1.5s-10 -0.5 -14 -0.5
c-6.66699 0 -17.5 0.333008 -32.5 1s-26.5 1 -34.5 1c-12 -0.666992 -21.333 -1 -28 -1c-11.333 0 -20.666 1.66699 -27.999 5c0 10.667 1.66699 29.167 5 55.5s5 44.833 5 55.5c0 2.66699 -3.33301 7.33398 -10 14.001h-373v17l113 132.5l149 187l129 163.5
c2.66699 1.33301 4 3 4 5c12 -1.33301 22.333 -2 31 -2c14.667 0 36.667 1.33301 66 4s49.333 4 60 4c21.333 0 32 -3.66699 32 -11c0 -10.667 -2.83301 -25 -8.5 -43s-10.334 -41 -14.001 -69l-15.5 -124c-6.66699 -54.667 -10 -106 -10 -154c2.66699 -2 5.66699 -3 9 -3
c8.66699 -0.666992 16.167 -1.16699 22.5 -1.5s11.5 -0.5 15.5 -0.5c18 0 40.5 0.833008 67.5 2.5s41.833 2.5 44.5 2.5c2 -1.33301 2 -4 0 -8zM415 484.998l-0.000976562 25c0 6.66699 -0.666992 11.667 -2 15c-0.666992 0 -1.66699 -4.83301 -3 -14.5
s-7.83301 -20.667 -19.5 -33s-27 -31 -46 -56l-77.5 -106.5c-32.667 -46 -49 -70.667 -49 -74s1.33301 -6.33301 4 -9c17.333 0 49.333 -0.666992 96 -2s72 -2 76 -2c2.66699 2.66699 5.33398 5.66699 8.00098 9z" />
    <glyph glyph-name="five" unicode="5" horiz-adv-x="665" 
d="M655 367c0 -2.66699 -2.99707 -3.99902 -8.99707 -3.99902h-144c-10.667 11.333 -26.334 32 -47.001 62s-36.334 51 -47.001 63h-9l-94 -116c2.66699 -6 8.5 -9.66699 17.5 -11s24.333 -3.33301 46 -6s45.5 -13.834 71.5 -33.501s43.333 -44.834 52 -75.501
c8 -18 12 -37 12 -57c0 -40.667 -14.333 -77.334 -43 -110.001c-28.667 -29.333 -63.334 -50.166 -104.001 -62.499s-85.334 -18.5 -134.001 -18.5c-28 0 -52.833 1 -74.5 3s-43.667 4.5 -66 7.5s-37.666 5.33301 -45.999 7s-13.5 6.5 -15.5 14.5
c5.33301 28.667 8 56.667 8 84c0 0.666992 1.66699 3 5 7c25.333 -14 51.833 -25.333 79.5 -34s55.167 -13 82.5 -13c29.333 0 54.5 5.66699 75.5 17s37.333 25.333 49 42s16.5 34.334 14.5 53.001c0 15.333 -4.83301 29.333 -14.5 42s-22.834 24.667 -39.501 36
c-15.333 8.66699 -31.333 14.5 -48 17.5s-36.667 4.5 -60 4.5c-17.333 0 -40.666 -0.833008 -69.999 -2.5s-46.666 -2.5 -51.999 -2.5c0 2.66699 9.33301 14.5 28 35.5l75 88.5l88.5 112l84.5 112h37c12.667 0 25.667 0.333008 39 1c24 0 44.167 -0.666992 60.5 -2
s31.166 -11.5 44.499 -30.5s33 -49.167 59 -90.5z" />
    <glyph glyph-name="six" unicode="6" horiz-adv-x="789" 
d="M779 513c-70.667 0 -125.664 -0.496094 -164.997 -1.49609s-81.5 -4 -126.5 -9s-89.167 -13.167 -132.5 -24.5c-32.667 -6.66699 -62.834 -23.834 -90.501 -51.501s-46.834 -57.334 -57.501 -89.001s-16 -62.167 -16 -91.5c0 -32 5.16699 -61.333 15.5 -88
s25.666 -48.5 45.999 -65.5s39.333 -29.333 57 -37s35.834 -11.5 54.501 -11.5c5.33301 0.666992 9.33301 1 12 1c30.667 8.66699 57.167 26.5 79.5 53.5s35 51.5 38 73.5s4.5 38.667 4.5 50c0 66 -28.667 114.667 -86 146c-14 6 -29.5 10.333 -46.5 13s-45.833 4 -86.5 4
c-1.33301 3.33301 0.166992 7.16602 4.5 11.499s8.5 8.16602 12.5 11.499c28.667 17.333 60.5 29.666 95.5 36.999s72.5 11 112.5 11c42 -18 76.833 -47 104.5 -87s41.5 -81.667 41.5 -125c0 -46.667 -12 -89.334 -36 -128.001s-54.833 -67.5 -92.5 -86.5
s-77.5 -30.667 -119.5 -35s-94.667 -6.5 -158 -6.5c-37.333 4 -71.166 15.167 -101.499 33.5s-53.833 43.833 -70.5 76.5c-23.333 38.667 -35 85 -35 139c0 32 4 62.667 12 92s26.667 64.166 56 104.499s74.166 76.833 134.499 109.5s112.5 55.334 156.5 68.001
s77.167 21.834 99.5 27.501s37.166 9.5 44.499 11.5c2 0 4 -0.333008 6 -1s6.5 -3.16699 13.5 -7.5s44.167 -26.166 111.5 -65.499z" />
    <glyph glyph-name="seven" unicode="7" horiz-adv-x="772" 
d="M758 629c-3.33301 -2.66699 -5.00098 -5.66797 -5.00098 -9.00098c-92 -93.333 -179.167 -191.666 -261.5 -294.999s-164.5 -214.333 -246.5 -333c-7.33301 -4.66699 -17 -7 -29 -7c-6 0 -14.333 0.5 -25 1.5s-16.334 1.5 -17.001 1.5h-150v8l196 211
c30 33.333 65 76.833 105 130.5s75 111.167 105 172.5c2 2.66699 2.5 5.5 1.5 8.5s-2.5 5.83301 -4.5 8.5c-40 0 -105.333 -0.666992 -196 -2s-139 -2 -145 -2v9l56 97c0 2 2 3.66699 6 5c29.333 -2.66699 68.333 -4.66699 117 -6s98 -2 148 -2
c50.667 0 103.334 0.333008 158.001 1s111.334 1.66699 170.001 3h12.5c1.66699 0 3.16699 -0.333008 4.5 -1z" />
    <glyph glyph-name="eight" unicode="8" horiz-adv-x="648" 
d="M603 562c12 -23.333 17.998 -48.333 17.998 -75c0 -24 -3.83301 -46.833 -11.5 -68.5s-17.334 -40.334 -29.001 -56.001s-26.5 -29.334 -44.5 -41.001s-29.667 -19.5 -35 -23.5s-8 -7.66699 -8 -11c22 -18.667 39.5 -38.667 52.5 -60s19.5 -44.666 19.5 -69.999
c0 -9.33301 -2 -23.666 -6 -42.999s-17.333 -41.333 -40 -66s-44.5 -41 -65.5 -49s-39.833 -13 -56.5 -15s-33.334 -3 -50.001 -3c-22 0 -53.333 1.5 -94 4.5s-63 4.5 -67 4.5c-36 4 -68.667 15.833 -98 35.5s-46.666 39 -51.999 58s-8 31.167 -8 36.5v13
c0 40 14.333 72 43 96l31.5 17c8.33301 4.66699 15.5 10.667 21.5 18c-3.33301 6 -10.666 14.333 -21.999 25s-23.666 25.5 -36.999 44.5s-20 51.5 -20 97.5c0 35.333 7.83301 69 23.5 101s41.167 59.167 76.5 81.5s74 35.833 116 40.5h160c39.333 0 75.333 -7.5 108 -22.5
s57.334 -38.167 74.001 -69.5zM451.998 420c4 12.667 6.50195 22.833 7.50195 30.5s1.5 17.167 1.5 28.5s-1.33301 22 -4 32s-12.667 26 -30 48s-42.666 33 -75.999 33c-26 -4.66699 -49.833 -13 -71.5 -25s-37.834 -28.667 -48.501 -50c-13.333 -20.667 -20 -43 -20 -67
c0 -19.333 5.16699 -39 15.5 -59s26.666 -35.167 48.999 -45.5s47.166 -15.5 74.499 -15.5c21.333 2.66699 40.833 12.667 58.5 30s32.167 37.333 43.5 60zM389 170.999c-3.33301 12.667 -11.834 22.5 -25.501 29.5s-28.5 11.833 -44.5 14.5
c-15.333 0.666992 -30.333 1.66699 -45 3c-16.667 0 -31.667 -2.16699 -45 -6.5s-25 -12.166 -35 -23.499c-8.66699 -15.333 -13 -33 -13 -53c0 -10.667 2.33301 -22.167 7 -34.5s14.667 -24 30 -35s31.333 -18.833 48 -23.5c21.333 2.66699 40.833 7.66699 58.5 15
s33.834 18.666 48.501 33.999c13.333 18 20 37 20 57c0 9.33301 -1.33301 17 -4 23z" />
    <glyph glyph-name="nine" unicode="9" horiz-adv-x="750" 
d="M701 280c-31.333 -70.667 -81.335 -129.329 -150.002 -175.996s-147.334 -85 -236.001 -115c-6.66699 -0.666992 -18.667 -4 -36 -10s-30.666 -9 -39.999 -9l-125 59c-31.333 14.667 -67 30 -107 46c0 3.33301 3 5 9 5l196 24.5
c66.667 8.33301 124.334 19.5 173.001 33.5s89 40.667 121 80s49.333 71.666 52 96.999s4.16699 40.5 4.5 45.5s0.5 9.16699 0.5 12.5c0 37.333 -7.16699 71.666 -21.5 102.999s-36.5 58 -66.5 80c-16.667 9.33301 -31.5 16.333 -44.5 21s-27.5 7 -43.5 7
c-7.33301 0 -19.333 -1.83301 -36 -5.5s-36.167 -18.334 -58.5 -44.001s-35.5 -50.334 -39.5 -74.001s-6 -41.834 -6 -54.501c0 -50.667 16.667 -91.334 50 -122.001c13.333 -14 30.333 -24.5 51 -31.5s42 -10.5 64 -10.5c14.667 0 26.334 0.666992 35.001 2s21 4 37 8
c0 -6 -2.33301 -11.333 -7 -16s-11.667 -10 -21 -16c-44.667 -35.333 -97 -53 -157 -53c-27.333 0 -55.5 5.33301 -84.5 16s-53.667 30.834 -74 60.501s-36.166 64.167 -47.499 103.5c-3.33301 18 -5 34.333 -5 49c0 33.333 7.16699 64.833 21.5 94.5s42.5 62.5 84.5 98.5
s102.333 54 181 54c31.333 6.66699 60.666 10 87.999 10c42 0 80.167 -6.33301 114.5 -19s61.333 -31.667 81 -57s34.5 -54.666 44.5 -87.999s15 -67.333 15 -102c0 -36 -5.66699 -71.667 -17 -107z" />
    <glyph glyph-name="colon" unicode=":" horiz-adv-x="328" 
d="M302 355c0.666992 -0.666992 0.333008 -2.99902 -1 -6.99902l-76 -69c-1.33301 -0.666992 -5.33301 -0.666992 -12 0c-15.333 7.33301 -39 16.333 -71 27s-55.667 19 -71 25c1.33301 3.33301 2 6.33301 2 9c11.333 8.66699 27.5 23.167 48.5 43.5
s34.833 33.166 41.5 38.499c25.333 -10.667 49.5 -21.667 72.5 -33zM237.999 69.001c-12.667 -17.333 -23.8301 -32 -33.4971 -44s-19.5 -22 -29.5 -30c-48 18 -98.333 39 -151 63c0 5.33301 3.16699 10.5 9.5 15.5s10.166 9.5 11.499 13.5
c17.333 20.667 35.666 40 54.999 58l68 -35.5c33.333 -17.667 51.333 -27 54 -28l10.5 -4c4.33301 -1.66699 6.16602 -4.5 5.49902 -8.5z" />
    <glyph glyph-name="semicolon" unicode=";" horiz-adv-x="333" 
d="M314 303c0.666992 -0.666992 -0.665039 -2.66699 -3.99805 -6l-81 -53c-4.66699 0 -7.66699 0.166992 -9 0.5s-2.33301 1.16602 -3 2.49902c-16.667 9.33301 -42 22 -76 38s-54.333 25.667 -61 29v4c15.333 9.33301 34.166 19.333 56.499 30s35.166 16.667 38.499 18
l14 -2c12.667 -7.33301 35.5 -18.666 68.5 -33.999s51.833 -24.333 56.5 -27zM275.001 167c-26 -50.667 -47.501 -87.6689 -64.501 -111.002s-36.167 -48.166 -57.5 -74.499s-33.666 -39.5 -36.999 -39.5c-12 0 -29.5 -0.833008 -52.5 -2.5s-37.5 -2.5 -43.5 -2.5l-3 5
l151 230c12.667 2 29.167 3.33301 49.5 4s39.5 1 57.5 1c2.66699 -3.33301 2.66699 -6.66602 0 -9.99902z" />
    <glyph glyph-name="less" unicode="&#x3c;" horiz-adv-x="755" 
d="M703 131c-20 -14 -32.498 -23.833 -37.498 -29.5s-10.833 -14 -17.5 -25s-13.5 -23.333 -20.5 -37s-13.5 -23.5 -19.5 -29.5l-180.5 103l-174 92l-224.5 115c1.33301 5.33301 1.66602 9.16602 0.999023 11.499s35.333 21.666 108 57.999l236.5 119
c85 43 155.833 80.5 212.5 112.5c4 0.666992 6.66699 0.333984 8 -0.999023c3.33301 -15.333 13.833 -36.166 31.5 -62.499s33.5 -44.833 47.5 -55.5l4 -9c-62 -23.333 -122 -49 -180 -77s-112.667 -58 -164 -90c-2 -1.33301 -2.83301 -2.66602 -2.5 -3.99902
s32.166 -20.333 95.499 -57s154 -79.334 272 -128.001z" />
    <glyph glyph-name="equal" unicode="=" horiz-adv-x="500" 
d="M484 456c-6.66699 -11.333 -10.666 -28.001 -11.999 -50.001s-5 -38.333 -11 -49c-3.33301 0 -6.33301 -1.33301 -9 -4c-30 3.33301 -57.5 5.33301 -82.5 6s-57.833 1 -98.5 1c-40 0 -90.5 -0.5 -151.5 -1.5s-91.833 -1.5 -92.5 -1.5c-1.33301 0.666992 -1.33301 3 0 7
c6 8.66699 10.5 25.5 13.5 50.5s8.5 42.5 16.5 52.5c22 -3.33301 48.5 -5.66602 79.5 -6.99902s63.5 -2 97.5 -2c45.333 0 91.666 0.833008 138.999 2.5s84.333 3.16699 111 4.5v-9zM481.001 253.999c-6 -8.66699 -10.5 -25.499 -13.5 -50.499s-8.5 -42.5 -16.5 -52.5
c-22 3.33301 -48.5 5.66602 -79.5 6.99902s-63.5 2 -97.5 2c-46 0 -89.5 -0.833008 -130.5 -2.5s-80.833 -3.16699 -119.5 -4.5v9c6.66699 11.333 10.667 28 12 50s5 38.333 11 49c3.33301 0 6.33301 1.33301 9 4c30 -2.66699 57.5 -4.5 82.5 -5.5s57.833 -1.5 98.5 -1.5
c40 0 90.5 0.5 151.5 1.5s91.833 1.5 92.5 1.5c1.33301 -0.666992 1.33301 -3 0 -7z" />
    <glyph glyph-name="greater" unicode="&#x3e;" horiz-adv-x="755" 
d="M717 320l-198.498 -101l-185.5 -98l-195 -111c-6 6 -12.5 15.833 -19.5 29.5s-13.5 25.5 -19.5 35.5s-12.333 18.5 -19 25.5s-19 17.167 -37 30.5c-0.666992 2 -0.5 3.33301 0.5 4s17.167 7.5 48.5 20.5s77 34.5 137 64.5s106 54.333 138 73s48 28.667 48 30l-3 3
c-102 62.667 -216.667 118.334 -344 167.001l4 9c14 10.667 29.833 29.167 47.5 55.5s28.167 47.166 31.5 62.499c1.33301 1.33301 4 1.66602 8 0.999023c50 -28 118.833 -64.333 206.5 -109l241.5 -122c73.333 -36.667 109.666 -55.667 108.999 -57
c1.33301 -5.33301 1.66602 -9.66602 0.999023 -12.999z" />
    <glyph glyph-name="question" unicode="?" horiz-adv-x="400" 
d="M362 229c-46 -30 -83.8311 -50.6641 -113.498 -61.9971s-56.834 -17 -81.501 -17c-32.667 0 -62 9.33301 -88 28c-6 6 -11.333 12.167 -16 18.5s-8 13.166 -10 20.499c0 31.333 8.16699 60 24.5 86s29.666 45.833 39.999 59.5l43 55c18.333 23 27.5 44.5 27.5 64.5
c0 9.33301 -2 19 -6 29c-10 9.33301 -22.333 14 -37 14c-10 0 -22.167 -2.5 -36.5 -7.5l-39.5 -13.5c-4.66699 6.66699 -8.16699 17.5 -10.5 32.5s-4.16602 24.167 -5.49902 27.5l4 7c32.667 24.667 66.167 44.167 100.5 58.5s70.5 21.5 108.5 21.5
c21.333 -8.66699 35 -14.5 41 -17.5s15.333 -12.167 28 -27.5s19 -35.666 19 -60.999c0 -10.667 -2.66699 -22.334 -8 -35.001s-15.5 -27.167 -30.5 -43.5l-43.5 -46.5l-9 -4l-31 -51c-10.667 -18 -16 -34.333 -16 -49c0 -13.333 3.66699 -26 11 -38
c11.333 -12 26.333 -18 45 -18l17 2c11.333 1.33301 23.166 5.16602 35.499 11.499l35.5 18.5c2.66699 -8.66699 4 -20 4 -34c0 -5.33301 -0.333008 -10.833 -1 -16.5s-1 -9.83398 -1 -12.501zM335.002 80.0029c-32.667 -32 -69.668 -61.667 -111.001 -89
c-32.667 6.66699 -63.167 13.667 -91.5 21s-61.166 16.333 -98.499 27v4l135 80c28 -6 58.167 -13.167 90.5 -21.5s56.5 -14.833 72.5 -19.5z" />
    <glyph glyph-name="at" unicode="@" horiz-adv-x="744" 
d="M722 415c0 -60 -15.002 -112.997 -45.002 -158.997s-65.167 -76.5 -105.5 -91.5s-67.833 -22.5 -82.5 -22.5c-16.667 0 -29.667 4.66699 -39 14s-14 22.333 -14 39v7c-28.667 -36.667 -65.334 -55 -110.001 -55c-46 0 -83 15.667 -111 47s-42 73 -42 125
c0 64 18.333 117 55 159s82.667 63 138 63c57.333 0 98.333 -25.333 123 -76l12 62h59l-52 -279l-5 -36c0 -12.667 7 -19 21 -19c10 0 22.5 4.33301 37.5 13s32 21.667 51 39s34.833 40.666 47.5 69.999s19 59.333 19 90c0 78 -27.667 142 -83 192s-125.666 75 -210.999 75
c-89.333 0 -164.5 -30.5 -225.5 -91.5s-91.5 -136.833 -91.5 -227.5s30.833 -166.5 92.5 -227.5s137.834 -91.5 228.501 -91.5c50 0 92 9 126 27s68.333 44.333 103 79h60c-24 -30 -42.5 -51.167 -55.5 -63.5s-29.167 -24.5 -48.5 -36.5
c-24 -16.667 -52.5 -29.334 -85.5 -38.001s-67.5 -13 -103.5 -13c-108 0 -197.5 34.167 -268.5 102.5s-106.5 155.166 -106.5 260.499c0 104.667 35.333 192 106 262s159.334 105 266.001 105c98 0 179.167 -28.833 243.5 -86.5s96.5 -130.167 96.5 -217.5zM464.998 373.003
c0 32 -8.16895 56.835 -24.502 74.502s-39.166 26.5 -68.499 26.5c-36 0 -66.333 -14.333 -91 -43s-37 -64.334 -37 -107.001c0 -34.667 9.33301 -62.667 28 -84s43.334 -32 74.001 -32c36 0 64.833 15.167 86.5 45.5s32.5 70.166 32.5 119.499z" />
    <glyph glyph-name="A" unicode="A" horiz-adv-x="645" 
d="M642 -4l-3.99707 -2.99512c-32 0 -63 0.333008 -93 1l-90 2c-5.33301 10.667 -10.666 29.5 -15.999 56.5s-10.333 46.167 -15 57.5c-10 35.333 -16 55.666 -18 60.999s-7.33301 12.333 -16 21c-12.667 2 -29.667 3.33301 -51 4s-33.333 1 -36 1
c-16.667 0 -33.334 -0.166992 -50.001 -0.5s-33 -0.5 -49 -0.5c-6.66699 0 -11.834 -3 -15.501 -9s-9.66699 -23.667 -18 -53l-36.5 -128c0 -2 -1.33301 -3.66699 -4 -5h-121c-1.33301 2 -2 3.33301 -2 4s-0.666992 1 -2 1c43.333 95.333 82.5 187.166 117.5 275.499
s69.167 181.5 102.5 279.5c2 11.333 -1.33301 24 -10 38s-14 23.667 -16 29c0 1.33301 0.833008 2.16602 2.5 2.49902s2.5 1.16602 2.5 2.49902c33.333 0 66.666 -0.666992 99.999 -2s61.666 -2.33301 84.999 -3c4 0 6.33301 -0.333008 7 -1s9.16699 -32.5 25.5 -95.5
s43.333 -144.833 81 -245.5s84.167 -197.334 139.5 -290.001zM364.003 287.005c-4.66699 18 -8.99902 32.833 -12.999 44.5s-12.5 35 -25.5 70s-20.167 52.833 -21.5 53.5c-0.666992 -2 -2.33398 -3 -5.00098 -3c-9.33301 -16.667 -17.5 -33.167 -24.5 -49.5
s-21.833 -54.833 -44.5 -115.5c0 -8.66699 1.33301 -13 4 -13c23.333 -4.66699 47.333 -7 72 -7c16 0 32.667 1 50 3c4 2 6.83301 4.83301 8.5 8.5s1.5 6.5 -0.5 8.5z" />
    <glyph glyph-name="B" unicode="B" horiz-adv-x="605" 
d="M558 221c4.66699 -16.667 7.00293 -35.3311 7.00293 -55.998c0 -51.333 -15.667 -92.333 -47 -123c-18.667 -21.333 -42 -36.5 -70 -45.5s-59 -13.5 -93 -13.5c-14.667 0 -30.667 0.5 -48 1.5s-36 2.83301 -56 5.5c-25.333 0 -65.5 0.666992 -120.5 2s-85.833 2 -92.5 2
c2 11.333 5.16699 25 9.5 41s7.66602 34.333 9.99902 55s4.33301 50 6 88s2.5 82.333 2.5 133c0 28 -0.333008 70 -1 126s-1 97.667 -1 125l-18 66c0 1.33301 1.33301 2.66602 4 3.99902c19.333 0 38.666 -0.166992 57.999 -0.5s39 -0.5 59 -0.5c37.333 0 72 0.666992 104 2
s62 4 90 8c38.667 0 75.667 -5.83301 111 -17.5s59.666 -27.5 72.999 -47.5c14 -24.667 21 -53 21 -85c0 -30 -7 -56 -21 -78c-6 -14.667 -16.167 -28.667 -30.5 -42s-30.833 -25.333 -49.5 -36c-4 -4.66699 -4 -9.33398 0 -14.001c21.333 -9.33301 41 -23 59 -41
s29.333 -37.667 34 -59zM401.003 526.003c-8.66699 15.333 -24.832 27.498 -48.499 36.498s-48.834 13.5 -75.501 13.5c-14 -4 -24.167 -7.83301 -30.5 -11.5s-10.5 -10.5 -12.5 -20.5c-6.66699 -19.333 -12 -43 -16 -71s-6 -68 -6 -120c0 -2 1.5 -4 4.5 -6
s4.5 -3.33301 4.5 -4c12 -1.33301 21 -2 27 -2c30 0 57.833 6.33301 83.5 19s45.5 29.834 59.5 51.501s21 44.834 21 69.501c0 17.333 -3.66699 32.333 -11 45zM405.005 124.001c4 13.333 6.00195 26.333 6.00195 39c0 24 -5.5 43.833 -16.5 59.5s-32 29.667 -63 42
s-60.5 18.5 -88.5 18.5c-4.66699 0.666992 -8.33398 1 -11.001 1c-8 0 -14.667 -3.33301 -20 -10v-53c0 -32 0.833008 -60.5 2.5 -85.5s5.16699 -48.833 10.5 -71.5c3.33301 -6 8.16602 -10.333 14.499 -13s18.833 -4 37.5 -4c28.667 0 55 6.66699 79 20
s40.333 32.333 49 57z" />
    <glyph glyph-name="C" unicode="C" horiz-adv-x="774" 
d="M766 547c0 -6 -3.99902 -10.002 -11.999 -12.002l-122 -51h-12c-28 30.667 -59.667 54.5 -95 71.5s-73 25.5 -113 25.5c-46 -7.33301 -87.667 -27 -125 -59s-62.833 -67.5 -76.5 -106.5s-20.5 -76.167 -20.5 -111.5c0 -37.333 6.5 -72.666 19.5 -105.999
s32.5 -62.333 58.5 -87c21.333 -18.667 44.5 -33.5 69.5 -44.5s50.833 -16.5 77.5 -16.5c15.333 0 50.833 7 106.5 21s125.834 46 210.501 96c-8 -38.667 -16 -72 -24 -100c-8.66699 -26.667 -15 -46.667 -19 -60c-4.66699 -1.33301 -7 -2.66602 -7 -3.99902
c-28.667 -4 -58 -6.66699 -88 -8s-62.333 -2 -97 -2h-14h-12c-12.667 0 -25.334 0.166992 -38.001 0.5s-25 0.5 -37 0.5h-11c-8.66699 -1.33301 -17.834 -2 -27.501 -2h-22.5c-54.667 0 -103 9.33301 -145 28s-77.667 51.5 -107 98.5s-44 104.833 -44 173.5
c0 37.333 5.33301 74 16 110s26 68 46 96c74 90.667 171.667 136 293 136c30 4 55.833 7.16699 77.5 9.5s41.167 3.5 58.5 3.5c13.333 0 31.5 -1.5 54.5 -4.5s59 -18.167 108 -45.5s73.5 -44 73.5 -50z" />
    <glyph glyph-name="D" unicode="D" horiz-adv-x="750" 
d="M672 512c26 -51.333 39.0029 -107.999 39.0029 -169.999c0 -47.333 -8 -93.166 -24 -137.499s-39.667 -82.833 -71 -115.5c-28 -32 -60.667 -55.167 -98 -69.5s-75 -23 -113 -26s-89 -4.5 -153 -4.5c-26.667 0 -66.334 1.16699 -119.001 3.5s-87.667 3.5 -105 3.5
c2.66699 10 8.66699 25.167 18 45.5s15.166 40.666 17.499 60.999s4.33301 49.5 6 87.5s2.5 84.667 2.5 140v19v17v15v13v11c0 11.333 -0.166992 22.666 -0.5 33.999s-0.5 23 -0.5 35v10c0 48.667 -9.33301 93 -28 133c-0.666992 6.66699 0.333008 10 3 10
c37.333 0 74.5 -0.333008 111.5 -1l111.5 -2h18c46 0 90 2.33301 132 7h40c51.333 0 93.166 -7 125.499 -21s61.5 -46.667 87.5 -98zM544.003 430.001c-17.333 46 -39.834 78.333 -67.501 97s-54.167 30.667 -79.5 36s-41.666 8 -48.999 8c-14 0 -31.667 -4.66699 -53 -14
s-37.5 -16.166 -48.5 -20.499s-18.167 -17.5 -21.5 -39.5s-6.33301 -43.333 -9 -64c0 -35.333 -1.5 -84.666 -4.5 -147.999s-4.5 -98 -4.5 -104c0 -15.333 0.333008 -31 1 -47s2 -31.667 4 -47c3.33301 -6.66699 7.5 -12.334 12.5 -17.001s14.5 -10 28.5 -16s32 -9 54 -9
c32 0 63 8.5 93 25.5s59 39.833 87 68.5c22.667 27.333 40.667 58.166 54 92.499s20 69.5 20 105.5c0 15.333 -1.33301 31 -4 47s-7 31.333 -13 46z" />
    <glyph glyph-name="E" unicode="E" horiz-adv-x="514" 
d="M482 620c-4 -10 -9 -26.3369 -15 -49.0039s-9.66699 -36 -11 -40l-10 -4c-26 0 -67.833 0.666992 -125.5 2s-89.167 2 -94.5 2c-6 -4.66699 -9.66699 -8.66699 -11 -12c-1.33301 -8.66699 -2.33301 -19.167 -3 -31.5s-1 -24.5 -1 -36.5c0 -10 0.333008 -25 1 -45
s1 -34.667 1 -44c0.666992 -2 3.33398 -4 8.00098 -6c16 -2.66699 30.833 -4.33398 44.5 -5.00098s30.167 -1 49.5 -1c28 0 53.167 1 75.5 3s48.5 5 78.5 9c0 -14.667 -1.16699 -33.167 -3.5 -55.5s-4.16602 -39.166 -5.49902 -50.499
c-4 -1.33301 -7.66699 -2.66602 -11 -3.99902c-18.667 0 -49.5 1.66699 -92.5 5s-72.167 5 -87.5 5c-16 0 -32.667 -1 -50 -3c-6 -4.66699 -9 -7.33398 -9 -8.00098c-0.666992 -5.33301 -1 -11.166 -1 -17.499v-14.5c0 -11.333 0.666992 -28.666 2 -51.999s2 -41 2 -53
c0 -13.333 4.66699 -20 14 -20c30 -4 61.667 -6 95 -6c24.667 0 48.667 1.33301 72 4s44.666 7.33398 63.999 14.001c5.33301 0 8 -3.66699 8 -11v-11c1.33301 -8.66699 2 -16.834 2 -24.501v-22.5v-17c0 -6 -0.166992 -11.5 -0.5 -16.5s-0.833008 -9.5 -1.5 -13.5
c-24 0 -61.333 1 -112 3s-89.334 3 -116.001 3l-180 -2c-1.33301 2 -2.33301 3.33301 -3 4c7.33301 47.333 12.166 96 14.499 146s3.5 107.333 3.5 172v21v19v16v14v13c0 12.667 -0.166992 25.334 -0.5 38.001s-0.5 25.667 -0.5 39v11c0 25.333 -2.33301 51.5 -7 78.5
l-12 68.5l4 4c27.333 0 72.5 -1.66699 135.5 -5s105.833 -5 128.5 -5c32.667 0 58.667 0.833008 78 2.5s36.833 4 52.5 7s25.834 5.16699 30.501 6.5c2.66699 0 4 -1.66699 4 -5s-1.33301 -9.66602 -4 -18.999z" />
    <glyph glyph-name="F" unicode="F" horiz-adv-x="508" 
d="M483 641l-18.001 -107.999c-3.33301 -2 -5.33301 -3.66699 -6 -5c-39.333 0 -87.833 0.5 -145.5 1.5s-87.167 1.5 -88.5 1.5l-9 -8c0 -11.333 -1.16699 -32.833 -3.5 -64.5s-3.5 -55.167 -3.5 -70.5c0 -14.667 1 -29 3 -43l8 -6h63c44 0 78.333 0.833008 103 2.5
s51 6.5 79 14.5c0.666992 -0.666992 2.66699 -1.33398 6 -2.00098c0 -20 -1.5 -40.667 -4.5 -62s-5.5 -38 -7.5 -50c-4 -1.33301 -8 -2.33301 -12 -3c-26 0 -59.667 0.833008 -101 2.5s-65 2.5 -71 2.5h-27c-8.66699 0 -18.667 -0.666992 -30 -2l-6 -8v-117.5
c0 -39 0.333008 -78.167 1 -117.5l-4 -4c-17.333 0 -43.666 0.333008 -78.999 1s-61.666 1 -78.999 1c0 3.33301 -1.33301 5.66602 -4 6.99902c6.66699 50.667 11.667 104 15 160s5.33301 117.667 6 185s1 132.333 1 195c-4 30.667 -10 62.334 -18 95.001l8 2
c27.333 0 69.666 -1 126.999 -3s100.333 -3 129 -3s55.5 0.666992 80.5 2s48.833 4 71.5 8c2 0 4.83301 2.16699 8.5 6.5s5.83398 6.5 6.50098 6.5c1.33301 0 2.16602 -1.16699 2.49902 -3.5s-0.166992 -6.83301 -1.5 -13.5z" />
    <glyph glyph-name="G" unicode="G" horiz-adv-x="831" 
d="M807 502c-3.33301 -2.66699 -4.99902 -4.66602 -4.99902 -5.99902c-37.333 -4 -69.166 -7.16699 -95.499 -9.5s-49.5 -3.5 -69.5 -3.5c-8.66699 16.667 -20.334 32.334 -35.001 47.001s-30.334 23.334 -47.001 26.001c-16.667 4.66699 -34.667 8.83398 -54 12.501
s-37.333 5.5 -54 5.5c-26.667 0 -50 -5 -70 -15c-38.667 -12 -75 -34.667 -109 -68s-55 -66.833 -63 -100.5s-12 -63.5 -12 -89.5c0 -42.667 8.83301 -82.334 26.5 -119.001s43.834 -67.667 78.501 -93l64 -32c24.667 -10.667 48 -16 70 -16h20c6.66699 2 19.834 5 39.501 9
s42.834 14.667 69.501 32s43.334 41.666 50.001 72.999c4 11.333 6.83301 23.666 8.5 36.999s2.5 28.333 2.5 45c0 7.33301 -0.333008 18.666 -1 33.999s-1 26.333 -1 33c10 1.33301 23.833 2 41.5 2s31.834 0.333008 42.501 1h64
c0.666992 -0.666992 1.66699 -1.16699 3 -1.5s2.66602 -0.833008 3.99902 -1.5c0 -21.333 -3.5 -53 -10.5 -95s-10.5 -71.667 -10.5 -89s1.5 -32.666 4.5 -45.999s6.83301 -24.333 11.5 -33l15 -28c5.33301 -10 8.66602 -17.333 9.99902 -22
c-3.33301 0 -5.5 -0.333008 -6.5 -1s-1.5 -1.33398 -1.5 -2.00098c-40.667 6.66699 -83.334 10 -128.001 10c-26 0 -68.333 -1.66699 -127 -5s-97.667 -5 -117 -5c-26 -4 -53 -6 -81 -6c-49.333 0 -97 8.83301 -143 26.5s-82.667 53.5 -110 107.5s-41 112.667 -41 176
c0 66 16.167 126.5 48.5 181.5s78.166 93.5 137.499 115.5c30 14 62 23.5 96 28.5s72 7.5 114 7.5c43.333 8.66699 87.666 13 132.999 13c44.667 0 83 -4.33301 115 -13s54.833 -21.167 68.5 -37.5l36 -44.5c10.333 -13.333 16.5 -27 18.5 -41z" />
    <glyph glyph-name="H" unicode="H" horiz-adv-x="730" 
d="M690 628c-10.667 -32.667 -18.1641 -66.833 -22.4971 -102.5s-6.5 -74.834 -6.5 -117.501c0 -33.333 -0.333008 -66.666 -1 -99.999l-2 -100c0 -32 0.666992 -61.5 2 -88.5s3.5 -49.333 6.5 -67s6.16699 -30.667 9.5 -39s5.66602 -14.833 6.99902 -19.5l-5 -2
c-18.667 0 -47.334 0.333008 -86.001 1s-67.334 1 -86.001 1c-6 3.33301 -7.66699 10.333 -5 21c6.66699 42 11.834 83 15.501 123s5.5 79.667 5.5 119c0 10 -4.33301 15 -13 15c-33.333 0 -83.333 0.333008 -150 1s-117 1 -151 1
c-1.33301 -2.66699 -2.83301 -4.66699 -4.5 -6s-2.83398 -2.33301 -3.50098 -3c0 -19.333 0.666992 -52.166 2 -98.499s2 -70.833 2 -73.5c0 -2 -1.83301 -4.66699 -5.5 -8s-4.5 -6.33301 -2.5 -9c4 -2.66699 7.33301 -4 10 -4c0 -8 1.33301 -20.333 4 -37
s4 -29.334 4 -38.001c-26.667 -0.666992 -56.334 -1 -89.001 -1h-74l-3 4c6.66699 48.667 11.5 100 14.5 154s4.5 110.333 4.5 169c0 24.667 -0.333008 62.167 -1 112.5s-1 88.166 -1 113.499c-3.33301 26.667 -6.33301 53.334 -9 80.001c10 0.666992 23.333 1 40 1h39h56
c15.333 0 29 -0.333008 41 -1c-17.333 -60 -26 -123 -26 -189c-1.33301 -9.33301 -2.16602 -16.666 -2.49902 -21.999s-0.5 -11.333 -0.5 -18c0 -8 0.833008 -14.5 2.5 -19.5s5.5 -7.5 11.5 -7.5c23.333 0 61.5 -0.666992 114.5 -2s81.167 -2 84.5 -2h12h54
c15.333 2 26.333 3.33301 33 4c4.66699 4 7 6.66699 7 8v31c0 57.333 -1.16699 100.166 -3.5 128.499s-8.83301 57.833 -19.5 88.5h186z" />
    <glyph glyph-name="I" unicode="I" horiz-adv-x="275" 
d="M223 1l-5 -4.99902h-167c-2.66699 0 -4 1.66699 -4 5c14.667 109.333 22 226.666 22 351.999c0 30.667 -2.33301 76 -7 136s-7 103.333 -7 130c0 3.33301 0.833008 5.33301 2.5 6s2.5 1.66699 2.5 3h158l5 -4c-6 -47.333 -10.333 -95.833 -13 -145.5
s-4 -101.167 -4 -154.5c0 -107.333 5.66699 -215 17 -323z" />
    <glyph glyph-name="J" unicode="J" horiz-adv-x="405" 
d="M353 628c0 -0.666992 -1.83398 -12.832 -5.50098 -36.499s-5.5 -39.5 -5.5 -47.5c0 -56 -2 -137.833 -6 -245.5s-6 -170.5 -6 -188.5c-10 -53.333 -39.5 -98.166 -88.5 -134.499s-102.5 -59.5 -160.5 -69.5l-40 -3.5c-11.333 -1 -20.333 -1.5 -27 -1.5
c-16.667 0 -30.334 1.66699 -41.001 5c2.66699 18 5.5 31.833 8.5 41.5s8.83301 25.5 17.5 47.5c6 0 15.333 -4 28 -12s22.334 -12 29.001 -12c4.66699 0 9.33398 1.33301 14.001 4c51.333 43.333 84.333 97.666 99 162.999s22 145.666 22 240.999v75
c0 20.667 -2.83301 52 -8.5 94s-8.5 70 -8.5 84c14 2 31.333 3 52 3c27.333 0 51 -0.666992 71 -2s38.667 -3 56 -5z" />
    <glyph glyph-name="K" unicode="K" horiz-adv-x="648" 
d="M645 623l-306 -277.997c-4 -4.66699 -2.33301 -13 5 -25l93 -106.5l93 -101.5l112 -118c-12.667 0 -32 -0.333008 -58 -1s-46 -1 -60 -1c-26 0 -49.333 1.33301 -70 4l-87.5 100.5l-74.5 83c-22 23.667 -48.333 49.834 -79 78.501
c-2 -0.666992 -3.83301 -1.33398 -5.5 -2.00098s-2.5 -2 -2.5 -4c0 -26 2.5 -69.333 7.5 -130s7.5 -102.667 7.5 -126c-1.33301 -0.666992 -2.33301 -1.33398 -3 -2.00098s-1 -1.33398 -1 -2.00098c-17.333 0 -43 -0.666992 -77 -2s-58.667 -2 -74 -2l-5 9
c0 50.667 1.16699 120.667 3.5 210s3.5 146.666 3.5 171.999c0 54.667 -0.833008 98.334 -2.5 131.001s-5.16699 71.667 -10.5 117l3 1h159l4 -3c-11.333 -78.667 -17 -162.667 -17 -252c2 -6 6.33301 -6.66699 13 -2c46.667 39.333 98.667 86.166 156 140.499l122 115.5
h151v-4z" />
    <glyph glyph-name="L" unicode="L" horiz-adv-x="498" 
d="M479 95l-39.001 -90.998c-4.66699 -4.66699 -7.33398 -7 -8.00098 -7c-56 0 -128.667 0.833008 -218 2.5s-140 2.5 -152 2.5l-3 4c3.33301 30 5.66602 62.167 6.99902 96.5s2 68.5 2 102.5c0 55.333 -1 124.666 -3 207.999s-3 125.333 -3 126
c-1.33301 10.667 -3.16602 22.334 -5.49902 35.001s-5.83301 29.667 -10.5 51l4 1h47c16.667 0 34.334 0.333008 53.001 1c27.333 0 46 -0.333008 56 -1c8 -2.66699 16 -5 24 -7c-8 -36.667 -13.833 -77.834 -17.5 -123.501s-5.5 -90.167 -5.5 -133.5
c0 -28.667 0.666992 -76.167 2 -142.5s2 -101.5 2 -105.5c2 -9.33301 4.66699 -17 8 -23s8.33301 -10.333 15 -13c41.333 0 79.833 2.33301 115.5 7s78.834 11.667 129.501 21c2.66699 -4.66699 2.66699 -8.33398 0 -11.001z" />
    <glyph glyph-name="M" unicode="M" horiz-adv-x="930" 
d="M900 -6l-174.005 -0.00488281l-30 1c13.333 26.667 23 56.334 29 89.001s9 68 9 106c0 23.333 -1.33301 58.666 -4 105.999s-4 82 -4 104c-0.666992 2 -1.16699 4 -1.5 6s-1.5 3.33301 -3.5 4l-13 -10l-75 -151l-81 -169c-2 -6 -3 -12 -3 -18
c0 -9.33301 3 -21.166 9 -35.499s9.33301 -23.833 10 -28.5l-4 -3c-27.333 0 -54.166 0.333008 -80.499 1l-78.5 2c-10.667 16.667 -23.334 40.667 -38.001 72l-54.5 114.5l-58.5 118.5c-17.333 34 -37 69.333 -59 106c-2 0.666992 -4 0.166992 -6 -1.5
s-3.66699 -3.16699 -5 -4.5c0 -40 -0.333008 -99 -1 -177s-1 -137.333 -1 -178c0 -4.66699 1.33301 -12 4 -22s4 -18 4 -24h-149c8.66699 34.667 14.834 71.834 18.501 111.501s5.5 81.834 5.5 126.501c0 23.333 0.666992 62.833 2 118.5s2 85.5 2 89.5v16
c0 36 -2 71.667 -6 107c-2 8.66699 -6.66699 20.5 -14 35.5l-13 26.5c0.666992 2.66699 1 4.66699 1 6c24 -2 54.333 -3 91 -3h88c14 0 21.667 -0.333008 23 -1c2.66699 -4.66699 13.834 -27.5 33.501 -68.5l55 -114l62 -123l81.5 -151.5
c2.66699 -2 4.83398 -3.5 6.50098 -4.5s3.16699 -0.5 4.5 1.5l67.5 132l76 157l77.5 163c2 2.66699 3.66699 4.66699 5 6c32 0 63.667 -0.333008 95 -1l95 -2c-2 -10.667 -6 -24.5 -12 -41.5s-10.167 -36.167 -12.5 -57.5s-4.16602 -52.166 -5.49902 -92.499
s-2 -83.166 -2 -128.499v-97.5c0 -32.333 0.333008 -64.833 1 -97.5c0 -20.667 2.83301 -40.5 8.5 -59.5s13.834 -39.5 24.501 -61.5z" />
    <glyph glyph-name="N" unicode="N" horiz-adv-x="775" 
d="M759 -4l-208.001 1.00195l-358 430v-332c0 -6 0.166992 -12.167 0.5 -18.5s2.83301 -16.5 7.5 -30.5l10 -50h-181c9.33301 13.333 16.333 25.166 21 35.499s8.83398 22 12.501 35s5.83398 24.5 6.50098 34.5s1 24 1 42v324v13c0 20.667 -0.5 35 -1.5 43s-4 19.333 -9 34
s-9 24.5 -12 29.5s-14.5 19.833 -34.5 44.5h159c2 0.666992 4.16699 1 6.5 1h4.5c10 0 18.667 -2.16699 26 -6.5s13 -9.5 17 -15.5s8 -11.667 12 -17l343 -421v314c0 17.333 -0.666992 31.666 -2 42.999l-4 33.5c-1.33301 11 -3 21.667 -5 32s-4.66699 22.5 -8 36.5h194
c-16 -14 -27.5 -29.5 -34.5 -46.5s-11.5 -32 -13.5 -45s-3 -26.167 -3 -39.5v-357c0 -14.667 0.166992 -28.5 0.5 -41.5s3.16602 -27.5 8.49902 -43.5c9.33301 -24 24 -44.667 44 -62z" />
    <glyph glyph-name="O" unicode="O" horiz-adv-x="865" 
d="M789 499c12 -22 20.999 -46.5049 26.999 -73.5049s9 -53.833 9 -80.5c0 -37.333 -5.33301 -73.666 -16 -108.999s-30.334 -72.666 -59.001 -111.999s-71.167 -70.833 -127.5 -94.5s-118.5 -35.5 -186.5 -35.5c-38 -8.66699 -75 -13 -111 -13
c-42 0 -80.833 6.33301 -116.5 19s-66.167 33.334 -91.5 62.001s-45.166 62.334 -59.499 101.001s-21.5 78.667 -21.5 120c0 40 7.83301 82.5 23.5 127.5s48.834 88.167 99.501 129.5s105 66.333 163 75c40 4 69.167 7.33301 87.5 10s35 6.33398 50 11.001
s28.667 7.66699 41 9s24.5 2 36.5 2c53.333 0 102.833 -13.5 148.5 -40.5s80.167 -62.833 103.5 -107.5zM633.999 453.995c-22 37.333 -45.333 63.499 -70 78.499s-49.834 25.667 -75.501 32s-45.834 9.5 -60.501 9.5c-25.333 0 -49.166 -5.66699 -71.499 -17
s-47.166 -28 -74.499 -50c-28.667 -28.667 -51 -61.667 -67 -99s-24 -76 -24 -116c0 -34 7.83301 -70.167 23.5 -108.5s43.5 -70.333 83.5 -96s84 -38.5 132 -38.5c81.333 11.333 141.333 44.833 180 100.5s58 113.834 58 174.501c0 50 -11.333 93.333 -34 130z" />
    <glyph glyph-name="P" unicode="P" horiz-adv-x="625" 
d="M558 572c14.667 -29.333 22 -61.998 22 -97.998c0 -50.667 -14 -93.834 -42 -129.501s-61.833 -61.834 -101.5 -78.501s-82.167 -25 -127.5 -25c-14 0 -29.167 1 -45.5 3s-31.833 4.66699 -46.5 8c-8.66699 0 -13 -3 -13 -9c0 -31.333 0.833008 -60.333 2.5 -87
s6.83398 -78 15.501 -154l-5 -2c-25.333 0 -58 -0.5 -98 -1.5s-60.667 -1.5 -62 -1.5c-2 2.66699 -2.66699 4.33398 -2 5.00098c6 37.333 10.167 75.166 12.5 113.499s3.5 80.833 3.5 127.5c0 34.667 -0.333008 69.5 -1 104.5l-2 105.5c0 64 -11 123 -33 177l4 4h46
c90.667 0 155.167 1.16699 193.5 3.5s80.166 6.83301 125.499 13.5c47.333 0 81.5 -6.83301 102.5 -20.5s38.167 -33.167 51.5 -58.5zM412 547.002c-8.66699 17.333 -19.3291 30.167 -31.9961 38.5s-26.334 12.5 -41.001 12.5c-8.66699 0 -16.834 -1 -24.501 -3
s-22.834 -8.33301 -45.501 -19s-39.334 -33 -50.001 -67s-16 -77.333 -16 -130v-30c0 -10 0.333008 -20 1 -30c0 -8 3 -12.667 9 -14s11 -2 15 -2h12c54 0 98.667 18.667 134 56s53 78.333 53 123c0 22 -5 43.667 -15 65z" />
    <glyph glyph-name="Q" unicode="Q" horiz-adv-x="880" 
d="M961 -99c0.666992 -3.33301 0.999023 -7.99902 0.999023 -13.999c0 -5.33301 -1 -12.333 -3 -21s-4 -18.334 -6 -29.001l-2 -5c-35.333 0 -88.666 0.333008 -159.999 1s-124.333 1 -159 1c-39.333 0 -74.5 13.667 -105.5 41s-57.167 61.666 -78.5 102.999
c-23.333 -2.66699 -43.5 -4.66699 -60.5 -6s-33.167 -2 -48.5 -2h-15h-12c-5.33301 1.33301 -9.33301 2 -12 2c-47.333 0 -92 16.167 -134 48.5s-73 71.5 -93 117.5s-30 94.667 -30 146c0 34.667 4.5 67.834 13.5 99.501s22.833 59.834 41.5 84.501
c32 46.667 72.167 82.5 120.5 107.5s101.833 40.167 160.5 45.5c29.333 5.33301 56.5 9.5 81.5 12.5s50.167 4.5 75.5 4.5c30.667 0 56.834 -2.16699 78.501 -6.5s43.834 -12.5 66.501 -24.5c34 -14.667 57.167 -26.5 69.5 -35.5s30.666 -34.5 54.999 -76.5
s36.5 -91.333 36.5 -148c0 -69.333 -13.167 -124.5 -39.5 -165.5s-54 -73.5 -83 -97.5s-60.833 -44.667 -95.5 -62c-2.66699 -0.666992 -4.66699 -1.5 -6 -2.5s-1.33301 -2.5 0 -4.5c51.333 -40 84.666 -65.5 99.999 -76.5s36.333 -21.833 63 -32.5
c13.333 -6.66699 27.166 -11.334 41.499 -14.001s29.5 -4 45.5 -4c14 0 28.833 1.16699 44.5 3.5s31.834 5.5 48.501 9.5zM658.999 451.001c-20.667 36.667 -47.333 64.665 -80 83.998s-69 31.333 -109 36c-5.33301 1.33301 -11.5 2.33301 -18.5 3s-13.5 1 -19.5 1
c-26.667 0 -52 -6.5 -76 -19.5s-51 -31.5 -81 -55.5c-25.333 -27.333 -45.166 -58.166 -59.499 -92.499s-21.5 -69.166 -21.5 -104.499c0 -26.667 6.16699 -57.5 18.5 -92.5s39.166 -68.167 80.499 -99.5s86.666 -52.333 135.999 -63c46.667 5.33301 89.834 20 129.501 44
s71.5 56.5 95.5 97.5s36 87.167 36 138.5c0 46.667 -10.333 87.667 -31 123z" />
    <glyph glyph-name="R" unicode="R" horiz-adv-x="710" 
d="M695 13c-12 -4.66699 -26.6699 -8.16504 -44.0029 -10.498s-42.666 -3.5 -75.999 -3.5h-50c-40 5.33301 -72.5 32.833 -97.5 82.5s-43.833 81.167 -56.5 94.5c-14.667 27.333 -33.5 50.333 -56.5 69s-48.5 28 -76.5 28c-6 0 -11.167 -0.5 -15.5 -1.5
s-7.83301 -2.83301 -10.5 -5.5s-4 -8.33398 -4 -17.001c0 -14 -0.333008 -22.333 -1 -25c0 -36.667 1.33301 -73.834 4 -111.501s7 -74.834 13 -111.501l-4 -4h-169l-5 4c8.66699 35.333 14.834 73.333 18.501 114s5.5 84 5.5 130c0 26 -0.666992 69.5 -2 130.5
s-2 93.5 -2 97.5c0 34.667 -2 63.834 -6 87.501s-13.333 45.5 -28 65.5v7c29.333 0 59 -0.333008 89 -1l91 -2c40.667 0 72.5 0.833008 95.5 2.5s50.167 5.5 81.5 11.5c22 0 48 -3.33301 78 -10s47.667 -12 53 -16s10.5 -9 15.5 -15s9.5 -10.333 13.5 -13
c9.33301 -12 16.5 -26 21.5 -42s7.5 -33.667 7.5 -53c0 -24.667 -4.33301 -46 -13 -64c-9.33301 -23.333 -24.833 -45.5 -46.5 -66.5s-46.167 -40.167 -73.5 -57.5c0.666992 -4.66699 6.83398 -12.334 18.501 -23.001s36.667 -46 75 -106s62.833 -95.667 73.5 -107
c6.66699 -5.33301 16.5 -12.166 29.5 -20.499s30.833 -18.833 53.5 -31.5v-6zM408.997 530.002c-8 15.333 -20.667 27.667 -38 37s-36 14 -56 14s-39.167 -6.16699 -57.5 -18.5s-31.5 -29.833 -39.5 -52.5s-12 -48.334 -12 -77.001c0 -10.667 0.666992 -29.167 2 -55.5
s2 -40.166 2 -41.499l2 -8c13.333 -2 25.666 -3 36.999 -3c28.667 0 55.334 5.5 80.001 16.5s46 27.833 64 50.5c18 28 27 57.667 27 89c0 16.667 -3.66699 33 -11 49z" />
    <glyph glyph-name="S" unicode="S" horiz-adv-x="660" 
d="M613 485l-4.99805 -3.99707c-18.667 2.66699 -32.5 4.16699 -41.5 4.5s-15.833 0.5 -20.5 0.5c-36 0 -71.667 -5.33301 -107 -16c-1.33301 1.33301 -2.16602 3.33301 -2.49902 6s-0.5 5 -0.5 7v20c0 6.66699 0.333008 13.334 1 20.001c0 12 -1.5 21.667 -4.5 29
s-8.5 13.5 -16.5 18.5s-16.667 8.5 -26 10.5s-18 3 -26 3c-18.667 0 -38.167 -3.66699 -58.5 -11s-38.833 -16.666 -55.5 -27.999c-14 -12 -25 -25 -33 -39s-12 -29.333 -12 -46c0 -6.66699 0.333008 -11.667 1 -15c0 -7.33301 2.66699 -14.333 8 -21s12.333 -13 21 -19
c14.667 -7.33301 30.334 -12.333 47.001 -15s34 -4 52 -4c20.667 0 52.167 2 94.5 6s66.5 6 72.5 6c23.333 -4 44.5 -13.333 63.5 -28s33.5 -33 43.5 -55c9.33301 -28 14 -55.333 14 -82c0 -76 -20.833 -131.333 -62.5 -166s-77.834 -56.667 -108.501 -66
s-64.667 -14 -102 -14c-23.333 0 -49.333 1.66699 -78 5c-10.667 0 -28.834 -0.666992 -54.501 -2s-39.834 -2 -42.501 -2c-31.333 0 -57.833 4.16699 -79.5 12.5s-37.334 23.333 -47.001 45s-14.5 42.5 -14.5 62.5c0 30.667 8.33301 57.334 25 80.001l97.5 10
c26.333 2.66699 49.833 6.66699 70.5 12c-1.33301 -9.33301 -5 -21.333 -11 -36s-9.83301 -25.334 -11.5 -32.001s-2.5 -13.334 -2.5 -20.001c0 -22 9.16699 -40.333 27.5 -55s40.5 -22 66.5 -22c4 0 16.5 2.16699 37.5 6.5s45 20 72 47s42.333 51.167 46 72.5
s5.5 37 5.5 47c0 13.333 -2.5 25.5 -7.5 36.5s-12.167 18.833 -21.5 23.5s-17.166 7.33398 -23.499 8.00098s-14.166 1 -23.499 1c-12 0 -21 0.666992 -27 2c-10 0 -25.833 -0.333008 -47.5 -1s-38.167 -1 -49.5 -1c-48 0 -87.833 5.16699 -119.5 15.5
s-57.834 32.166 -78.501 65.499c-10 19.333 -15 41.666 -15 66.999c0 24.667 4.83301 49.167 14.5 73.5s24.5 48.666 44.5 72.999s45.667 41.666 77 51.999s65.666 15.5 102.999 15.5c12 0 25 -0.666992 39 -2s25.167 -2.5 33.5 -3.5s15.166 -1.66699 20.499 -2
s10 -0.5 14 -0.5c14.667 0 29.334 0.333008 44.001 1l44 2c25.333 0 47 -2.83301 65 -8.5s33.333 -16.5 46 -32.5c9.33301 -14 16.5 -28.5 21.5 -43.5s7.5 -30.167 7.5 -45.5c0 -4.66699 -0.5 -9.83398 -1.5 -15.501s-1.83301 -10.167 -2.5 -13.5z" />
    <glyph glyph-name="T" unicode="T" horiz-adv-x="677" 
d="M643 631c-1.33301 -19.333 -2.49707 -35.333 -3.49707 -48s-3.16699 -25.667 -6.5 -39l-5 -4h-49.5c-16.333 0 -32.833 0.333008 -49.5 1c-16 0 -32.333 -0.333008 -49 -1s-29.334 -1.66699 -38.001 -3s-13.5 -2.83301 -14.5 -4.5s-4.16699 -25.5 -9.5 -71.5
s-8 -117 -8 -213c0 -86.667 5 -170.667 15 -252h-171l-2 5c0 34 1.16699 86.667 3.5 158s3.5 120.666 3.5 147.999c0 46 -1.16699 85.333 -3.5 118s-6.83301 68.334 -13.5 107.001c-2.66699 4 -5.33398 6.66699 -8.00098 8c-43.333 0 -81.833 -1.5 -115.5 -4.5
s-65.834 -9.16699 -96.501 -18.5c-2 4.66699 -2 9.66699 0 15l33 108c35.333 0 90 -1 164 -3s129.667 -3 167 -3c70.667 0 137 3.33301 199 10c5.33301 -1.33301 11.833 -1.5 19.5 -0.5s15.167 2.16699 22.5 3.5c12 0 17.333 -5.33301 16 -16z" />
    <glyph glyph-name="U" unicode="U" horiz-adv-x="740" 
d="M700 4l-164 -10.002c-2 3.33301 -3 9.33301 -3 18v15c0 9.33301 -1.66699 16.666 -5 21.999c-9.33301 0 -24 -3 -44 -9s-32.667 -9.33301 -38 -10s-37.5 -9.16699 -96.5 -25.5s-105.5 -24.5 -139.5 -24.5c-44.667 0 -81 14.333 -109 43
c-8 9.33301 -14.5 21.166 -19.5 35.499s-8.5 29.5 -10.5 45.5c0 63.333 -0.5 117.333 -1.5 162s-2 98.834 -3 162.501s-1.5 107.167 -1.5 130.5c-3.33301 7.33301 -7.33301 18.5 -12 33.5s-8.66699 27.167 -12 36.5l4 2c30.667 0 61.334 0.333008 92.001 1l91 2l3 -5
c-6.66699 -33.333 -11.5 -71.833 -14.5 -115.5s-4.5 -88.167 -4.5 -133.5c0 -21.333 0.333008 -53.666 1 -96.999s1 -75.666 1 -96.999c4 -28 11.5 -52.5 22.5 -73.5s28.167 -34.833 51.5 -41.5c13.333 -2.66699 28.333 -4 45 -4c55.333 0 98.166 17.667 128.499 53
s50.5 74.666 60.5 117.999s15 94 15 152c0 20.667 -0.666992 54.5 -2 101.5s-2 70.833 -2 71.5c0 8.66699 -1.5 21.334 -4.5 38.001s-4.5 26.334 -4.5 29.001c27.333 0 55 0.333008 83 1l85 2l3 -11c-8 -33.333 -13.667 -70 -17 -110s-5 -79.667 -5 -119
c0 -35.333 1.83301 -93.833 5.5 -175.5s5.5 -134.167 5.5 -157.5z" />
    <glyph glyph-name="V" unicode="V" horiz-adv-x="668" 
d="M659 631l-51.001 -106.5l-61 -130l-66.5 -140.5c-19.667 -41.333 -36.167 -89 -49.5 -143c-6 -14 -10.333 -25.667 -13 -35s-4 -19.666 -4 -30.999s2.16699 -21 6.5 -29s11.5 -16.667 21.5 -26h-207c0 7.33301 -0.5 14.833 -1.5 22.5s-2.33301 16.834 -4 27.501
s-3 19.667 -4 27s-2.83301 15.333 -5.5 24l-147 429c-3.33301 12 -7 21.667 -11 29s-10.333 17.666 -19 30.999c-6.66699 12 -12.667 21.167 -18 27.5s-12.666 14.166 -21.999 23.499h191l139 -439l139 358c4.66699 14.667 8 29 10 43l5 38h172z" />
    <glyph glyph-name="W" unicode="W" horiz-adv-x="1194" 
d="M1194 628c-7.33301 -10.667 -21.832 -34.1729 -43.499 -70.5059s-39.834 -71.833 -54.501 -106.5l-52.5 -126l-48 -119c-11.667 -30 -26.5 -71 -44.5 -123c-2.66699 -5.33301 -4 -11.666 -4 -18.999c0 -8.66699 3.16699 -20.334 9.5 -35.001s9.83301 -23 10.5 -25
c-30 0 -68.833 -0.833008 -116.5 -2.5s-77.834 -2.5 -90.501 -2.5c-4 6.66699 -9 20.334 -15 41.001s-15.167 47 -27.5 79l-57 147c-25.667 66 -52.5 126.667 -80.5 182c-1.33301 4.66699 -4.16602 5.66699 -8.49902 3s-6.5 -5 -6.5 -7l-66.5 -143l-37 -83.5l-38.5 -91
c-12 -29 -19.167 -52.5 -21.5 -70.5l-6.5 -52l-5 -5h-161c-2.66699 7.33301 -5.5 19.5 -8.5 36.5l-9.5 54.5c-18 64 -39 131.167 -63 201.5s-44.333 127.833 -61 172.5s-31 78.334 -43 101.001l-37 63c10.667 1.33301 22.5 2.33301 35.5 3s32.833 1 59.5 1h23
c26 0 50 1.33301 72 4c4 -1.33301 6.33301 -5.66602 7 -12.999s2.33398 -12.666 5.00098 -15.999c27.333 -123.333 66.666 -255.333 117.999 -396c3.33301 -6 7 -6 11 0c10 21.333 36.5 81 79.5 179l73 165.5c5.66699 12.333 9.16699 26.833 10.5 43.5
s3.33301 28.334 6 35.001h172c5.33301 -2.66699 8.5 -9 9.5 -19s5 -27 12 -51s18.833 -59.667 35.5 -107s33.667 -91.666 51 -132.999l65 -149c4 0 6.83301 1.5 8.5 4.5s3.5 5.83301 5.5 8.5l169 443c2.66699 2 7 3 13 3h43c15.333 0 31.333 0.333008 48 1
c27.333 0 43 -0.333008 47 -1z" />
    <glyph glyph-name="X" unicode="X" horiz-adv-x="680" 
d="M671 628c0 -2.66699 -0.99707 -5 -2.99707 -7s-24.333 -28.5 -67 -79.5s-103.334 -128.167 -182.001 -231.5c2 -6 3 -10.333 3 -13c26.667 -45.333 57.334 -93.333 92.001 -144l112 -156h-148c-2 0.666992 -5.66699 1 -11 1c-12.667 -1.33301 -22 -2 -28 -2
c-7.33301 0 -13.5 1 -18.5 3s-7.5 8.33301 -7.5 19l-58 123c-5.33301 4 -10.333 11.333 -15 22s-10 17.667 -16 21l-9 -4l-79.5 -104.5c-22.333 -29 -45.166 -55.5 -68.499 -79.5l-172 1c-2 1.33301 -2 3.66602 0 6.99902l107 105.5
c21.333 21.667 47.166 49.334 77.499 83.001s58.5 67.5 84.5 101.5c-22.667 38.667 -45 74.167 -67 106.5s-47.5 67.833 -76.5 106.5l-94.5 121l8 2c32 0 64.333 0.333008 97 1l98 2c13.333 -20 33.666 -55 60.999 -105s48.333 -86.667 63 -110c4 0 13.667 10.667 29 32
l56.5 81.5c22.333 33 42.833 65.833 61.5 98.5c10 1.33301 21 2 33 2h28c13.333 0 26.666 -0.166992 39.999 -0.5s26.666 -0.5 39.999 -0.5c6.66699 1.33301 12.667 2 18 2c8 0 12 -1.66699 12 -5z" />
    <glyph glyph-name="Y" unicode="Y" horiz-adv-x="623" 
d="M617 632c0 -1.33301 0.329102 -2.66797 0.996094 -4.00098c-2.66699 -6 -11 -19 -25 -39s-34.167 -53.167 -60.5 -99.5s-47.666 -86 -63.999 -119s-40.833 -85.5 -73.5 -157.5c-5.33301 -9.33301 -9 -19.666 -11 -30.999s-3 -24 -3 -38c0 -10 0.666992 -24 2 -42
s2 -31 2 -39c2.66699 -6.66699 4.5 -18.167 5.5 -34.5s1.5 -24.833 1.5 -25.5c-25.333 -2 -50.666 -3 -75.999 -3h-11h-34.5c-11.667 -0 -23.167 0.333008 -34.5 1h-9l-4 4c0 13.333 0.666992 33 2 59s2 45.667 2 59c0 20 -0.833008 36.167 -2.5 48.5
s-5.16699 26.833 -10.5 43.5c-26 65.333 -55.833 130.666 -89.5 195.999s-70.5 130.333 -110.5 195c0 3.33301 -2.66699 7.5 -8 12.5s-6.66602 9.5 -3.99902 13.5h97.5h68.5l142 -304c5.33301 -3.33301 8.33301 -5 9 -5c4.66699 6.66699 21.834 36.834 51.501 90.501
s65.5 126.5 107.5 218.5h139z" />
    <glyph glyph-name="Z" unicode="Z" horiz-adv-x="687" 
d="M668 633l-120.001 -160.501c-64.667 -85.667 -113.667 -153.167 -147 -202.5s-65 -103.666 -95 -162.999c-2 -8 1.66699 -12 11 -12c36.667 0 96.667 3.33301 180 10s139.333 10 168 10c1.33301 -4.66699 1.33301 -7.33398 0 -8.00098l-57 -111l-10 -4
c-64 0 -128 0.166992 -192 0.5l-192 1c-64 0.333008 -127.667 0.5 -191 0.5c-2 0 -3.66699 0.666992 -5 2l150 195.5l117.5 162.5c35 50.667 71.5 108.667 109.5 174c0 8 -1.66699 12.667 -5 14c-31.333 0 -85.833 -3.66699 -163.5 -11s-133.167 -11 -166.5 -11
c-2 3.33301 -2 6 0 8l70 103c28 0 69.667 -1 125 -3s97.333 -3 126 -3s77.334 2.5 146.001 7.5s115.667 7.5 141 7.5c1.33301 -1.33301 1.33301 -3.66602 0 -6.99902z" />
    <glyph glyph-name="bracketleft" unicode="[" horiz-adv-x="344" 
d="M320 716c-4 -10 -9 -26.3291 -15 -48.9961s-9.66699 -36 -11 -40l-10 -4h-26.5c-6.33301 0 -10.166 0.666992 -11.499 2c-0.666992 0.666992 -3 1.16699 -7 1.5s-14.333 0.5 -31 0.5c-6 -4.66699 -9.66699 -8.66699 -11 -12
c-1.33301 -8.66699 -2.33301 -40.334 -3 -95.001s-1 -119 -1 -193c0 -67.333 0.166992 -135 0.5 -203s0.833008 -136.333 1.5 -205c0 -13.333 4.66699 -20 14 -20l26 -3.5c7.33301 -1 13 -1.83301 17 -2.5c4 2 9.66699 4.66699 17 8s16.333 6.66602 27 9.99902
c5.33301 0 8 -3.66699 8 -11v-11c1.33301 -8.66699 2 -16.667 2 -24v-23v-17c0 -6 -0.166992 -11.5 -0.5 -16.5s-0.833008 -9.5 -1.5 -13.5c-24 0 -37.333 1 -40 3s-17.334 3 -44.001 3l-162 -2c-1.33301 2 -2.33301 3.33301 -3 4c5.33301 34 9.16602 78.167 11.499 132.5
s4 113.166 5 176.499s1.5 137 1.5 221v37v32v27v23v19v16v14v11c0 15.333 -0.166992 29 -0.5 41s-0.5 22 -0.5 30c0 25.333 -2.33301 51.5 -7 78.5l-12 68.5l4 4c28 0 53.667 -1.16699 77 -3.5s47.666 -4.5 72.999 -6.5c16 0 29.333 0.666992 40 2
s24.334 3.66602 41.001 6.99902s27.334 5.66602 32.001 6.99902c2.66699 0 4 -1.66699 4 -5s-1.33301 -9.66602 -4 -18.999z" />
    <glyph glyph-name="backslash" unicode="\" horiz-adv-x="520" 
d="M485 -4c-16.667 0 -38.1699 1 -64.5029 3s-66.833 58.167 -121.5 168.5s-144.667 268.833 -270 475.5c0.666992 0.666992 1.83398 1.33398 3.50098 2.00098s3.83398 1 6.50098 1c17.333 0 43.5 -2.66699 78.5 -8s53.5 -9.33301 55.5 -12
c2 -6.66699 30.5 -62.834 85.5 -168.501l136 -266.5c35.667 -72 65.834 -137 90.501 -195z" />
    <glyph glyph-name="bracketright" unicode="]" horiz-adv-x="344" 
d="M289 730l-12.499 -76.998c-4.33301 -26.667 -6.5 -50 -6.5 -70l-1 -278c0 -85.333 0.5 -157.666 1.5 -216.999s2.66699 -112.833 5 -160.5s6.16602 -89.167 11.499 -124.5l-2 -2c-0.666992 -0.666992 -1 -1.33398 -1 -2.00098l-162 2c-26.667 0 -41.334 -1 -44.001 -3
s-16 -3 -40 -3c-0.666992 8 -1.16699 16.667 -1.5 26s-0.5 16.333 -0.5 21s0.333008 12.167 1 22.5s1 18.5 1 24.5v11c0 7.33301 2.66699 11 8 11c14 -4.66699 24.833 -8.83398 32.5 -12.501s11.834 -5.5 12.501 -5.5l42 6c9.33301 0 14 6.66699 14 20
c0 36.667 0.333008 115.334 1 236.001s1 197.667 1 231v42v35v29v23v19v15v12c0 28.667 -1 45.667 -3 51s-6 10.333 -12 15h-26.5c-6.33301 0 -10.166 -0.666992 -11.499 -2c-2 -0.666992 -6.33301 -1.16699 -13 -1.5s-15 -0.5 -25 -0.5c-4 2.66699 -7.33301 4 -10 4
c-4.66699 19.333 -8.83398 35.833 -12.501 49.5s-7.5 25.667 -11.5 36s-6 17.833 -6 22.5c0 3.33301 2 4.66602 6 3.99902s7.66699 -1.33398 11 -2.00098c12 -2.66699 28.333 -5.5 49 -8.5s37.667 -4.5 51 -4.5c7.33301 0 28.833 1.66699 64.5 5s64.167 5 85.5 5z" />
    <glyph glyph-name="asciicircum" unicode="^" horiz-adv-x="472" 
d="M449 352c-11.333 -1.33301 -25.999 -6.16797 -43.999 -14.501s-31 -16.166 -39 -23.499l-6 -2c-34 61.333 -73 116.333 -117 165c-1.33301 2 -9.16602 -5.5 -23.499 -22.5s-31.333 -38.667 -51 -65s-38.834 -55.5 -57.501 -87.5
c-2 -0.666992 -3.66699 -1.33398 -5 -2.00098c-8.66699 8.66699 -15.834 14.667 -21.501 18s-12.667 6.83301 -21 10.5s-16.333 6.83398 -24 9.50098s-13.5 5.33398 -17.5 8.00098c37.333 43.333 69.833 83.166 97.5 119.499l119.5 157.5h9l47 -64.5l73.5 -99l80.5 -103.5
c0.666992 -2 0.666992 -3.33301 0 -4z" />
    <glyph glyph-name="underscore" unicode="_" horiz-adv-x="274" 
d="M274 -199h-281v56h281v-56z" />
    <glyph glyph-name="grave" unicode="`" horiz-adv-x="275" 
d="M299 718l-64.001 -29c-19.333 14.667 -44.666 29.334 -75.999 44.001s-65.666 29.334 -102.999 44.001c-0.666992 2.66699 -1 6.66699 -1 12c0 7.33301 2.66699 13.666 8 18.999s13.666 11.166 24.999 17.499s26.333 12.5 45 18.5c41.333 -22.667 77 -45 107 -67
s49.667 -39.667 59 -53c1.33301 -2.66699 1.33301 -4.66699 0 -6z" />
    <glyph glyph-name="a" unicode="a" horiz-adv-x="635" 
d="M609 425c-14 -47.333 -24.501 -93.001 -31.501 -137.001s-10.5 -86.667 -10.5 -128c0 -45.333 4.33301 -97.666 13 -156.999c-1.33301 -4.66699 -3 -7 -5 -7l-145 3c-0.666992 0.666992 -2.33398 3.83398 -5.00098 9.50098s-6 8.5 -10 8.5
c-18 -6.66699 -37 -10.834 -57 -12.501s-45 -2.5 -75 -2.5c-25.333 -6.66699 -49.666 -10 -72.999 -10c-29.333 0 -56.166 5 -80.499 15s-43.666 25.333 -57.999 46s-24.833 42.667 -31.5 66s-10 47.333 -10 72c0 35.333 7.33301 68.666 22 99.999
c16 40.667 43.667 73.834 83 99.501s82 40.5 128 44.5c5.33301 -0.666992 10.333 -1 15 -1h15c12 0 30.667 1 56 3s44.333 3 57 3c14.667 0 28.667 -1 42 -3s25.166 -5.33301 35.499 -10s21.5 -7 33.5 -7c11.333 0 24.833 2.16699 40.5 6.5l44.5 12.5c6 0 9 -1.33301 9 -4z
M445.999 292.999c-3.33301 18 -19.1689 35.999 -47.502 53.999s-55.833 27 -82.5 27c-22.667 -8.66699 -44.167 -21.5 -64.5 -38.5s-37.166 -38 -50.499 -63s-20 -53.167 -20 -84.5c0 -30 7.66699 -55.667 23 -77c8 -14 18.167 -25.333 30.5 -34s25.5 -13 39.5 -13
c6.66699 0 17.834 2.66699 33.501 8s36 19.833 61 43.5s42.167 46.334 51.5 68.001s16.333 39.167 21 52.5s7 26 7 38c0 8.66699 -0.666992 15 -2 19z" />
    <glyph glyph-name="b" unicode="b" horiz-adv-x="599" 
d="M569 254c0 -2 -0.833984 -5.66797 -2.50098 -11.001s-1.5 -9 0.5 -11c0 -39.333 -12 -76.666 -36 -111.999s-56.833 -65.5 -98.5 -90.5s-94.5 -37.5 -158.5 -37.5c-36 0 -65 1.33301 -87 4s-42.667 9.33398 -62 20.001c-11.333 0 -26.666 -3.66699 -45.999 -11
s-34.333 -11 -45 -11c0 14 3.16699 42.167 9.5 84.5s9.5 72.5 9.5 90.5c2 15.333 3.5 44.333 4.5 87s2.5 72.334 4.5 89.001c-1.33301 1.33301 -2 6 -2 14v43c0 54.667 -2.33301 97.834 -7 129.501s-16 62.167 -34 91.5c16.667 6 36.667 9.83301 60 11.5s46.333 3.5 69 5.5
c14.667 -2 28.167 -3.33301 40.5 -4s22.166 -1 29.499 -1l2 -4c-6 -26.667 -10.667 -66.167 -14 -118.5s-5.66602 -83.833 -6.99902 -94.5c3.33301 -6 6.33301 -9.33301 9 -10c2.66699 0.666992 28.334 3.66699 77.001 9s82 11.666 100 18.999
c5.33301 1.33301 10.833 2 16.5 2h12.5c43.333 0 80.666 -15 111.999 -45c16 -18.667 27.167 -39.334 33.5 -62.001s9.5 -48.334 9.5 -77.001zM412.999 291.999c-8.66699 27.333 -18.502 45.168 -29.502 53.501s-25.167 12.5 -42.5 12.5
c-5.33301 0 -10.666 -0.166992 -15.999 -0.5s-10.666 -0.5 -15.999 -0.5c-43.333 -18.667 -75.833 -48.834 -97.5 -90.501s-32.5 -87.167 -32.5 -136.5c11.333 -16 25.833 -30.333 43.5 -43s32.834 -21.167 45.501 -25.5s22 -6.5 28 -6.5c7.33301 0 15.166 1.5 23.499 4.5
s18.833 9.16699 31.5 18.5c48 44 72 95.667 72 155c0 20 -3.33301 39.667 -10 59z" />
    <glyph glyph-name="c" unicode="c" horiz-adv-x="586" 
d="M582 426c-15.333 -19.333 -31.8291 -38.0059 -49.4961 -56.0059s-34.167 -32 -49.5 -42l-66 23c-42 14.667 -71 22 -87 22c-14.667 0 -28.334 -2.66699 -41.001 -8c-36 -23.333 -64.833 -50.166 -86.5 -80.499s-32.5 -65.166 -32.5 -104.499
c4 -25.333 11 -48.166 21 -68.499s25 -35.166 45 -44.499c25.333 -14 52.666 -21 81.999 -21c36 0 77.167 11.667 123.5 35l132.5 67l-64 -141c-21.333 -4 -47.5 -7.33301 -78.5 -10s-74.167 -4 -129.5 -4h-66h-22c-7.33301 0 -15 -0.333008 -23 -1
c-10.667 0 -20.667 0.666992 -30 2s-17.333 4.33301 -24 9c-33.333 16.667 -59.5 41 -78.5 73s-28.5 66.667 -28.5 104c0 38.667 8.66699 73.334 26 104.001s42.666 60 75.999 88c42 20 94.167 35.667 156.5 47s150.833 17 265.5 17c2 -2.66699 7.83301 -2.5 17.5 0.5
s15.167 4.5 16.5 4.5c2 0 2.66699 -1.16699 2 -3.5s-3.33398 -6.16602 -8.00098 -11.499z" />
    <glyph glyph-name="d" unicode="d" horiz-adv-x="635" 
d="M599 283c5.33301 -21.333 7.99805 -41.0039 7.99805 -59.0039c0 -30.667 -6 -60.167 -18 -88.5s-30.667 -54.666 -56 -78.999s-56.166 -41.166 -92.499 -50.499s-81.833 -14 -136.5 -14h-29c-44 0 -80 3 -108 9s-52.333 19.667 -73 41s-36.167 46 -46.5 74
s-15.5 57.667 -15.5 89c0 36.667 6.83301 70.334 20.5 101.001s34 56.5 61 77.5s56.5 32.833 88.5 35.5c14.667 4.66699 31 7 49 7c12.667 0 25.834 -1 39.501 -3s24.167 -3.33301 31.5 -4c5.33301 3.33301 5.33301 9 0 17c-32 28 -74.667 60.167 -128 96.5l-122 83.5v4
c49.333 0 92 -0.166992 128 -0.5s73.333 -1.16602 112 -2.49902l28 -23l54 -56c53.333 -49.333 98.333 -94.833 135 -136.5s60 -81.167 70 -118.5zM439.998 161.996c10 21.333 15.002 45 15.002 71c0 16 -1.83301 30.333 -5.5 43s-11 24.667 -22 36s-27 21 -48 29
s-42.167 12 -63.5 12c-17.333 0 -33.833 -2.5 -49.5 -7.5s-30.334 -14.333 -44.001 -28s-23.334 -29.167 -29.001 -46.5s-8.5 -35.333 -8.5 -54c0 -20 3 -39.167 9 -57.5s15 -34 27 -47s24.167 -22.167 36.5 -27.5s32.166 -12.333 59.499 -21c26.667 0 49.834 9 69.501 27
s37.5 41.667 53.5 71z" />
    <glyph glyph-name="e" unicode="e" horiz-adv-x="600" 
d="M566 139l-74.0039 -144.996c-2.66699 -1.33301 -5.33398 -3 -8.00098 -5c-20.667 0 -52.667 1.66699 -96 5s-72 5 -86 5c-8 0 -15.167 -0.166992 -21.5 -0.5s-20.5 -1.83301 -42.5 -4.5c-48 0 -83.667 4.66699 -107 14s-42.5 22.666 -57.5 39.999s-26 37.166 -33 59.499
s-10.5 46.166 -10.5 71.499c0 38 8.33301 75.5 25 112.5s45.5 69.167 86.5 96.5s84.167 41 129.5 41l63 6c22 2 38.333 3 49 3c24 0 44.667 -1.83301 62 -5.5s32.333 -9.66699 45 -18s23.334 -14.833 32.001 -19.5c8.66699 -7.33301 18.167 -20.833 28.5 -40.5
s15.5 -42.5 15.5 -68.5c0 -30 -6.66699 -56.667 -20 -80c-4.66699 -1.33301 -7.66699 -2.66602 -9 -3.99902c-24.667 3.33301 -47.167 5.33301 -67.5 6s-47.166 1 -80.499 1c-49.333 0 -88.666 -0.333008 -117.999 -1s-56.666 -1.33398 -81.999 -2.00098
c-4 -4 -6 -10.667 -6 -20c0 -5.33301 0.333008 -11.333 1 -18s1 -10.334 1 -11.001c0 -16 4.83301 -31.5 14.5 -46.5s25.334 -28.333 47.001 -40s48.5 -17.5 80.5 -17.5c22.667 0 43 4.33301 61 13c22.667 7.33301 46.5 16.333 71.5 27s60.5 29 106.5 55
c0.666992 -1.33301 0.666992 -4.33301 0 -9zM414.996 287.004c2 5.33301 2.49805 10.6699 1.49805 16.0029s-2.66699 10.833 -5 16.5s-11.666 15.667 -27.999 30s-30.666 22.666 -42.999 24.999s-22.166 3.5 -29.499 3.5c-18.667 0 -35.834 -5.33301 -51.501 -16
s-31.5 -25.334 -47.5 -44.001c-4 -6 -7.16699 -11.167 -9.5 -15.5s-3.5 -8.16602 -3.5 -11.499c0 -2.66699 1.33301 -5.33398 4 -8.00098c10 -2 20.5 -3.33301 31.5 -4s23.833 -1 38.5 -1c20.667 0 47 0.833008 79 2.5s50 2.5 54 2.5
c4.66699 1.33301 7.66699 2.66602 9 3.99902z" />
    <glyph glyph-name="f" unicode="f" horiz-adv-x="525" 
d="M503 456c0 -14.667 -5.33105 -28.8301 -15.998 -42.4971l-27 -33.5c-3.33301 -2.66699 -6.33301 -4.33398 -9 -5.00098s-4.33398 1 -5.00098 5l-52 33c-18 11.333 -34 19 -48 23c-24 -2.66699 -40 -12.5 -48 -29.5s-16 -36.833 -24 -59.5
c-6.66699 -34 -11.167 -68.333 -13.5 -103s-3.5 -75.334 -3.5 -122.001c0 -8 0.5 -13.667 1.5 -17s4.5 -5.66602 10.5 -6.99902h212c2.66699 -0.666992 3.66699 -2.5 3 -5.5s-1.66699 -6.5 -3 -10.5l-26.5 -49c-6.33301 -11.333 -12.833 -18 -19.5 -20
c-20.667 0 -50.667 0.333008 -90 1s-68.666 1 -87.999 1c-1.33301 -1.33301 -2.66602 -2.83301 -3.99902 -4.5l-5 -6.5c-2.66699 -26.667 -4.33398 -52.834 -5.00098 -78.501s-1 -55.5 -1 -89.5v-24c-6.66699 -0.666992 -11.334 -1.66699 -14.001 -3
c-20.667 -2.66699 -42.334 -5.66699 -65.001 -9s-42.667 -5 -60 -5c-2 0 -3.5 0.333008 -4.5 1s-0.5 10.167 1.5 28.5l9.5 87.5c4.33301 40 6.5 73.667 6.5 101l-5 6c-10.667 0 -26 -0.666992 -46 -2s-34.333 -2 -43 -2c0 13.333 1.66699 27.166 5 41.499
s7.66602 27.5 12.999 39.5c0 2 2.66699 3.66699 8 5c6 0 12 -0.166992 18 -0.5s12 -0.5 18 -0.5c14.667 0 25.167 1.16699 31.5 3.5s9.5 6.5 9.5 12.5c0 34 1 88 3 162s3 129 3 165c0 12 4.5 24.333 13.5 37s18.833 20.667 29.5 24s21.667 5 33 5c13.333 0 31.333 -3 54 -9
s37.334 -9.33301 44.001 -10c26 20.667 56.333 31 91 31c20.667 0 38 -3.66699 52 -11l39 -20c12.667 -8.66699 18 -20 16 -34z" />
    <glyph glyph-name="g" unicode="g" horiz-adv-x="596" 
d="M582 437c-15.333 -57.333 -25 -121.168 -29 -191.501s-6 -151.166 -6 -242.499c0 -30.667 -7.83301 -59.5 -23.5 -86.5s-39 -50.667 -70 -71s-74.167 -33.5 -129.5 -39.5l-159 -17c-35.333 0 -65.5 4.5 -90.5 13.5s-43 22.833 -54 41.5s-16.5 35.334 -16.5 50.001
c0 12.667 2.16699 25.167 6.5 37.5s10.333 24.166 18 35.499s15 20 22 26s31.167 23.333 72.5 52c-2 6 -9 15.333 -21 28s-18.667 20.667 -20 24c-22.667 30.667 -34 68.667 -34 114c0 33.333 7.5 66.333 22.5 99s41 60 78 82s77.833 35.333 122.5 40
c12.667 4.66699 29.5 8 50.5 10s40.833 3 59.5 3c15.333 0 32 -0.5 50 -1.5s37 -1.83301 57 -2.5c12.667 0 26.667 1.83301 42 5.5l52 12.5v-22zM414 313.998c-2.66699 8.66699 -5.66797 14.832 -9.00098 18.499s-20.5 11.834 -51.5 24.501s-56.5 19 -76.5 19
c-18.667 -7.33301 -34.667 -19.5 -48 -36.5s-22.333 -36.167 -27 -57.5c-4.66699 -16.667 -7 -35.667 -7 -57c0 -19.333 2.5 -37.333 7.5 -54s13.167 -31.334 24.5 -44.001c12 -10 25.833 -17.167 41.5 -21.5s33.167 -6.5 52.5 -6.5c12.667 0 23 0.5 31 1.5
s20 3.16699 36 6.5l3 -2c-1.33301 -10.667 -3.16602 -21 -5.49902 -31s-7.5 -20.333 -15.5 -31c-59.333 -6.66699 -105.833 -16 -139.5 -28s-57.834 -37.333 -72.501 -76c-1.33301 -6.66699 -2 -12 -2 -16c0 -22.667 7.66699 -40 23 -52s33 -18 53 -18
c10 0 20.833 1.33301 32.5 4s24.167 6.33398 37.5 11.001c26 11.333 48.333 28.5 67 51.5s30.334 47.833 35.001 74.5c4 32.667 6.83301 65.667 8.5 99s2.5 72 2.5 116v13v12c0 11.333 -0.166992 22.833 -0.5 34.5s-0.5 23.5 -0.5 35.5v10z" />
    <glyph glyph-name="h" unicode="h" horiz-adv-x="655" 
d="M636 82c0 -10 -3.99805 -21.9961 -11.998 -35.9961s-14.667 -26.167 -20 -36.5s-17.333 -16.5 -36 -18.5l-52 -2c-24.667 2.66699 -48.167 4.33398 -70.5 5.00098s-48.5 1 -78.5 1h-53.5c-17.667 0 -35.167 -0.333008 -52.5 -1
c69.333 53.333 121.166 97.666 155.499 132.999s51.5 77.666 51.5 126.999c0 10.667 -1.83301 24 -5.5 40s-15 30.833 -34 44.5s-39.167 20.5 -60.5 20.5c-20.667 -8 -40.834 -20.167 -60.501 -36.5s-39.5 -39 -59.5 -68s-34.5 -65.5 -43.5 -109.5s-13.5 -93.667 -13.5 -149
l-4 -4c-19.333 0 -41.5 0.166992 -66.5 0.5s-53.167 0.833008 -84.5 1.5c0 20.667 3.33301 47.834 10 81.501s11.167 64.5 13.5 92.5s4.5 59.5 6.5 94.5s3 74.833 3 119.5c0 56.667 -2.33301 108.667 -7 156c0 14 -3.16699 26.5 -9.5 37.5s-17.166 26.833 -32.499 47.5
c-0.666992 2 -0.166992 3.5 1.5 4.5s3.83398 1.5 6.50098 1.5c22 0 58 1.66699 108 5s84 5 102 5v-16c-8 -20.667 -14.167 -44.834 -18.5 -72.501s-6.5 -66.167 -6.5 -115.5v-45c1.33301 -2 2.66602 -3.33301 3.99902 -4s2.33301 -1 3 -1c16 7.33301 46 14.666 90 21.999
s74.333 14.666 91 21.999c19.333 6 39.666 9 60.999 9c42 0 75.5 -9.66699 100.5 -29s42.667 -41.333 53 -66s15.5 -50.334 15.5 -77.001c0 -17.333 -2 -34.666 -6 -51.999c-4 -23.333 -12.5 -45.5 -25.5 -66.5s-30.167 -42.833 -51.5 -65.5
c0 -2.66699 0.666992 -4.83398 2 -6.50098s2.33301 -2.5 3 -2.5c27.333 2.66699 55 5.66699 83 9z" />
    <glyph glyph-name="i" unicode="i" horiz-adv-x="275" 
d="M301 567c-29.333 -12 -56.3301 -24.499 -80.9971 -37.499s-49.334 -29.167 -74.001 -48.5c-14.667 3.33301 -29.334 7.33301 -44.001 12s-29.334 9.66699 -44.001 15c-1.33301 1.33301 -1.33301 3.33301 0 6c32.667 45.333 72 80.666 118 105.999c24 -2 49 -5.5 75 -10.5
s41 -9.5 45 -13.5s6 -10 6 -18c0 -5.33301 -0.333008 -9 -1 -11zM222.003 443.001c0 -14 -1.5 -33.835 -4.5 -59.502s-4.5 -40.5 -4.5 -44.5c0 -39.333 0.666992 -104.166 2 -194.499s2 -137.166 2 -140.499l1 -5l-161 2c0 14.667 1.66699 30.334 5 47.001l10 50
c1.33301 14 2.33301 35.833 3 65.5s1 52.5 1 68.5v81c-3.33301 21.333 -13 41.666 -29 60.999l-40 49c1.33301 2 3.66602 3 6.99902 3s5.33301 0.333008 6 1c18 0 50.833 4.5 98.5 13.5s74.834 13.5 81.501 13.5c14.667 0 22 -3.66699 22 -11z" />
    <glyph glyph-name="j" unicode="j" horiz-adv-x="330" 
d="M203 487c-17.333 0 -36.332 3.66797 -56.999 11.001c-24.667 10.667 -43 18.334 -55 23.001v5c23.333 22.667 47.166 42.667 71.499 60s49.833 31.666 76.5 42.999c16 -4.66699 33.167 -11.334 51.5 -20.001s35.833 -17.667 52.5 -27zM294.001 454.001
c-12.667 -38.667 -21.333 -78.502 -26 -119.502s-7 -87.5 -7 -139.5c0 -24.667 0.666992 -65.667 2 -123s2 -88.333 2 -93c-4 -40 -23 -75.667 -57 -107s-73 -55.666 -117 -72.999c-17.333 -4 -35 -6 -53 -6c-16 0 -31.167 1.83301 -45.5 5.5s-27.5 9.83398 -39.5 18.501
c6 8.66699 11.667 15.667 17 21s18 17 38 35c4.66699 0 11 -3 19 -9s14.667 -7.66699 20 -5c32.667 44 54.5 93.667 65.5 149s16.5 120.333 16.5 195c0 16 -0.333008 40.5 -1 73.5s-1 57.5 -1 73.5c-4 6.66699 -6.66699 11.334 -8 14.001c-8.66699 0 -21 -1 -37 -3
s-28 -3 -36 -3c-4 0 -10.667 0.666992 -20 2c6 33.333 9.5 52.5 10.5 57.5s4.5 15.5 10.5 31.5c0 2.66699 1.33301 3.66699 4 3s4.66699 0 6 2c37.333 0 78.333 0.666992 123 2s82 2.66602 112 3.99902z" />
    <glyph glyph-name="k" unicode="k" horiz-adv-x="555" 
d="M312 225v-6.00195c61.333 -64 106.333 -109.833 135 -137.5s62 -54.5 100 -80.5c-28.667 -6 -50.667 -10.333 -66 -13s-31.666 -4 -48.999 -4c-18 0 -32.833 1.5 -44.5 4.5s-23.834 8.5 -36.501 16.5l-149 141c-1.33301 0 -5.33301 -3.33301 -12 -10
c0 -15.333 2 -38.666 6 -69.999s6 -54.666 6 -69.999c-1.33301 -2 -2.66602 -3.33301 -3.99902 -4s-2.33301 -1 -3 -1c-18 2 -43.5 3.66699 -76.5 5s-59.167 2 -78.5 2c8 82.667 13.5 167.334 16.5 254.001s4.5 182.667 4.5 288c0 13.333 -1.5 26 -4.5 38
s-7.83301 27.667 -14.5 47c8 4 18.333 6 31 6c10 -0.666992 17.333 -1 22 -1c2.66699 0 6.66699 0.666992 12 2c22 0 43.167 1.83301 63.5 5.5l52.5 9.5c1.33301 -2.66699 1.33301 -9.33398 0 -20.001c0 -43.333 -5 -104 -15 -182s-15 -137 -15 -177
c0.666992 -2.66699 2.5 -4 5.5 -4s6.16699 0.333008 9.5 1c56.667 41.333 97.667 73 123 95s49.666 45.667 72.999 71c18.667 0 47 1 85 3s66.333 3 85 3l-91 -68.5l-91 -71.5c-30 -24.667 -56.667 -48.667 -80 -72z" />
    <glyph glyph-name="l" unicode="l" horiz-adv-x="360" 
d="M334 92c-2.66699 -14.667 -6.66699 -29.332 -12 -43.999l-15 -42c-12 -6 -24.667 -9.83301 -38 -11.5s-25 -2.5 -35 -2.5c-29.333 0 -57.666 4.33301 -84.999 13l-109 -29l-2.5 2.5l-2.5 2.5c10.667 61.333 18.834 134.5 24.501 219.5s8.5 205.5 8.5 361.5l-10 73
c0.666992 1.33301 2.16699 2 4.5 2s3.83301 1 4.5 3h40h15c35.333 0 68.666 2 99.999 6c7.33301 2.66699 11.666 1.66699 12.999 -3s2 -10.334 2 -17.001c-11.333 -92 -20.333 -177 -27 -255s-10 -156 -10 -234l5 -37.5c1.33301 -9.66699 7 -15.5 17 -17.5
c17.333 0 34.333 0.833008 51 2.5s37 4.16699 61 7.5z" />
    <glyph glyph-name="m" unicode="m" horiz-adv-x="979" 
d="M962 73l-27.5 -43.001c-9 -14 -18.833 -28 -29.5 -42c-19.333 4 -39.166 6.66699 -59.499 8s-42.833 2 -67.5 2c-26.667 0 -62.167 -0.833008 -106.5 -2.5s-70.5 -2.5 -78.5 -2.5c38.667 26 70.334 49.167 95.001 69.5s46.5 45.166 65.5 74.499s28.5 61 28.5 95
c0 10 -0.333008 17.333 -1 22c0 18 -5 34.5 -15 49.5s-24 27.833 -42 38.5c-10 4 -18.333 6.83301 -25 8.5s-14.334 2.5 -23.001 2.5c-6 0 -22.167 -5.83301 -48.5 -17.5s-50.833 -42.167 -73.5 -91.5s-34 -105.666 -34 -168.999c0 -9.33301 1.16699 -23.333 3.5 -42
s3.5 -31.667 3.5 -39l-158 2c1.33301 7.33301 8.33301 37.666 21 90.999s19 97.666 19 132.999c0 14.667 -1 29.667 -3 45c-4 20 -9.66699 36.5 -17 49.5s-16.5 21.833 -27.5 26.5s-20.5 7 -28.5 7c-10 0 -19.333 -2.16699 -28 -6.5s-16.667 -8.83301 -24 -13.5
c-28.667 -26 -49.167 -58.5 -61.5 -97.5s-18.5 -81.5 -18.5 -127.5c0 -14.667 0.666992 -31 2 -49s3 -36.333 5 -55c-20 0 -54 0.666992 -102 2s-72.667 2 -74 2c1.33301 6.66699 3.5 13.834 6.5 21.501l9.5 23.5c12.667 42.667 21.834 84 27.501 124s8.5 84 8.5 132
c0 19.333 -5.66699 38.333 -17 57s-26.333 35.667 -45 51l194 22c6.66699 -1.33301 10.667 -6.5 12 -15.5s2.66602 -16.833 3.99902 -23.5c4 -2.66699 6.33301 -4 7 -4l85 14c18 8 36.667 14.667 56 20s38.333 8 57 8c28 0 52.333 -7 73 -21
c3.33301 -1.33301 8.83301 -7.66602 16.5 -18.999s16.5 -15 26.5 -11l195 49c36.667 0 67.5 -3.83301 92.5 -11.5s44.333 -21 58 -40s23.167 -37.333 28.5 -55s8 -37.167 8 -58.5c0 -30 -5.66699 -57.333 -17 -82c-6.66699 -17.333 -15.834 -35.166 -27.501 -53.499
s-24.167 -35.5 -37.5 -51.5c0 -6 2 -9.66699 6 -11c14.667 0 34.667 2.5 60 7.5l43 8.5c1.33301 -1.33301 1.33301 -5 0 -11z" />
    <glyph glyph-name="n" unicode="n" horiz-adv-x="664" 
d="M639 94c-6 -12.667 -13.834 -27.5029 -23.501 -44.5029l-27.5 -48.5l-6 -6c-23.333 2 -50.5 3.5 -81.5 4.5s-65.167 1.5 -102.5 1.5h-110l76.5 70.5c21.667 20.333 40.167 41.5 55.5 63.5c12 20.667 22.167 42 30.5 64s12.5 43 12.5 63c0 12 -1.83301 23.667 -5.5 35
s-9.5 22 -17.5 32s-18.167 17.833 -30.5 23.5s-26.833 9.5 -43.5 11.5c-37.333 -6 -70.833 -24.667 -100.5 -56s-48.834 -59.666 -57.501 -84.999s-14 -45.833 -16 -61.5s-3 -30.167 -3 -43.5c0 -16.667 0.833008 -38.834 2.5 -66.501s2.5 -43.5 2.5 -47.5l-1 -3h-156l-3 2
c10.667 47.333 19.5 89.666 26.5 126.999s10.5 73 10.5 107c0 36 -3.66699 67.667 -11 95s-20.333 53.333 -39 78v6c29.333 0 57.833 1.33301 85.5 4s53.834 7.33398 78.501 14.001c8 2.66699 13 1 15 -5c1.33301 -9.33301 2.33301 -15.666 3 -18.999s1.5 -6.5 2.5 -9.5
s3.83301 -5.5 8.5 -7.5c28.667 8.66699 55 15.167 79 19.5s50.333 6.5 79 6.5c14.667 3.33301 30.834 6.33301 48.501 9s34.167 4 49.5 4c18 0 34 -1.66699 48 -5s29.333 -11.166 46 -23.499s29.5 -29.666 38.5 -51.999s13.5 -47.5 13.5 -75.5v-16
c-1.33301 -8 -3 -20 -5 -36s-9.83301 -37.667 -23.5 -65s-31.167 -53.333 -52.5 -78c0 -8 2 -12 6 -12l53 12.5c13.333 3 28.333 7.16699 45 12.5z" />
    <glyph glyph-name="o" unicode="o" horiz-adv-x="620" 
d="M560 347c17.333 -31.333 25.999 -67.999 25.999 -109.999c0 -48 -12.667 -89.5 -38 -124.5s-55.666 -59 -90.999 -72s-76.5 -24.833 -123.5 -35.5s-73.167 -16.334 -78.5 -17.001s-13.666 -1 -24.999 -1c-34 0 -65 6.66699 -93 20s-50.667 34 -68 62
c-23.333 33.333 -35 72.333 -35 117s11.667 84.167 35 118.5s53.5 59.833 90.5 76.5s80.833 29 131.5 37c35.333 13.333 71.666 20 108.999 20c22 0 42 -2.5 60 -7.5s34.667 -13.5 50 -25.5c8.66699 -4 15 -6.83301 19 -8.5s14.333 -18.167 31 -49.5zM432.999 288.001
c-12 27.333 -29.499 47.167 -52.499 59.5s-48.833 18.5 -77.5 18.5c-22.667 -6.66699 -42.334 -14.834 -59.001 -24.501s-33 -25.667 -49 -48s-24 -52.166 -24 -89.499c0 -24 5.5 -47 16.5 -69s28 -40.5 51 -55.5s48.167 -22.5 75.5 -22.5c16 -2 29.333 0.666992 40 8
s26 20.333 46 39c30.667 32.667 46 73 46 121c0 24 -4.33301 45 -13 63z" />
    <glyph glyph-name="p" unicode="p" horiz-adv-x="590" 
d="M536 364c18 -29.333 27 -63.001 27 -101.001c0 -56.667 -14 -103.5 -42 -140.5s-56.833 -62.833 -86.5 -77.5s-63.834 -25.667 -102.501 -33c-22 -8.66699 -43.667 -16 -65 -22s-42 -9 -62 -9l-6 -6c0 -21.333 1.33301 -52 4 -92s4 -69.333 4 -88l-2 -5
c-13.333 0 -26.5 0.166992 -39.5 0.5s-25.833 0.5 -38.5 0.5h-31.5c-8.33301 0 -23.833 -1.33301 -46.5 -4c-1.33301 0.666992 -2.33301 2.66699 -3 6c4.66699 50.667 8.33398 100 11.001 148s4 97.333 4 148c0 60 -2.16699 117.833 -6.5 173.5s-11.166 108.5 -20.499 158.5
l157 12c2.66699 -2 4.66699 -7.5 6 -16.5s5.33301 -13.833 12 -14.5c10 4 29.5 7.5 58.5 10.5s49.167 8.83301 60.5 17.5c23.333 8 46.333 12 69 12c28.667 0 54.667 -6.16699 78 -18.5s43.666 -32.166 60.999 -59.499zM391 301.999
c-13.333 22 -21.168 32.666 -23.501 31.999s-4.5 0.333008 -6.5 3c-15.333 8 -26.833 13.5 -34.5 16.5s-16.167 4.5 -25.5 4.5c-7.33301 0 -14.666 -2 -21.999 -6c-35.333 -24 -58.333 -55.333 -69 -94s-16 -86 -16 -142c11.333 -16 27 -28.167 47 -36.5s42 -13.5 66 -15.5
c13.333 2 25.5 8 36.5 18s24.833 27.167 41.5 51.5s25 55.833 25 94.5c0 28.667 -6.33301 53.334 -19 74.001z" />
    <glyph glyph-name="q" unicode="q" horiz-adv-x="565" 
d="M572 425c-16 -44.667 -27.001 -93 -33.001 -145s-9 -108 -9 -168c0 -20.667 0.333008 -52.667 1 -96s1 -76 1 -98c3.33301 -28.667 6.33301 -51.5 9 -68.5s6.66699 -35.833 12 -56.5v-5c-26.667 0 -60.834 -0.833008 -102.501 -2.5s-65.167 -2.5 -70.5 -2.5
c0 22 2.33301 55 7 99s7 77.667 7 101c-1.33301 6.66699 -4 11 -8 13c-10.667 -1.33301 -19.334 -2 -26.001 -2c-10.667 0 -25.167 0.833008 -43.5 2.5s-29.166 2.5 -32.499 2.5c-18.667 -4.66699 -39.667 -7 -63 -7c-25.333 0 -49.5 3.83301 -72.5 11.5
s-42.5 19.5 -58.5 35.5c-20.667 18.667 -35.834 40.5 -45.501 65.5s-14.5 52.167 -14.5 81.5s5.33301 59 16 89c16.667 40.667 44.5 72 83.5 94s82.833 37 131.5 45c28 10.667 58.667 16 92 16c42 0 82.667 -8 122 -24c10 0 21.167 2.5 33.5 7.5l35.5 14.5
c0.666992 0 4.33398 1.16699 11.001 3.5s11.334 3.5 14.001 3.5c2 0 3.33301 -0.666992 4 -2s0.333984 -4 -0.999023 -8zM412.999 306c-2.66699 18 -17.667 31.501 -45 40.501s-57 13.5 -89 13.5c-28 -13.333 -50.167 -33.833 -66.5 -61.5s-24.5 -56.834 -24.5 -87.501
c0 -32.667 7.66699 -62.667 23 -90s37.333 -46.666 66 -57.999c20.667 0 41.5 6 62.5 18l52.5 31c8 8 12.833 20 14.5 36s3.16699 26.667 4.5 32c0 12 0.833008 29.167 2.5 51.5s2.5 35.833 2.5 40.5c0 11.333 -1 22.666 -3 33.999z" />
    <glyph glyph-name="r" unicode="r" horiz-adv-x="681" 
d="M445 10c-50.667 27.333 -89.6699 46.6689 -117.003 58.002s-54 20 -80 26c-7.33301 -4 -11 -12 -11 -24c0 -3.33301 0.333008 -8.33301 1 -15s1 -11.334 1 -14.001c0 -2 0.666992 -6 2 -12s2 -11 2 -15c0 -6 -3 -10 -9 -12h-122c-2 0.666992 -3.33301 1.33398 -4 2.00098
c0 41.333 0.833008 94.333 2.5 159s2.5 102.667 2.5 114c0 24 -8.5 46 -25.5 66s-39.167 39.333 -66.5 58l4 2c28.667 0 60.167 2.33301 94.5 7l99.5 14c3.33301 -2.66699 6.33301 -9 9 -19s6.33398 -16.333 11.001 -19c20.667 8.66699 59.834 18 117.501 28
s89.834 15.833 96.501 17.5s12.334 2.5 17.001 2.5h11c21.333 0 40.833 -3.16699 58.5 -9.5s35 -19.333 52 -39s25.5 -46.834 25.5 -81.501c0 -11.333 -1.66699 -25.333 -5 -42s-17 -37.5 -41 -62.5s-51.667 -46.167 -83 -63.5v-6c26 -20.667 54.167 -40.834 84.5 -60.501
s59.166 -36.5 86.499 -50.5c-21.333 -6.66699 -43.5 -12 -66.5 -16s-46.167 -6 -69.5 -6c-28.667 0 -54.667 4.33301 -78 13zM453.997 319.003c-4 18 -9.16895 29.1709 -15.502 33.5039s-26.166 8.16602 -59.499 11.499c-34.667 -13.333 -64.5 -36.333 -89.5 -69
s-39.167 -59.834 -42.5 -81.501s-5.16602 -34.334 -5.49902 -38.001s-0.5 -7.83398 -0.5 -12.501c0 -8.66699 2.33301 -14.667 7 -18c24.667 0 48.167 3.33301 70.5 10s44 16.5 65 29.5s38.5 29.667 52.5 50s21 41.5 21 63.5c0 6.66699 -1 13.667 -3 21z" />
    <glyph glyph-name="s" unicode="s" horiz-adv-x="538" 
d="M508 169c0 -32.667 -10.3311 -63.0059 -30.998 -91.0059s-46.334 -47.333 -77.001 -58c-12 -6.66699 -25.833 -11.5 -41.5 -14.5s-31.834 -4.5 -48.501 -4.5h-28c-9.33301 0 -18.666 0.333008 -27.999 1c-19.333 0 -38 -2.33301 -56 -7c-36 0 -67 4 -93 12s-47 24 -63 48
c-10 18 -15 38.667 -15 62c0 8.66699 1 17.667 3 27c3.33301 3.33301 5.33301 5 6 5l134 -3c4 -2.66699 6 -6 6 -10l-4 -23c0 -14.667 4.33301 -27.667 13 -39c16 -14 36.333 -21 61 -21c4 0 8.66699 0.333008 14 1s13.666 1.83398 24.999 3.50098s26 10.334 44 26.001
s29.667 33.834 35 54.501c0 16.667 -3.66699 27 -11 31c-8 7.33301 -17.833 12.5 -29.5 15.5s-24.167 4.5 -37.5 4.5c-8 0 -16 -0.166992 -24 -0.5s-15.667 -0.5 -23 -0.5c-19.333 -2 -32.166 -3.16699 -38.499 -3.5s-16.5 -0.5 -30.5 -0.5
c-27.333 0 -51.333 3.83301 -72 11.5s-37.334 21.5 -50.001 41.5c-10 14 -15 31.667 -15 53c0 16.667 6.33301 37.5 19 62.5s39 43.167 79 54.5s92 17 156 17c23.333 6.66699 47 10 71 10c29.333 0 56.333 -5 81 -15s40 -21.167 46 -33.5s10.5 -22.833 13.5 -31.5
s4.5 -15.667 4.5 -21c0 -7.33301 -1.66699 -13 -5 -17c-20.667 0 -46.834 -0.833008 -78.501 -2.5s-50.167 -2.5 -55.5 -2.5c-4 12 -8.33301 21.833 -13 29.5s-12 14.167 -22 19.5c-15.333 6.66699 -32.666 10 -51.999 10c-24 0 -44.333 -6.33301 -61 -19
c-6.66699 -6 -13.5 -12.5 -20.5 -19.5s-10.5 -14.833 -10.5 -23.5c0 -7.33301 2.16699 -14.166 6.5 -20.499s10.333 -11.166 18 -14.499s17 -5.66602 28 -6.99902s23.167 -2 36.5 -2c14 0 35.333 1.33301 64 4s49.667 4 63 4c35.333 0 62 -7 80 -21s27 -41.333 27 -82z" />
    <glyph glyph-name="t" unicode="t" horiz-adv-x="490" 
d="M474 410l-38.0029 -82.0039l-5 -4c-20 0 -52 0.666992 -96 2s-68 2 -72 2c-6.66699 0.666992 -11.5 -2.16602 -14.5 -8.49902l-8.5 -18.5c-7.33301 -29.333 -11 -58.666 -11 -87.999c0 -30 3.83301 -57.667 11.5 -83s18.667 -45.333 33 -60s28.5 -22 42.5 -22
c4.66699 0 11.834 1.33301 21.501 4s19.834 6.66699 30.501 12s43 23.333 97 54c-4.66699 -18.667 -11.667 -42.334 -21 -71.001c-7.33301 -19.333 -12.333 -33.666 -15 -42.999l-8 -6h-231c-14.667 2.66699 -28 8.33398 -40 17.001s-25.833 27 -41.5 55s-23.5 71 -23.5 129
c0 40.667 5.66699 79.667 17 117c-3.33301 8 -11.333 12 -24 12c-11.333 -0.666992 -22.666 -1 -33.999 -1l-4 3c1.33301 18 2.5 33 3.5 45s3.5 23 7.5 33c7.33301 1.33301 15 2 23 2h19h16c4 0 8.66699 0.333008 14 1s9.33301 1 12 1l43 68.5
c11.333 17.667 24.333 35.834 39 54.501c5.33301 4 9 6 11 6c32 4 68.5 7.33301 109.5 10s79.5 5 115.5 7l-143 -138c2 -3.33301 5.66699 -5 11 -5c18 0 47.5 0.666992 88.5 2s62.5 2 64.5 2c3.33301 -2.66699 3.33301 -5.66699 0 -9z" />
    <glyph glyph-name="u" unicode="u" horiz-adv-x="616" 
d="M602 425c-0.666992 -9.33301 -7.16504 -56.998 -19.498 -142.998s-18.5 -143.333 -18.5 -172c0 -26 1.5 -48 4.5 -66s5.5 -31.333 7.5 -40h-152c-1.33301 2 -2.33301 6.5 -3 13.5s-2.33398 11.833 -5.00098 14.5c-14.667 -3.33301 -40.334 -7 -77.001 -11
s-61 -7.33301 -73 -10c-26.667 -10 -54.334 -15 -83.001 -15c-18 0 -33.833 1.83301 -47.5 5.5s-35.167 17.167 -64.5 40.5s-44 66.333 -44 129v15c1.33301 7.33301 3 18 5 32s8.16699 31.833 18.5 53.5s24.166 43.5 41.499 65.5c0.666992 2 0.166992 3.83301 -1.5 5.5
s-3.83398 3.16699 -6.50098 4.5c-5.33301 0.666992 -12.166 0.666992 -20.499 0s-16.166 -1 -23.499 -1c-6 0 -10.333 0.333008 -13 1c2.66699 12.667 5.5 23.667 8.5 33s8.5 22.333 16.5 39h23h20h18h15h14h12h36.5c12.333 0 24.833 0.333008 37.5 1h10
c14.667 0 33.334 0.5 56.001 1.5s34.334 1.5 35.001 1.5c16.667 0 33 -1 49 -3l-128 -94c-47.333 -42.667 -71 -87.334 -71 -134.001c0 -7.33301 1.16699 -18 3.5 -32s9 -29.833 20 -47.5s22.833 -29.5 35.5 -35.5s22.5 -9.33301 29.5 -10s10.833 -1 11.5 -1
c17.333 0 34.166 5 50.499 15s33.5 23.667 51.5 41c23.333 25.333 39 55.333 47 90s12 75.667 12 123v11c0 11.333 -0.166992 22.666 -0.5 33.999s-0.5 23 -0.5 35v10l5 2h153z" />
    <glyph glyph-name="v" unicode="v" horiz-adv-x="636" 
d="M606 383c14 -26 20.9961 -55.3301 20.9961 -87.9971c0 -33.333 -6.5 -65.666 -19.5 -96.999s-31.167 -61.666 -54.5 -90.999c-72 -74.667 -159.667 -112 -263 -112c-12.667 -2.66699 -27.167 -5 -43.5 -7s-31.5 -3 -45.5 -3c-29.333 0 -55.166 4.16699 -77.499 12.5
s-42.5 25.166 -60.5 50.499s-27 61 -27 107c0 50 11.667 95 35 135l36 54c-1.33301 4 -2.66602 6.33301 -3.99902 7s-3.66602 1 -6.99902 1s-11 -0.666992 -23 -2s-20.667 -2 -26 -2h-16c-5.33301 2 -9 3.33301 -11 4c4 10 9.33301 20.5 16 31.5l24 38.5
c34.667 0 80.834 1.16699 138.501 3.5s94.5 3.5 110.5 3.5c-40 -36.667 -71.167 -76 -93.5 -118s-33.5 -87.333 -33.5 -136c0 -12.667 1.33301 -26.834 4 -42.501s10.5 -31 23.5 -46s26.5 -25.167 40.5 -30.5s26 -8 36 -8c22 0 43.833 9 65.5 27l54.5 45
c22 24 38.833 48.667 50.5 74s17.5 51.666 17.5 78.999c0 14.667 -2 29.667 -6 45c-8 21.333 -28.833 36.166 -62.5 44.499s-53.167 13.5 -58.5 15.5c50.667 22.667 84.834 37.167 102.501 43.5s40.167 11.166 67.5 14.499c12 0.666992 20.333 1 25 1
c12.667 0 23.667 -3.5 33 -10.5s19.666 -21.5 30.999 -43.5z" />
    <glyph glyph-name="w" unicode="w" horiz-adv-x="954" 
d="M919 187c-21.333 -50 -55.833 -91.001 -103.5 -123.001s-99.167 -48 -154.5 -48c-18.667 -6 -37.334 -11.167 -56.001 -15.5s-36.334 -6.5 -53.001 -6.5c-28.667 0 -53 6.33301 -73 19c-5.33301 4.66699 -12 12.334 -20 23.001s-13.667 18 -17 22
c-26.667 -14 -46.167 -24 -58.5 -30s-26.833 -11 -43.5 -15c-18 0 -48.833 -3.83301 -92.5 -11.5s-73.167 -11.5 -88.5 -11.5c-14 0 -27.167 1 -39.5 3s-24.166 6 -35.499 12c-22 14 -38 33 -48 57s-15 51 -15 81c0 15.333 1 30 3 44c12.667 51.333 41 98.333 85 141
c0 2.66699 -0.833008 4.66699 -2.5 6s-2.83398 2.33301 -3.50098 3h-68c2 11.333 5.16699 22.5 9.5 33.5s9.5 21.5 15.5 31.5s10.167 15.167 12.5 15.5s4.5 0.5 6.5 0.5h36c58 0 102 0.5 132 1.5s66.333 3.5 109 7.5l-119 -114c-43.333 -47.333 -65 -94 -65 -140
c0 -10 1 -20 3 -30c2 -20.667 8.83301 -39.5 20.5 -56.5s27.167 -27.833 46.5 -32.5c36.667 0 69 15.833 97 47.5s47.333 62.167 58 91.5s17.834 55.666 21.501 78.999s5.5 46.333 5.5 69c0 19.333 -0.666992 34.5 -2 45.5s-2 19.167 -2 24.5
c10.667 -0.666992 20 -1.16699 28 -1.5s14.667 -0.5 20 -0.5c14 0 37.667 0.666992 71 2s51 2 53 2c-4 -16.667 -10.667 -37.667 -20 -63s-15.833 -46.333 -19.5 -63s-5.5 -37.667 -5.5 -63c0 -29.333 4 -55.5 12 -78.5s21.667 -43.167 41 -60.5
c14 -7.33301 24.5 -12.5 31.5 -15.5s15.833 -3.83301 26.5 -2.5c35.333 13.333 65.5 37.5 90.5 72.5s40.5 71.833 46.5 110.5c0 16.667 -1.83301 32 -5.5 46s-9.83398 27 -18.501 39c-12.667 11.333 -25 19.333 -37 24s-44.333 13.334 -97 26.001
c34 18 67.333 32.167 100 42.5s67 15.5 103 15.5c2.66699 -0.666992 5.33398 -1 8.00098 -1h5c2.66699 0 6.83398 -2.5 12.501 -7.5s16.5 -15.5 32.5 -31.5c12.667 -14 22.167 -31 28.5 -51s9.5 -41 9.5 -63c0 -34 -5.66699 -68 -17 -102z" />
    <glyph glyph-name="x" unicode="x" horiz-adv-x="677" 
d="M662 426c-1.33301 -2 -5.49805 -6.33301 -12.498 -13s-11.833 -12.334 -14.5 -17.001c-82 -68.667 -156.333 -136 -223 -202c17.333 -45.333 30.166 -76.166 38.499 -92.499s19.166 -28.333 32.499 -36s22.833 -12 28.5 -13s12.167 -1.5 19.5 -1.5c11.333 0 23 1 35 3
l24 4c-2.66699 -10.667 -5.66699 -21.667 -9 -33s-8.66602 -20 -15.999 -26c-12 0 -30 -0.333008 -54 -1s-41.667 -1 -53 -1c-28 0 -47.5 0.5 -58.5 1.5s-26.167 3.16699 -45.5 6.5c-16 6.66699 -29 21.5 -39 44.5s-17.667 37.167 -23 42.5
c-2 0.666992 -4.16699 0.333984 -6.5 -0.999023s-8 -5 -17 -11s-22.833 -17.167 -41.5 -33.5l-54 -47.5h-165l253 176c0 8.66699 -4.33301 22.167 -13 40.5l-35 77.5c-11.333 22 -23 40.333 -35 55c-6.66699 5.33301 -14.167 9 -22.5 11s-17.166 3 -26.499 3
c-6.66699 0 -13.167 -0.166992 -19.5 -0.5s-12.833 -0.5 -19.5 -0.5c0 8.66699 2.33301 18.334 7 29.001l14 31c12 3.33301 27.667 5.33301 47 6s30.666 1 33.999 1h27c6.66699 0 16.667 1.33301 30 4s23.333 4 30 4c10 0 18.167 -1.5 24.5 -4.5
s12.666 -9.83301 18.999 -20.5s16.333 -33.834 30 -69.501s20.834 -53.834 21.501 -54.501c3.33301 -1.33301 7.66602 -0.333008 12.999 3c35.333 30.667 61.333 53.834 78 69.501s32.667 34.5 48 56.5c4 1.33301 7.66699 2.66602 11 3.99902c15.333 0 38.333 1 69 3
s53.667 3 69 3z" />
    <glyph glyph-name="y" unicode="y" horiz-adv-x="632" 
d="M625 420l-88.9941 -171.503c-30.667 -59.667 -57.334 -115.667 -80.001 -168s-42.334 -107.5 -59.001 -165.5c-14.667 -38 -39.834 -65.167 -75.501 -81.5s-78.167 -27.166 -127.5 -32.499c-16.667 -4 -33.5 -7.5 -50.5 -10.5s-33.167 -4.5 -48.5 -4.5
c-17.333 0 -33.5 2.16699 -48.5 6.5s-28.167 11.5 -39.5 21.5c-9.33301 11.333 -16.333 25.166 -21 41.499s-7 32.5 -7 48.5c0 20.667 3.16699 42.334 9.5 65.001s14 42 23 58s17.167 29.5 24.5 40.5s15.666 21.167 24.999 30.5c34.667 3.33301 69.667 7 105 11
c-2.66699 -8 -10 -19.333 -22 -34s-20.833 -27.667 -26.5 -39s-10.834 -25.5 -15.501 -42.5s-7 -34.167 -7 -51.5c0 -26 6.33301 -48.333 19 -67c14 -18 30.667 -27 50 -27c3.33301 0 9 0.666992 17 2c29.333 8.66699 52.666 26 69.999 52s31.333 57 42 93
c2 4 0 7.66699 -6 11c-12 0 -29.167 -1.5 -51.5 -4.5s-34.833 -4.5 -37.5 -4.5c0 32.667 0.333008 58.834 1 78.501s1.33398 38.167 2.00098 55.5c0 40 -2.33301 74 -7 102s-14.334 55.333 -29.001 82c-5.33301 4 -13 6 -23 6l-41 -2c-8.66699 0 -21.667 -1 -39 -3
s-30.333 -3 -39 -3c9.33301 14.667 24.666 34.334 45.999 59.001l38 44c16.667 0 42 0.333008 76 1s59.333 1 76 1l9 -2c26.667 -37.333 45.5 -79.833 56.5 -127.5s16.5 -99.834 16.5 -156.501c2.66699 -4 5.33398 -4.66699 8.00098 -2s10 16.334 22 41.001l54 111
c24 49.333 48 92.333 72 129c2 6 10.333 10.333 25 13h98c1.33301 0 3 -1.33301 5 -4z" />
    <glyph glyph-name="z" unicode="z" horiz-adv-x="585" 
d="M568 421c-66 -49.333 -120.168 -99.5 -162.501 -150.5s-84.5 -112.833 -126.5 -185.5c5.33301 -5.33301 8.33301 -8 9 -8c8.66699 -1.33301 17.167 -2 25.5 -2h25.5c33.333 0 64 1.66699 92 5s67 9.33301 117 18c-4 -15.333 -11.5 -32.5 -22.5 -51.5l-31.5 -55.5l-6 -4
c-35.333 0 -94.333 3 -177 9s-139.667 9 -171 9c-24.667 0 -48.167 -0.666992 -70.5 -2s-44.166 -4 -65.499 -8l1 7l104 106c46.667 46.667 84.334 86.167 113.001 118.5s54.334 66.166 77.001 101.499c1.33301 3.33301 -1.66699 6.66602 -9 9.99902
c-32.667 0 -69.667 -2.83301 -111 -8.5l-119 -16.5v6l31.5 52.5c8.33301 13.667 17.166 26.834 26.499 39.501c27.333 4 54.333 6.83301 81 8.5s57.334 2.5 92.001 2.5c15.333 0 39.166 -0.333008 71.499 -1s57.166 -1 74.499 -1c8 2.66699 16.5 4.33398 25.5 5.00098
s20.167 1 33.5 1c20.667 0 36.5 -0.5 47.5 -1.5s19.167 -2.16699 24.5 -3.5z" />
    <glyph glyph-name="braceleft" unicode="{" horiz-adv-x="317" 
d="M308 -152c-12.667 -10.667 -26.833 -20.667 -42.5 -30s-35.167 -20 -58.5 -32c-53.333 22.667 -91 49.667 -113 81s-33 73.333 -33 126c0 14.667 5.5 41.667 16.5 81s16.5 64 16.5 74c0 26 -10 50.167 -30 72.5s-39 38.166 -57 47.499c29.333 16 52.666 34.667 69.999 56
s26 42 26 62c0 16 -7 42 -21 78s-21 62.333 -21 79c0 54 11.667 98.5 35 133.5s60.333 59.5 111 73.5c26 -13.333 45.833 -24 59.5 -32s27.5 -18 41.5 -30c-8.66699 -3.33301 -20.667 -9.16602 -36 -17.499l-49 -26c-17.333 -9 -28.666 -20.833 -33.999 -35.5
s-8 -42.334 -8 -83.001c0 -10 4 -35.333 12 -76s12 -68.334 12 -83.001c0 -18.667 -8 -36.5 -24 -53.5s-33 -30.833 -51 -41.5c16 -8.66699 30.5 -23.167 43.5 -43.5s19.5 -42.5 19.5 -66.5c0 -8 -1.33301 -35 -4 -81s-4 -74 -4 -84v-14
c0 -21.333 2.66699 -40.166 8 -56.499s19.333 -30.166 42 -41.499z" />
    <glyph glyph-name="bar" unicode="|" horiz-adv-x="245" 
d="M180 -174h-108v924h108v-924z" />
    <glyph glyph-name="braceright" unicode="}" horiz-adv-x="317" 
d="M316 268c-18 -9.33301 -37.001 -25.1689 -57.001 -47.502s-30 -46.5 -30 -72.5c0 -10.667 5.5 -36.334 16.5 -77.001s16.5 -66.667 16.5 -78c0 -53.333 -10.667 -95.333 -32 -126s-59.333 -57.667 -114 -81c-26 13.333 -45.833 24 -59.5 32s-27.5 18 -41.5 30
c5.33301 2 17.5 8.16699 36.5 18.5l48.5 25.5c13.333 6.66699 23 18.667 29 36s9 36 9 56v13c0 14.667 -0.833008 36.834 -2.5 66.501l-5.5 98.5c0 24.667 6.33301 46.834 19 66.501s27.334 34.167 44.001 43.5c-18 10.667 -35 24.5 -51 41.5s-24 34.833 -24 53.5
c0 14.667 4 42.334 12 83.001s12 66 12 76c0 40 -2.66699 67.667 -8 83s-17.5 27.833 -36.5 37.5l-49 25.5c-13.667 7.33301 -24.834 12.666 -33.501 15.999c12.667 10.667 26.834 20.667 42.501 30s35.167 20 58.5 32c50 -13.333 86.833 -37.666 110.5 -72.999
s35.5 -80 35.5 -134c0 -15.333 -7 -42 -21 -80s-21 -63.667 -21 -77c0 -26.667 10.5 -50 31.5 -70s42.5 -36 64.5 -48z" />
    <glyph glyph-name="asciitilde" unicode="~" horiz-adv-x="493" 
d="M466 576c-1.33301 0 -17.1699 -10.5 -47.5029 -31.5s-55.833 -31.5 -76.5 -31.5c-31.333 0 -67.666 9.66699 -108.999 29s-69.666 29 -84.999 29c-13.333 0 -24 -7 -32 -21l-18 -37c-11.333 6 -22 11 -32 15s-20.667 7.66699 -32 11v11c23.333 32 42.333 55.5 57 70.5
s34.334 22.5 59.001 22.5c17.333 0 51.5 -9.16699 102.5 -27.5s80.833 -27.5 89.5 -27.5c15.333 0 29.666 4.33301 42.999 13l45 34c2.66699 -0.666992 5.33398 -1 8.00098 -1c2 -7.33301 6.66699 -17.5 14 -30.5s12 -22.167 14 -27.5z" />
    <glyph glyph-name="nonbreakingspace" unicode="&#xa0;" horiz-adv-x="360" 
 />
    <glyph glyph-name="exclamdown" unicode="&#xa1;" horiz-adv-x="261" 
d="M214 365c0 -2.66699 -3 -4.00098 -9 -4.00098l-57.5 -7c-17 -2 -41.5 -5.66699 -73.5 -11c-8 4 -15.167 10.833 -21.5 20.5s-10.5 18.834 -12.5 27.501l-10.5 20c-3 6 -5.5 12.333 -7.5 19h5l128 14c10 0 17.667 -0.333008 23 -1c16 -28 28 -54 36 -78zM205 320.999
c0 -54 -1.66992 -111.33 -5.00293 -171.997l-10.5 -192c-3.66699 -67.333 -5.5 -123.333 -5.5 -168c-23.333 -4.66699 -46.666 -8.83398 -69.999 -12.501s-45.333 -5.5 -66 -5.5c-2 0 -3.66699 1.33301 -5 4c0 55.333 1.83301 109.666 5.5 162.999
s8.33398 109.166 14.001 167.499s11.5 115.166 17.5 170.499c17.333 6.66699 34.833 11.167 52.5 13.5s38.834 3.5 63.501 3.5l4 14c1.33301 4.66699 3 9.33398 5 14.001z" />
    <glyph glyph-name="cent" unicode="&#xa2;" horiz-adv-x="571" 
d="M556 494l-3.00195 -4c-32 -27.333 -66.667 -54.333 -104 -81c-3.33301 0 -10.333 2.16699 -21 6.5s-18.667 5.5 -24 3.5c-24 -32.667 -48.333 -71.167 -73 -115.5l-71 -128.5c-4 -6.66699 -0.333008 -13.334 11 -20.001c4.66699 -0.666992 11.667 -1 21 -1
c17.333 0 33.833 2.33301 49.5 7s35.167 12 58.5 22c17.333 6 40.833 15.833 70.5 29.5s48.834 22.167 57.501 25.5c-6 -17.333 -14.5 -37.166 -25.5 -59.499l-30.5 -63.5c-27.333 -5.33301 -70 -8.33301 -128 -9s-100.667 -3 -128 -7
c-8 -11.333 -17.333 -29.166 -28 -53.499s-19.667 -42.5 -27 -54.5c-2.66699 -2.66699 -5 -4 -7 -4h-121h-4l45 71.5l37 56.5c3.33301 4 3.33301 8.66699 0 14c-24 16.667 -42.167 37.667 -54.5 63s-18.5 52.666 -18.5 81.999c0 19.333 3 41.833 9 67.5s22.667 52.5 50 80.5
s53.333 45.667 78 53s56.5 14 95.5 20s61.167 9.66699 66.5 11c7.33301 7.33301 11 13 11 17l25 50c6 12 15 27.333 27 46c8 1.33301 19.833 2.33301 35.5 3s27.834 1 36.501 1c24 4.66699 48 7 72 7l-72 -107c-2.66699 -4 -2.66699 -6.83301 0 -8.5
s5.66699 -3.16699 9 -4.5l39.5 -6.5c13.667 -2.33301 25.5 -5.5 35.5 -9.5zM294.998 444l-2.99902 3.99902c-10.667 0 -20.334 -2.16699 -29.001 -6.5s-22.167 -13 -40.5 -26s-33.5 -32 -45.5 -57s-18 -51.833 -18 -80.5c0 -15.333 1.33301 -28.666 4 -39.999
c5.33301 -6 9.33301 -7.66699 12 -5c42.667 64.667 82.667 135 120 211z" />
    <glyph glyph-name="sterling" unicode="&#xa3;" horiz-adv-x="671" 
d="M653 103c-12.667 -15.333 -25.501 -32.668 -38.501 -52.001s-27.833 -43 -44.5 -71c-3.33301 -2.66699 -6 -4 -8 -4c-50.667 6.66699 -100.667 12 -150 16s-99.333 6 -150 6c-35.333 0 -68.166 -1 -98.499 -3s-62.166 -5.66699 -95.499 -11
c-2.66699 0 -3.66699 1.33301 -3 4s1.66699 4.33398 3 5.00098c38 56.667 57 120 57 190v18c-1.33301 8.66699 -2 15 -2 19l-2 6c-4 0.666992 -10 1 -18 1c-9.33301 0 -18.666 -0.333008 -27.999 -1l-28 -2c-5.33301 0 -12.666 0.666992 -21.999 2
c2 10.667 7.16699 25.667 15.5 45s13.5 32.333 15.5 39c8 2 17.833 3.33301 29.5 4s23.5 1 35.5 1c5.33301 4 8 7 8 9c0 64.667 10.5 121.667 31.5 171s54.5 83.333 100.5 102s93.333 28 142 28c23.333 0 47.333 -2.66699 72 -8c4.66699 0 12.667 1.33301 24 4
s19.666 4 24.999 4c4.66699 0 11.5 0.5 20.5 1.5s13.833 1.5 14.5 1.5c14.667 0 24.667 -5.66699 30 -17c4.66699 -16.667 9.5 -36.167 14.5 -58.5s9.83301 -46.166 14.5 -71.499h-8l-78 55c-32 20.667 -60.333 31 -85 31c-18.667 0 -37.334 -5.33301 -56.001 -16
c-40.667 -18 -68.834 -46.167 -84.501 -84.5s-23.5 -83.166 -23.5 -134.499c0 -11.333 3 -17 9 -17c20 -2 46.5 -3.33301 79.5 -4s63.5 -1 91.5 -1c-2 -14.667 -5.5 -27.834 -10.5 -39.501s-11.5 -25.167 -19.5 -40.5c-2 0 -3 -1.33301 -3 -4
c-17.333 0 -33.666 0.333008 -48.999 1l-45 2c-8 0 -18.167 -0.5 -30.5 -1.5s-18.833 -1.5 -19.5 -1.5c-5.33301 0 -8 -3.33301 -8 -10c0 -22 -3.33301 -43.333 -10 -64s-16.334 -43.334 -29.001 -68.001c0 -6.66699 4.66699 -10 14 -10c70 0 136.333 3 199 9
s129.667 15 201 27v-7z" />
    <glyph glyph-name="currency" unicode="&#xa4;" horiz-adv-x="556" 
d="M526 46l-38 -38l-56 55c-43.333 -36.667 -94.666 -55 -153.999 -55s-110.666 18.333 -153.999 55l-56 -55l-38 38l54 54c-18 20.667 -31.5 44.5 -40.5 71.5s-13.5 55.167 -13.5 84.5c0 30 4.16699 58 12.5 84s22.166 50 41.499 72l-54 54l38 38l56 -55
c43.333 36.667 94.666 55 153.999 55s110.666 -18.333 153.999 -55l56 55l38 -38l-54 -54c18 -20.667 31.5 -44.5 40.5 -71.5s13.5 -55.167 13.5 -84.5c0 -30 -4.16699 -58 -12.5 -84s-22.166 -50 -41.499 -72zM470 256c0 54 -18.5 100.5 -55.5 139.5
s-82.5 58.5 -136.5 58.5c-53.333 0 -98.666 -19.667 -135.999 -59s-56 -85.666 -56 -138.999c0 -54 18.5 -100.5 55.5 -139.5s82.5 -58.5 136.5 -58.5c53.333 0 98.666 19.667 135.999 59s56 85.666 56 138.999z" />
    <glyph glyph-name="yen" unicode="&#xa5;" horiz-adv-x="623" 
d="M617 632c0 -1.33301 -0.50293 -3.33301 -1.50293 -6s-1.5 -5.33398 -1.5 -8.00098c-20.667 -28.667 -43 -63.5 -67 -104.5s-45.333 -79.833 -64 -116.5c18 0 32.5 0.333008 43.5 1s20.5 1.66699 28.5 3c2 0 3 -1.33301 3 -4s-1 -4 -3 -4
c-1.33301 -6.66699 -2.83301 -18.5 -4.5 -35.5l-5.5 -55.5c-4 0 -6.5 -0.333008 -7.5 -1s-1.5 -1.33398 -1.5 -2.00098c-10 0 -27.167 1.16699 -51.5 3.5s-39.833 3.5 -46.5 3.5l-43 -93c22 0 51.667 0.833008 89 2.5s60 2.5 68 2.5v-6
c-4 -14.667 -7.16699 -27.667 -9.5 -39s-5.5 -29.333 -9.5 -54c-40.667 5.33301 -91 8 -151 8l3 -64c3.33301 -8 5.33301 -17 6 -27s1 -21 1 -33c-25.333 -2 -50.666 -3 -75.999 -3h-11h-34.5c-11.667 0 -23.167 0.333008 -34.5 1h-9l-4 4c0 13.333 1 33.666 3 60.999
s3 47.333 3 60c-42.667 0 -76.5 -0.333008 -101.5 -1s-47.833 -2 -68.5 -4c-2 0 -3 1.33301 -3 4s1 4 3 4c4 12 7 27 9 45l5 44c4 0 6.33301 0.333008 7 1l2 2c20 0 40 -0.666992 60 -2s44 -2.66602 72 -3.99902l-39 92l-123 -3v6
c6.66699 18.667 10.834 33.834 12.501 45.501s2.5 26.834 2.5 45.501l63 -1l-56.5 106c-14.333 26 -34.166 59.333 -59.499 100c0 3.33301 -2.66699 7.5 -8 12.5s-6.66602 9.5 -3.99902 13.5h166c7.33301 -14.667 27.666 -58.167 60.999 -130.5l81 -173.5l15 -1l79 153.5
c35.333 70.333 60 120.833 74 151.5h139z" />
    <glyph glyph-name="brokenbar" unicode="&#xa6;" 
 />
    <glyph glyph-name="section" unicode="&#xa7;" horiz-adv-x="639" 
d="M566 324c0 -42.667 -15.501 -77.166 -46.501 -103.499s-72.833 -51.833 -125.5 -76.5v-1c38 -4 71.833 -15.333 101.5 -34s44.5 -44.334 44.5 -77.001c0 -52 -26.5 -93.5 -79.5 -124.5s-112.167 -46.5 -177.5 -46.5c-48 0 -89.5 8.5 -124.5 25.5s-52.5 46.167 -52.5 87.5
c0 14.667 3.16699 24.334 9.5 29.001s14.166 7 23.499 7c8.66699 -0.666992 14 -1 16 -1c12 0 26.333 -0.166992 43 -0.5s25 -2.5 25 -6.5v-36c0 -29.333 4.16699 -48.5 12.5 -57.5s30.166 -13.5 65.499 -13.5c25.333 0 50.5 8.83301 75.5 26.5s37.5 36.834 37.5 57.501
c0 32 -10.5 60 -31.5 84s-48.833 36 -83.5 36c-57.333 0 -108.833 13.667 -154.5 41s-68.5 67.666 -68.5 120.999c0 56 20.833 95.5 62.5 118.5s82.167 34.5 121.5 34.5c6 -0.666992 10 -1 12 -1c-39.333 16 -72.333 34.667 -99 56s-40 51.666 -40 90.999
c0 48.667 24 87.167 72 115.5s106.667 42.5 176 42.5c40 0 74.333 -12.5 103 -37.5s43 -53.833 43 -86.5c0 -8.66699 -6.5 -14.834 -19.5 -18.501s-28.833 -5.5 -47.5 -5.5c-7.33301 0 -16.666 0.333008 -27.999 1s-17.666 1 -18.999 1
c-3.33301 16.667 -7.16602 37.5 -11.499 62.5s-21.5 37.5 -51.5 37.5c-28.667 0 -54 -9.66699 -76 -29s-33 -39.666 -33 -60.999c0 -28.667 27 -54.167 81 -76.5l159 -65.5c56.667 -31.333 85 -70 85 -116zM436.999 282.001c0 32.667 -13.833 59.167 -41.5 79.5
s-60.167 30.5 -97.5 30.5c-32.667 0 -58.167 -11.333 -76.5 -34s-27.5 -48 -27.5 -76c0 -34.667 12.333 -61 37 -79s51 -27 79 -27c84.667 0 127 35.333 127 106z" />
    <glyph glyph-name="dieresis" unicode="&#xa8;" horiz-adv-x="496" 
d="M454 788c-14 -14 -33.834 -31.332 -59.501 -51.999s-41.167 -33.334 -46.5 -38.001c-13.333 4.66699 -27.166 11.667 -41.499 21l-41.5 28c-2 2.66699 -0.833008 5.83398 3.5 9.50098s10 9.16699 17 16.5l28 29.5c11.667 12.333 25.167 25.833 40.5 40.5
c11.333 -4 24.333 -9.83301 39 -17.5l33 -17.5c2 -2.66699 6.66699 -5.33398 14 -8.00098s12 -6.66699 14 -12zM228.999 788.001c-14 -14 -33.834 -31.332 -59.501 -51.999s-41.167 -33.334 -46.5 -38.001c-13.333 4.66699 -27.166 11.667 -41.499 21l-41.5 28
c-2 2.66699 -0.833008 5.83398 3.5 9.50098s10 9.16699 17 16.5l28 29.5c11.667 12.333 25.167 25.833 40.5 40.5c11.333 -4 24.333 -9.83301 39 -17.5l33 -17.5c2 -2.66699 6.66699 -5.33398 14 -8.00098s12 -6.66699 14 -12z" />
    <glyph glyph-name="copyright" unicode="&#xa9;" horiz-adv-x="833" 
d="M783 351c0 -102 -35.667 -188.667 -107 -260s-158 -107 -260 -107c-101.333 0 -187.833 35.833 -259.5 107.5s-107.5 158.167 -107.5 259.5s35.833 187.833 107.5 259.5s158.167 107.5 259.5 107.5c102 0 188.667 -35.667 260 -107s107 -158 107 -260zM733 351
c0 89.333 -31.167 165.833 -93.5 229.5s-136.833 95.5 -223.5 95.5c-86 0 -160.167 -31.833 -222.5 -95.5s-93.5 -140.167 -93.5 -229.5s31.333 -166 94 -230s136.667 -96 222 -96c86 0 160.333 32 223 96s94 140.667 94 230zM611 491
c0 -2.66699 -2.33398 -4.99902 -7.00098 -6.99902l-68 -32h-6c-32.667 39.333 -71 59 -115 59c-26 -4.66699 -49.167 -16.5 -69.5 -35.5s-34.333 -40.333 -42 -64s-11.5 -46.167 -11.5 -67.5c0 -22.667 3.5 -44 10.5 -64s17.333 -36.833 31 -50.5s27 -23.667 40 -30
s26.833 -9.5 41.5 -9.5c8.66699 0 28.667 4.33301 60 13s70 28 116 58c-4.66699 -32.667 -12.667 -64.667 -24 -96l-4 -3c-15.333 -2.66699 -33.333 -4.33398 -54 -5.00098s-43.667 -1 -69 -1h-41c-12 -1.33301 -21 -2 -27 -2c-30 0 -56.5 5.66699 -79.5 17
s-42.667 31.5 -59 60.5s-24.5 63.5 -24.5 103.5c0 48 11.333 90 34 126c20 27.333 43.667 48 71 62s57.333 21 90 21l40 4.5c14.667 1.66699 26 2.5 34 2.5c6 0 16.333 -0.833008 31 -2.5s35.334 -10.667 62.001 -27s40 -26.5 40 -30.5z" />
    <glyph glyph-name="ordfeminine" unicode="&#xaa;" horiz-adv-x="339" 
d="M319 621c-14 -56 -20.998 -108.999 -20.998 -158.999c0 -12.667 0.5 -26.5 1.5 -41.5s2.83301 -32.5 5.5 -52.5l-3 -4l-72 1c-2 4 -3.5 6.83301 -4.5 8.5s-2.16699 2.5 -3.5 2.5c-10 -4.66699 -21.833 -7.33398 -35.5 -8.00098s-23.834 -1 -30.501 -1
c-11.333 -4 -23.333 -6 -36 -6c-14.667 0 -28.167 3.16699 -40.5 9.5s-23.666 18.5 -33.999 36.5s-15.5 42.667 -15.5 74c0 21.333 3.66699 41.333 11 60c7.33301 24 20.833 43.667 40.5 59s41.167 24.333 64.5 27c3.33301 -0.666992 8.66602 -1 15.999 -1
c6 0 16.5 0.666992 31.5 2s23.167 2 24.5 2c10.667 0 18.167 -0.5 22.5 -1.5s9.66602 -3 15.999 -6s11.833 -4.5 16.5 -4.5c5.33301 0 12.833 1.5 22.5 4.5s16.5 5.16699 20.5 6.5c3.33301 0 4.33301 -2.66699 3 -8zM238.002 542.001c-2 10.667 -10.0029 21.333 -24.0029 32
s-27.667 16 -41 16c-11.333 -5.33301 -22.166 -12.833 -32.499 -22.5s-18.666 -21.834 -24.999 -36.501s-9.5 -32 -9.5 -52c0 -18.667 3.66699 -34 11 -46c9.33301 -18.667 21 -28 35 -28c3.33301 0 8.83301 1.5 16.5 4.5s17.834 11.5 30.501 25.5s21 27.167 25 39.5
l10.5 31.5c3 8.66699 4.5 17.334 4.5 26.001c0 4.66699 -0.333008 8 -1 10z" />
    <glyph glyph-name="guillemotleft" unicode="&#xab;" 
 />
    <glyph glyph-name="logicalnot" unicode="&#xac;" 
 />
    <glyph glyph-name="registered" unicode="&#xae;" horiz-adv-x="833" 
d="M783 351c0 -102 -35.667 -188.667 -107 -260s-158 -107 -260 -107c-101.333 0 -187.833 35.833 -259.5 107.5s-107.5 158.167 -107.5 259.5s35.833 187.833 107.5 259.5s158.167 107.5 259.5 107.5c102 0 188.667 -35.667 260 -107s107 -158 107 -260zM733 351
c0 89.333 -31.167 165.833 -93.5 229.5s-136.833 95.5 -223.5 95.5c-86 0 -160.167 -31.833 -222.5 -95.5s-93.5 -140.167 -93.5 -229.5s31.333 -166 94 -230s136.667 -96 222 -96c86 0 160.333 32 223 96s94 140.667 94 230zM633 173
c-6.66699 -2.66699 -16.334 -4.66504 -29.001 -5.99805s-24 -2 -34 -2h-39c-21.333 2.66699 -41.166 20 -59.499 52s-29.166 50 -32.499 54c-10 18 -22.5 32.667 -37.5 44s-31.833 16 -50.5 14c-6.66699 -1.33301 -10 -6 -10 -14v-15c0 -47.333 3.33301 -92 10 -134l-3 -2
h-101l-3 2c5.33301 19.333 9 42.666 11 69.999s3 53.666 3 78.999c0 14.667 -0.333008 37 -1 67s-1 52.333 -1 67c0 26.667 -1.5 46.334 -4.5 59.001s-8.16699 23.667 -15.5 33v4c17.333 0 35 -0.166992 53 -0.5s36.333 -0.5 55 -0.5h14c24.667 0 42 0.5 52 1.5
s23.333 3.16699 40 6.5c13.333 0 28.833 -2 46.5 -6s28.834 -7.66699 33.501 -11c5.33301 -7.33301 10.666 -12.666 15.999 -15.999c11.333 -14.667 17 -33.334 17 -56.001c0 -16 -2.66699 -29 -8 -39c-5.33301 -14.667 -14.166 -27.834 -26.499 -39.501
s-27.5 -23.167 -45.5 -34.5c0.666992 -3.33301 4.66699 -8.33301 12 -15s22.666 -28 45.999 -64s38.166 -57.167 44.499 -63.5s12 -11 17 -14s15.167 -8.5 30.5 -16.5v-4zM462 483.002c-10.667 20.667 -29.333 31.002 -56 31.002c-12.667 0 -24.5 -3.83301 -35.5 -11.5
s-18.833 -17.834 -23.5 -30.501s-7 -28.334 -7 -47.001c0 -6.66699 0.333008 -16.667 1 -30s1 -22.666 1 -27.999l2 -5c9.33301 -1.33301 16.333 -2 21 -2c36.667 0 65.667 13.667 87 41c10.667 16 16 34 16 54c0 9.33301 -2 18.666 -6 27.999z" />
    <glyph glyph-name="macron" unicode="&#xaf;" horiz-adv-x="521" 
d="M475 840l-58.999 -87.001c-3.33301 0 -6.33301 -1.33301 -9 -4c-30.667 3.33301 -56.5 5.33301 -77.5 6s-48.167 1 -81.5 1c-32 0 -74 -0.5 -126 -1.5s-80.667 -1.5 -86 -1.5c-1.33301 0.666992 -1.33301 3 0 7l31 43.5c15.333 21.667 27 37.5 35 47.5
c22 -3.33301 47.167 -5.66602 75.5 -6.99902s57.166 -2 86.499 -2c40.667 0 80.5 0.833008 119.5 2.5s69.5 3.16699 91.5 4.5v-9z" />
    <glyph glyph-name="macron" unicode="&#x2c9;" horiz-adv-x="521" 
d="M475 840l-58.999 -87.001c-3.33301 0 -6.33301 -1.33301 -9 -4c-30.667 3.33301 -56.5 5.33301 -77.5 6s-48.167 1 -81.5 1c-32 0 -74 -0.5 -126 -1.5s-80.667 -1.5 -86 -1.5c-1.33301 0.666992 -1.33301 3 0 7l31 43.5c15.333 21.667 27 37.5 35 47.5
c22 -3.33301 47.167 -5.66602 75.5 -6.99902s57.166 -2 86.499 -2c40.667 0 80.5 0.833008 119.5 2.5s69.5 3.16699 91.5 4.5v-9z" />
    <glyph glyph-name="degree" unicode="&#xb0;" 
 />
    <glyph glyph-name="plusminus" unicode="&#xb1;" 
 />
    <glyph glyph-name="twosuperior" unicode="&#xb2;" 
 />
    <glyph glyph-name="threesuperior" unicode="&#xb3;" 
 />
    <glyph glyph-name="acute" unicode="&#xb4;" horiz-adv-x="275" 
d="M289 777c-46.667 -18.667 -82.668 -33.833 -108.001 -45.5s-49 -25.834 -71 -42.501c-9.33301 2 -21.333 7 -36 15s-24 12.667 -28 14c-1.33301 1.33301 -1.33301 3.33301 0 6c12.667 18 35.834 38.333 69.501 61s65.834 42.334 96.501 59.001
c17.333 -5.33301 32.166 -11.5 44.499 -18.5s21 -13 26 -18s7.5 -11.5 7.5 -19.5c0 -5.33301 -0.333008 -9 -1 -11z" />
    <glyph glyph-name="mu" unicode="&#xb5;" horiz-adv-x="655" 
d="M606 383c14 -26 21.001 -55.3311 21.001 -87.998c0 -33.333 -6.5 -65.666 -19.5 -96.999s-31.167 -61.666 -54.5 -90.999c-72 -74.667 -159.667 -112 -263 -112l-72 34c-4 -2 -6.33301 -3.66699 -7 -5v-59c0 -48.667 1.83301 -83.667 5.5 -105s10.167 -44.333 19.5 -69
v-16c-22 0 -58.167 1.66699 -108.5 5s-84.166 5 -101.499 5c-3.33301 0 -5.83301 0.5 -7.5 1.5s-1.83398 2.5 -0.500977 4.5c17.333 23.333 28.666 39.666 33.999 48.999s8 21.333 8 36c4.66699 48.667 7 102.334 7 161.001c0 44 -1 83 -3 117s-5 74.333 -9 121
c-7.33301 48 -14.333 96.333 -21 145c16.667 0 41.667 0.333008 75 1s58.666 1 75.999 1l4 -4c0 -55.333 4.5 -105 13.5 -149s22 -78.333 39 -103s34.833 -41.334 53.5 -50.001s37.334 -13 56.001 -13c10 0 19.833 1.33301 29.5 4s18.167 7 25.5 13
c22 24 38.833 48.667 50.5 74s17.5 51.666 17.5 78.999c0 14.667 -2 29.667 -6 45c-8 21.333 -28.833 36.166 -62.5 44.499s-53.167 13.5 -58.5 15.5c50.667 22.667 84.834 37.167 102.501 43.5s40.167 11.166 67.5 14.499c12 0.666992 20.333 1 25 1
c12.667 0 23.667 -3.5 33 -10.5s19.666 -21.5 30.999 -43.5z" />
    <glyph glyph-name="paragraph" unicode="&#xb6;" 
 />
    <glyph glyph-name="periodcentered" unicode="&#xb7;" 
 />
    <glyph glyph-name="periodcentered" unicode="&#x2219;" 
 />
    <glyph glyph-name="cedilla" unicode="&#xb8;" horiz-adv-x="401" 
d="M325 -106c0 -24 -11.999 -44.167 -35.999 -60.5s-54.667 -24.5 -92 -24.5c-36 0 -76.333 11.333 -121 34c3.33301 4.66699 7 11 11 19s7 13.333 9 16c25.333 -19.333 54.333 -29 87 -29c36.667 0 55 11.667 55 35c0 9.33301 -2.5 16 -7.5 20s-14.5 6 -28.5 6
c-12.667 0 -23.5 -0.333008 -32.5 -1s-19.5 -3 -31.5 -7c6 9.33301 11.833 19.5 17.5 30.5l13.5 26.5l19 37l4 8l48 2l-10 -14l-14 -29l-3 -17c7.33301 2 13 3.33301 17 4s8.66699 1 14 1c25.333 0 45.166 -5 59.499 -15s21.5 -24 21.5 -42z" />
    <glyph glyph-name="onesuperior" unicode="&#xb9;" 
 />
    <glyph glyph-name="ordmasculine" unicode="&#xba;" horiz-adv-x="320" 
d="M289 576c8.66699 -17.333 13.002 -39.668 13.002 -67.001c0 -12.667 -1.33301 -25.167 -4 -37.5s-9 -26.666 -19 -42.999s-23.667 -28.333 -41 -36s-38.333 -15 -63 -22s-41.334 -10.5 -50.001 -10.5c-18 0 -33.833 4 -47.5 12s-24.834 20.667 -33.501 38
c-12 19.333 -18 42.666 -18 69.999c0 26.667 6 50.334 18 71.001s27 36 45 46s40 17.333 66 22c18 8 36 12 54 12c11.333 0 21.333 -1.5 30 -4.5s17 -8.16699 25 -15.5c4 -2 7.16699 -3.66699 9.5 -5s7.5 -11.333 15.5 -30zM226.002 540.998
c-6 16 -14.832 27.835 -26.499 35.502s-24.5 11.5 -38.5 11.5c-12 -4 -22 -8.83301 -30 -14.5s-16 -15.5 -24 -29.5s-12 -32 -12 -54c0 -15.333 2.66699 -29.333 8 -42s13.666 -23.5 24.999 -32.5s24 -13.5 38 -13.5c8 -0.666992 15.167 1.66602 21.5 6.99902
s15.333 15.166 27 29.499s17.5 35.833 17.5 64.5c0 13.333 -2 26 -6 38z" />
    <glyph glyph-name="guillemotright" unicode="&#xbb;" 
 />
    <glyph glyph-name="onequarter" unicode="&#xbc;" 
 />
    <glyph glyph-name="onehalf" unicode="&#xbd;" 
 />
    <glyph glyph-name="threequarters" unicode="&#xbe;" 
 />
    <glyph glyph-name="questiondown" unicode="&#xbf;" horiz-adv-x="400" 
d="M372 389l-134.999 -80c-28 6 -58.167 13.167 -90.5 21.5s-56.5 14.833 -72.5 19.5l-3 2c32.667 32 69.667 61.667 111 89c32.667 -6.66699 63.167 -13.667 91.5 -21s61.166 -16.333 98.499 -27v-4zM353.001 -132l-4.00195 -7.00293
c-32.667 -24.667 -66.167 -44.167 -100.5 -58.5s-70.5 -21.5 -108.5 -21.5c-21.333 8.66699 -35 14.5 -41 17.5s-15.333 12.167 -28 27.5s-19 35.666 -19 60.999c0 10.667 2.66699 22.334 8 35.001s15.5 27.167 30.5 43.5l43.5 46.5l9 4l31 51c10.667 18 16 34.333 16 49
c0 13.333 -3.66699 26 -11 38c-10 12 -25 18 -45 18l-17 -2c-11.333 -1.33301 -23.166 -5.16602 -35.499 -11.499l-35.5 -18.5c-2.66699 8.66699 -4 20 -4 34v15c1.33301 6.66699 2 11.334 2 14.001c46 30 83.833 50.667 113.5 62s56.834 17 81.501 17
c32.667 0 62 -9.33301 88 -28c6 -6 11.333 -12.167 16 -18.5s8 -13.166 10 -20.499c0 -31.333 -8.16699 -60 -24.5 -86s-29.666 -45.833 -39.999 -59.5l-43 -55c-18.333 -23 -27.5 -44.5 -27.5 -64.5c0 -9.33301 2 -19 6 -29c10 -9.33301 22.333 -14 37 -14
c10 0 22 2.5 36 7.5s27.333 9.5 40 13.5c4.66699 -6.66699 8.16699 -17.5 10.5 -32.5s4.16602 -24.167 5.49902 -27.5z" />
    <glyph glyph-name="Agrave" unicode="&#xc0;" horiz-adv-x="645" 
d="M642 -4l-3.99707 -2.99512c-32 0 -63 0.333008 -93 1l-90 2c-5.33301 10.667 -10.666 29.5 -15.999 56.5s-10.333 46.167 -15 57.5c-10 35.333 -16 55.666 -18 60.999s-7.33301 12.333 -16 21c-12.667 2 -29.667 3.33301 -51 4s-33.333 1 -36 1
c-16.667 0 -33.334 -0.166992 -50.001 -0.5s-33 -0.5 -49 -0.5c-6.66699 0 -11.834 -3 -15.501 -9s-9.66699 -23.667 -18 -53l-36.5 -128c0 -2 -1.33301 -3.66699 -4 -5h-121c-1.33301 2 -2 3.33301 -2 4s-0.666992 1 -2 1c43.333 95.333 82.5 187.166 117.5 275.499
s69.167 181.5 102.5 279.5c2 11.333 -1.33301 24 -10 38s-14 23.667 -16 29c0 1.33301 0.833008 2.16602 2.5 2.49902s2.5 1.16602 2.5 2.49902c33.333 0 66.666 -0.666992 99.999 -2s61.666 -2.33301 84.999 -3c4 0 6.33301 -0.333008 7 -1s9.16699 -32.5 25.5 -95.5
s43.333 -144.833 81 -245.5s84.167 -197.334 139.5 -290.001zM364.003 287.005c-4.66699 18 -8.99902 32.833 -12.999 44.5s-12.5 35 -25.5 70s-20.167 52.833 -21.5 53.5c-0.666992 -2 -2.33398 -3 -5.00098 -3c-9.33301 -16.667 -17.5 -33.167 -24.5 -49.5
s-21.833 -54.833 -44.5 -115.5c0 -8.66699 1.33301 -13 4 -13c23.333 -4.66699 47.333 -7 72 -7c16 0 32.667 1 50 3c4 2 6.83301 4.83301 8.5 8.5s1.5 6.5 -0.5 8.5zM419.004 718.005l-64.001 -29c-19.333 14.667 -44.666 29.334 -75.999 44.001
s-65.666 29.334 -102.999 44.001c-0.666992 2.66699 -1 6.66699 -1 12c0 7.33301 2.66699 13.666 8 18.999s13.666 11.166 24.999 17.499s26.333 12.5 45 18.5c41.333 -22.667 77 -45 107 -67s49.667 -39.667 59 -53c1.33301 -2.66699 1.33301 -4.66699 0 -6z" />
    <glyph glyph-name="Aacute" unicode="&#xc1;" horiz-adv-x="645" 
d="M642 -4l-3.99707 -2.99512c-32 0 -63 0.333008 -93 1l-90 2c-5.33301 10.667 -10.666 29.5 -15.999 56.5s-10.333 46.167 -15 57.5c-10 35.333 -16 55.666 -18 60.999s-7.33301 12.333 -16 21c-12.667 2 -29.667 3.33301 -51 4s-33.333 1 -36 1
c-16.667 0 -33.334 -0.166992 -50.001 -0.5s-33 -0.5 -49 -0.5c-6.66699 0 -11.834 -3 -15.501 -9s-9.66699 -23.667 -18 -53l-36.5 -128c0 -2 -1.33301 -3.66699 -4 -5h-121c-1.33301 2 -2 3.33301 -2 4s-0.666992 1 -2 1c43.333 95.333 82.5 187.166 117.5 275.499
s69.167 181.5 102.5 279.5c2 11.333 -1.33301 24 -10 38s-14 23.667 -16 29c0 1.33301 0.833008 2.16602 2.5 2.49902s2.5 1.16602 2.5 2.49902c33.333 0 66.666 -0.666992 99.999 -2s61.666 -2.33301 84.999 -3c4 0 6.33301 -0.333008 7 -1s9.16699 -32.5 25.5 -95.5
s43.333 -144.833 81 -245.5s84.167 -197.334 139.5 -290.001zM364.003 287.005c-4.66699 18 -8.99902 32.833 -12.999 44.5s-12.5 35 -25.5 70s-20.167 52.833 -21.5 53.5c-0.666992 -2 -2.33398 -3 -5.00098 -3c-9.33301 -16.667 -17.5 -33.167 -24.5 -49.5
s-21.833 -54.833 -44.5 -115.5c0 -8.66699 1.33301 -13 4 -13c23.333 -4.66699 47.333 -7 72 -7c16 0 32.667 1 50 3c4 2 6.83301 4.83301 8.5 8.5s1.5 6.5 -0.5 8.5zM433.004 777.005c-46.667 -18.667 -82.668 -33.833 -108.001 -45.5s-49 -25.834 -71 -42.501
c-9.33301 2 -21.333 7 -36 15s-24 12.667 -28 14c-1.33301 1.33301 -1.33301 3.33301 0 6c12.667 18 35.834 38.333 69.501 61s65.834 42.334 96.501 59.001c17.333 -5.33301 32.166 -11.5 44.499 -18.5s21 -13 26 -18s7.5 -11.5 7.5 -19.5c0 -5.33301 -0.333008 -9 -1 -11z
" />
    <glyph glyph-name="Acircumflex" unicode="&#xc2;" horiz-adv-x="645" 
d="M642 -4l-3.99707 -2.99512c-32 0 -63 0.333008 -93 1l-90 2c-5.33301 10.667 -10.666 29.5 -15.999 56.5s-10.333 46.167 -15 57.5c-10 35.333 -16 55.666 -18 60.999s-7.33301 12.333 -16 21c-12.667 2 -29.667 3.33301 -51 4s-33.333 1 -36 1
c-16.667 0 -33.334 -0.166992 -50.001 -0.5s-33 -0.5 -49 -0.5c-6.66699 0 -11.834 -3 -15.501 -9s-9.66699 -23.667 -18 -53l-36.5 -128c0 -2 -1.33301 -3.66699 -4 -5h-121c-1.33301 2 -2 3.33301 -2 4s-0.666992 1 -2 1c43.333 95.333 82.5 187.166 117.5 275.499
s69.167 181.5 102.5 279.5c2 11.333 -1.33301 24 -10 38s-14 23.667 -16 29c0 1.33301 0.833008 2.16602 2.5 2.49902s2.5 1.16602 2.5 2.49902c33.333 0 66.666 -0.666992 99.999 -2s61.666 -2.33301 84.999 -3c4 0 6.33301 -0.333008 7 -1s9.16699 -32.5 25.5 -95.5
s43.333 -144.833 81 -245.5s84.167 -197.334 139.5 -290.001zM364.003 287.005c-4.66699 18 -8.99902 32.833 -12.999 44.5s-12.5 35 -25.5 70s-20.167 52.833 -21.5 53.5c-0.666992 -2 -2.33398 -3 -5.00098 -3c-9.33301 -16.667 -17.5 -33.167 -24.5 -49.5
s-21.833 -54.833 -44.5 -115.5c0 -8.66699 1.33301 -13 4 -13c23.333 -4.66699 47.333 -7 72 -7c16 0 32.667 1 50 3c4 2 6.83301 4.83301 8.5 8.5s1.5 6.5 -0.5 8.5zM476.004 718.005l-63.9971 -26.001c-12.667 9.33301 -28.334 19.333 -47.001 30
s-38.334 20.334 -59.001 29.001c-23.333 -10.667 -43 -20.334 -59 -29.001s-31.667 -18.667 -47 -30c-10 2 -22.5 6.66699 -37.5 14s-23.833 11.333 -26.5 12v11c10.667 14.667 39.334 37.334 86.001 68.001s74.667 46 84 46s37.166 -15 83.499 -45s75.166 -53 86.499 -69
v-11z" />
    <glyph glyph-name="Atilde" unicode="&#xc3;" horiz-adv-x="645" 
d="M642 -4l-3.99707 -2.99512c-32 0 -63 0.333008 -93 1l-90 2c-5.33301 10.667 -10.666 29.5 -15.999 56.5s-10.333 46.167 -15 57.5c-10 35.333 -16 55.666 -18 60.999s-7.33301 12.333 -16 21c-12.667 2 -29.667 3.33301 -51 4s-33.333 1 -36 1
c-16.667 0 -33.334 -0.166992 -50.001 -0.5s-33 -0.5 -49 -0.5c-6.66699 0 -11.834 -3 -15.501 -9s-9.66699 -23.667 -18 -53l-36.5 -128c0 -2 -1.33301 -3.66699 -4 -5h-121c-1.33301 2 -2 3.33301 -2 4s-0.666992 1 -2 1c43.333 95.333 82.5 187.166 117.5 275.499
s69.167 181.5 102.5 279.5c2 11.333 -1.33301 24 -10 38s-14 23.667 -16 29c0 1.33301 0.833008 2.16602 2.5 2.49902s2.5 1.16602 2.5 2.49902c33.333 0 66.666 -0.666992 99.999 -2s61.666 -2.33301 84.999 -3c4 0 6.33301 -0.333008 7 -1s9.16699 -32.5 25.5 -95.5
s43.333 -144.833 81 -245.5s84.167 -197.334 139.5 -290.001zM364.003 287.005c-4.66699 18 -8.99902 32.833 -12.999 44.5s-12.5 35 -25.5 70s-20.167 52.833 -21.5 53.5c-0.666992 -2 -2.33398 -3 -5.00098 -3c-9.33301 -16.667 -17.5 -33.167 -24.5 -49.5
s-21.833 -54.833 -44.5 -115.5c0 -8.66699 1.33301 -13 4 -13c23.333 -4.66699 47.333 -7 72 -7c16 0 32.667 1 50 3c4 2 6.83301 4.83301 8.5 8.5s1.5 6.5 -0.5 8.5zM478.004 750.005c-16 -12.667 -31.6699 -23.832 -47.0029 -33.499s-31 -14.5 -47 -14.5
c-9.33301 0 -32.166 7.16699 -68.499 21.5s-62.166 21.5 -77.499 21.5c-9.33301 0 -18 -4.83301 -26 -14.5l-24 -28.5c-11.333 6 -22 11 -32 15s-20.667 7.66699 -32 11v11c12.667 17.333 31.167 34.666 55.5 51.999s44.5 26 60.5 26s37.167 -4.33301 63.5 -13l80.5 -27
c12 0 23.5 5 34.5 15s18.833 15.667 23.5 17c2.66699 -0.666992 5.33398 -1 8.00098 -1c2 -7.33301 6.66699 -17.5 14 -30.5s12 -22.167 14 -27.5z" />
    <glyph glyph-name="Adieresis" unicode="&#xc4;" horiz-adv-x="645" 
d="M642 -4l-3.99707 -2.99512c-32 0 -63 0.333008 -93 1l-90 2c-5.33301 10.667 -10.666 29.5 -15.999 56.5s-10.333 46.167 -15 57.5c-10 35.333 -16 55.666 -18 60.999s-7.33301 12.333 -16 21c-12.667 2 -29.667 3.33301 -51 4s-33.333 1 -36 1
c-16.667 0 -33.334 -0.166992 -50.001 -0.5s-33 -0.5 -49 -0.5c-6.66699 0 -11.834 -3 -15.501 -9s-9.66699 -23.667 -18 -53l-36.5 -128c0 -2 -1.33301 -3.66699 -4 -5h-121c-1.33301 2 -2 3.33301 -2 4s-0.666992 1 -2 1c43.333 95.333 82.5 187.166 117.5 275.499
s69.167 181.5 102.5 279.5c2 11.333 -1.33301 24 -10 38s-14 23.667 -16 29c0 1.33301 0.833008 2.16602 2.5 2.49902s2.5 1.16602 2.5 2.49902c33.333 0 66.666 -0.666992 99.999 -2s61.666 -2.33301 84.999 -3c4 0 6.33301 -0.333008 7 -1s9.16699 -32.5 25.5 -95.5
s43.333 -144.833 81 -245.5s84.167 -197.334 139.5 -290.001zM364.003 287.005c-4.66699 18 -8.99902 32.833 -12.999 44.5s-12.5 35 -25.5 70s-20.167 52.833 -21.5 53.5c-0.666992 -2 -2.33398 -3 -5.00098 -3c-9.33301 -16.667 -17.5 -33.167 -24.5 -49.5
s-21.833 -54.833 -44.5 -115.5c0 -8.66699 1.33301 -13 4 -13c23.333 -4.66699 47.333 -7 72 -7c16 0 32.667 1 50 3c4 2 6.83301 4.83301 8.5 8.5s1.5 6.5 -0.5 8.5zM544.004 788.005c-14 -14 -33.834 -31.332 -59.501 -51.999s-41.167 -33.334 -46.5 -38.001
c-13.333 4.66699 -27.166 11.667 -41.499 21l-41.5 28c-2 2.66699 -0.833008 5.83398 3.5 9.50098s10 9.16699 17 16.5l28 29.5c11.667 12.333 25.167 25.833 40.5 40.5c11.333 -4 24.333 -9.83301 39 -17.5l33 -17.5c2 -2.66699 6.66699 -5.33398 14 -8.00098
s12 -6.66699 14 -12zM319.003 788.006c-14 -14 -33.834 -31.332 -59.501 -51.999s-41.167 -33.334 -46.5 -38.001c-13.333 4.66699 -27.166 11.667 -41.499 21l-41.5 28c-2 2.66699 -0.833008 5.83398 3.5 9.50098s10 9.16699 17 16.5l28 29.5
c11.667 12.333 25.167 25.833 40.5 40.5c11.333 -4 24.333 -9.83301 39 -17.5l33 -17.5c2 -2.66699 6.66699 -5.33398 14 -8.00098s12 -6.66699 14 -12z" />
    <glyph glyph-name="Aring" unicode="&#xc5;" horiz-adv-x="645" 
d="M642 -4l-3.99707 -2.99512c-32 0 -63 0.333008 -93 1l-90 2c-5.33301 10.667 -10.666 29.5 -15.999 56.5s-10.333 46.167 -15 57.5c-10 35.333 -16 55.666 -18 60.999s-7.33301 12.333 -16 21c-12.667 2 -29.667 3.33301 -51 4s-33.333 1 -36 1
c-16.667 0 -33.334 -0.166992 -50.001 -0.5s-33 -0.5 -49 -0.5c-6.66699 0 -11.834 -3 -15.501 -9s-9.66699 -23.667 -18 -53l-36.5 -128c0 -2 -1.33301 -3.66699 -4 -5h-121c-1.33301 2 -2 3.33301 -2 4s-0.666992 1 -2 1c43.333 95.333 82.5 187.166 117.5 275.499
s69.167 181.5 102.5 279.5c2 11.333 -1.33301 24 -10 38s-14 23.667 -16 29c0 1.33301 0.833008 2.16602 2.5 2.49902s2.5 1.16602 2.5 2.49902c33.333 0 66.666 -0.666992 99.999 -2s61.666 -2.33301 84.999 -3c4 0 6.33301 -0.333008 7 -1s9.16699 -32.5 25.5 -95.5
s43.333 -144.833 81 -245.5s84.167 -197.334 139.5 -290.001zM364.003 287.005c-4.66699 18 -8.99902 32.833 -12.999 44.5s-12.5 35 -25.5 70s-20.167 52.833 -21.5 53.5c-0.666992 -2 -2.33398 -3 -5.00098 -3c-9.33301 -16.667 -17.5 -33.167 -24.5 -49.5
s-21.833 -54.833 -44.5 -115.5c0 -8.66699 1.33301 -13 4 -13c23.333 -4.66699 47.333 -7 72 -7c16 0 32.667 1 50 3c4 2 6.83301 4.83301 8.5 8.5s1.5 6.5 -0.5 8.5zM409.004 764.005c0 -28.667 -10 -53 -30 -73s-44.667 -30 -74 -30c-28.667 0 -53 10 -73 30
s-30 44.333 -30 73c0 28 10 52.333 30 73s44.333 31 73 31c29.333 0 54 -10 74 -30s30 -44.667 30 -74zM358.004 764.005c0 15.333 -4.99805 27.999 -14.998 37.999s-22.667 15 -38 15c-14.667 0 -27.334 -5 -38.001 -15s-16 -22.667 -16 -38s5.16699 -28.166 15.5 -38.499
s23.166 -15.5 38.499 -15.5s28 5 38 15s15 23 15 39z" />
    <glyph glyph-name="AE" unicode="&#xc6;" horiz-adv-x="902" 
d="M875 -5c-24 0 -61.6689 1.00195 -113.002 3.00195s-90.666 3 -117.999 3c-28 0 -63.667 -0.833008 -107 -2.5s-70.666 -2.5 -81.999 -2.5c-5.33301 10.667 -10.666 29.5 -15.999 56.5s-10.333 46.167 -15 57.5c-10 35.333 -16 55.666 -18 60.999s-7.33301 12.333 -16 21
c-12.667 2 -29.667 3.33301 -51 4s-33.333 1 -36 1c-16.667 0 -33.334 -0.166992 -50.001 -0.5s-33 -0.5 -49 -0.5c-6.66699 0 -11.834 -3 -15.501 -9s-9.66699 -23.667 -18 -53l-36.5 -128c0 -2 -1.33301 -3.66699 -4 -5h-121c-1.33301 2 -2 3.33301 -2 4s-0.666992 1 -2 1
c43.333 95.333 82.5 187.166 117.5 275.499s69.167 181.5 102.5 279.5c2 11.333 -1.33301 24 -10 38s-14 23.667 -16 29c0 1.33301 0.833008 2.16602 2.5 2.49902s2.5 1.16602 2.5 2.49902c26 0 70.167 -0.666992 132.5 -2s95.5 -2 99.5 -2c44 0 81 1.16699 111 3.5
s54.167 5.33301 72.5 9s29.5 6.16699 33.5 7.5c5.33301 0 8 -8 8 -24c0 -10 1.16699 -25.667 3.5 -47s3.5 -35.333 3.5 -42c-3.33301 -1.33301 -6.33301 -2.66602 -9 -3.99902c-26.667 0 -69.167 0.666992 -127.5 2s-89.5 2 -93.5 2c-4.66699 -4.66699 -7 -8.66699 -7 -12
c4.66699 -19.333 12.5 -43.833 23.5 -73.5l31.5 -83.5c2 -2 3.83301 -3.5 5.5 -4.5s7 -2.16699 16 -3.5s20.667 -2.33301 35 -3s30.833 -1 49.5 -1c28 0 52.833 1 74.5 3s46.834 5 75.501 9c6.66699 -17.333 12.334 -35.166 17.001 -53.499l13 -52.5l-10 -4
c-19.333 0 -51.166 1.66699 -95.499 5s-73.5 5 -87.5 5c-16.667 0 -33 -1 -49 -3c-4.66699 -4.66699 -6.66699 -7.33398 -6 -8.00098c6 -21.333 11.333 -38.5 16 -51.5s17 -41.5 37 -85.5c1.33301 -4.66699 3.83301 -9.16699 7.5 -13.5s8.16699 -6.5 13.5 -6.5
c31.333 -4 63.666 -6 96.999 -6c25.333 0 48.666 1.33301 69.999 4s41 7.33398 59 14.001c4 0 7 -1.16699 9 -3.5s4.33301 -8.5 7 -18.5c14 -30.667 25.667 -62 35 -94zM363.998 287.002c-4.66699 18 -8.99902 32.833 -12.999 44.5s-12.5 35 -25.5 70
s-20.167 52.833 -21.5 53.5c-0.666992 -2 -2.33398 -3 -5.00098 -3c-9.33301 -16.667 -17.5 -33.167 -24.5 -49.5s-21.833 -54.833 -44.5 -115.5c0 -8.66699 1.33301 -13 4 -13c23.333 -4.66699 47.333 -7 72 -7c16 0 32.667 1 50 3c4 2 6.83301 4.83301 8.5 8.5
s1.5 6.5 -0.5 8.5z" />
    <glyph glyph-name="Ccedilla" unicode="&#xc7;" horiz-adv-x="774" 
d="M766 547c0 -4 -1.33203 -7 -3.99902 -9s-5.33398 -3 -8.00098 -3l-122 -51h-12c-28 30.667 -59.667 54.5 -95 71.5s-73 25.5 -113 25.5c-46 -7.33301 -87.667 -27 -125 -59s-62.833 -67.5 -76.5 -106.5s-20.5 -76.167 -20.5 -111.5c0 -37.333 6.5 -72.666 19.5 -105.999
s32.5 -62.333 58.5 -87c21.333 -18.667 44.5 -33.5 69.5 -44.5s50.833 -16.5 77.5 -16.5c15.333 0 50.833 7 106.5 21s125.834 46 210.501 96c-8 -38.667 -16 -72 -24 -100c-8.66699 -26.667 -15 -46.667 -19 -60l-7 -4c-36 -4.66699 -71.167 -7.83398 -105.5 -9.50098
s-76.166 -2.5 -125.499 -2.5l-13 -28l-3 -17c7.33301 2 13 3.33301 17 4s8.66699 1 14 1c25.333 0 45.166 -5 59.499 -15s21.5 -24 21.5 -42c0 -24 -12 -44.167 -36 -60.5s-54.667 -24.5 -92 -24.5c-36 0 -76.333 11.333 -121 34c3.33301 4.66699 7 11 11 19s7 13.333 9 16
c25.333 -19.333 54.333 -29 87 -29c36.667 0 55 11.667 55 35c0 9.33301 -2.5 16 -7.5 20s-14.5 6 -28.5 6c-12.667 0 -23.5 -0.333008 -32.5 -1s-19.5 -3 -31.5 -7c6 9.33301 11.833 19.5 17.5 30.5l13.5 26.5l17 34l-23 1c-8.66699 -1.33301 -17.834 -2 -27.501 -2h-22.5
c-54.667 0 -103 9.33301 -145 28s-77.667 51.5 -107 98.5s-44 104.833 -44 173.5c0 37.333 5.33301 74 16 110s26 68 46 96c74 90.667 171.667 136 293 136c30 4 55.833 7.16699 77.5 9.5s41.167 3.5 58.5 3.5c13.333 0 31.5 -1.5 54.5 -4.5s59 -18.167 108 -45.5
s73.5 -44 73.5 -50z" />
    <glyph glyph-name="Egrave" unicode="&#xc8;" horiz-adv-x="514" 
d="M482 620c-4 -10 -9 -26.3369 -15 -49.0039s-9.66699 -36 -11 -40l-10 -4c-26 0 -67.833 0.666992 -125.5 2s-89.167 2 -94.5 2c-6 -4.66699 -9.66699 -8.66699 -11 -12c-1.33301 -8.66699 -2.33301 -19.167 -3 -31.5s-1 -24.5 -1 -36.5c0 -10 0.333008 -25 1 -45
s1 -34.667 1 -44c0.666992 -2 3.33398 -4 8.00098 -6c16 -2.66699 30.833 -4.33398 44.5 -5.00098s30.167 -1 49.5 -1c28 0 53.167 1 75.5 3s48.5 5 78.5 9c0 -14.667 -1.16699 -33.167 -3.5 -55.5s-4.16602 -39.166 -5.49902 -50.499
c-4 -1.33301 -7.66699 -2.66602 -11 -3.99902c-18.667 0 -49.5 1.66699 -92.5 5s-72.167 5 -87.5 5c-16 0 -32.667 -1 -50 -3c-6 -4.66699 -9 -7.33398 -9 -8.00098c-0.666992 -5.33301 -1 -11.166 -1 -17.499v-14.5c0 -11.333 0.666992 -28.666 2 -51.999s2 -41 2 -53
c0 -13.333 4.66699 -20 14 -20c30 -4 61.667 -6 95 -6c24.667 0 48.667 1.33301 72 4s44.666 7.33398 63.999 14.001c5.33301 0 8 -3.66699 8 -11v-11c1.33301 -8.66699 2 -16.834 2 -24.501v-22.5v-17c0 -6 -0.166992 -11.5 -0.5 -16.5s-0.833008 -9.5 -1.5 -13.5
c-24 0 -61.333 1 -112 3s-89.334 3 -116.001 3l-180 -2c-1.33301 2 -2.33301 3.33301 -3 4c7.33301 47.333 12.166 96 14.499 146s3.5 107.333 3.5 172v21v19v16v14v13c0 12.667 -0.166992 25.334 -0.5 38.001s-0.5 25.667 -0.5 39v11c0 25.333 -2.33301 51.5 -7 78.5
l-12 68.5l4 4c27.333 0 72.5 -1.66699 135.5 -5s105.833 -5 128.5 -5c32.667 0 58.667 0.833008 78 2.5s36.833 4 52.5 7s25.834 5.16699 30.501 6.5c2.66699 0 4 -1.66699 4 -5s-1.33301 -9.66602 -4 -18.999zM365 717.996l-64.001 -29
c-19.333 14.667 -44.666 29.334 -75.999 44.001s-65.666 29.334 -102.999 44.001c-0.666992 2.66699 -1 6.66699 -1 12c0 7.33301 2.66699 13.666 8 18.999s13.666 11.166 24.999 17.499s26.333 12.5 45 18.5c41.333 -22.667 77 -45 107 -67s49.667 -39.667 59 -53
c1.33301 -2.66699 1.33301 -4.66699 0 -6z" />
    <glyph glyph-name="Eacute" unicode="&#xc9;" horiz-adv-x="514" 
d="M482 620c-4 -10 -9 -26.3369 -15 -49.0039s-9.66699 -36 -11 -40l-10 -4c-26 0 -67.833 0.666992 -125.5 2s-89.167 2 -94.5 2c-6 -4.66699 -9.66699 -8.66699 -11 -12c-1.33301 -8.66699 -2.33301 -19.167 -3 -31.5s-1 -24.5 -1 -36.5c0 -10 0.333008 -25 1 -45
s1 -34.667 1 -44c0.666992 -2 3.33398 -4 8.00098 -6c16 -2.66699 30.833 -4.33398 44.5 -5.00098s30.167 -1 49.5 -1c28 0 53.167 1 75.5 3s48.5 5 78.5 9c0 -14.667 -1.16699 -33.167 -3.5 -55.5s-4.16602 -39.166 -5.49902 -50.499
c-4 -1.33301 -7.66699 -2.66602 -11 -3.99902c-18.667 0 -49.5 1.66699 -92.5 5s-72.167 5 -87.5 5c-16 0 -32.667 -1 -50 -3c-6 -4.66699 -9 -7.33398 -9 -8.00098c-0.666992 -5.33301 -1 -11.166 -1 -17.499v-14.5c0 -11.333 0.666992 -28.666 2 -51.999s2 -41 2 -53
c0 -13.333 4.66699 -20 14 -20c30 -4 61.667 -6 95 -6c24.667 0 48.667 1.33301 72 4s44.666 7.33398 63.999 14.001c5.33301 0 8 -3.66699 8 -11v-11c1.33301 -8.66699 2 -16.834 2 -24.501v-22.5v-17c0 -6 -0.166992 -11.5 -0.5 -16.5s-0.833008 -9.5 -1.5 -13.5
c-24 0 -61.333 1 -112 3s-89.334 3 -116.001 3l-180 -2c-1.33301 2 -2.33301 3.33301 -3 4c7.33301 47.333 12.166 96 14.499 146s3.5 107.333 3.5 172v21v19v16v14v13c0 12.667 -0.166992 25.334 -0.5 38.001s-0.5 25.667 -0.5 39v11c0 25.333 -2.33301 51.5 -7 78.5
l-12 68.5l4 4c27.333 0 72.5 -1.66699 135.5 -5s105.833 -5 128.5 -5c32.667 0 58.667 0.833008 78 2.5s36.833 4 52.5 7s25.834 5.16699 30.501 6.5c2.66699 0 4 -1.66699 4 -5s-1.33301 -9.66602 -4 -18.999zM361 776.996c-46.667 -18.667 -82.668 -33.833 -108.001 -45.5
s-49 -25.834 -71 -42.501c-9.33301 2 -21.333 7 -36 15s-24 12.667 -28 14c-1.33301 1.33301 -1.33301 3.33301 0 6c12.667 18 35.834 38.333 69.501 61s65.834 42.334 96.501 59.001c17.333 -5.33301 32.166 -11.5 44.499 -18.5s21 -13 26 -18s7.5 -11.5 7.5 -19.5
c0 -5.33301 -0.333008 -9 -1 -11z" />
    <glyph glyph-name="Ecircumflex" unicode="&#xca;" horiz-adv-x="514" 
d="M482 620c-4 -10 -9 -26.3369 -15 -49.0039s-9.66699 -36 -11 -40l-10 -4c-26 0 -67.833 0.666992 -125.5 2s-89.167 2 -94.5 2c-6 -4.66699 -9.66699 -8.66699 -11 -12c-1.33301 -8.66699 -2.33301 -19.167 -3 -31.5s-1 -24.5 -1 -36.5c0 -10 0.333008 -25 1 -45
s1 -34.667 1 -44c0.666992 -2 3.33398 -4 8.00098 -6c16 -2.66699 30.833 -4.33398 44.5 -5.00098s30.167 -1 49.5 -1c28 0 53.167 1 75.5 3s48.5 5 78.5 9c0 -14.667 -1.16699 -33.167 -3.5 -55.5s-4.16602 -39.166 -5.49902 -50.499
c-4 -1.33301 -7.66699 -2.66602 -11 -3.99902c-18.667 0 -49.5 1.66699 -92.5 5s-72.167 5 -87.5 5c-16 0 -32.667 -1 -50 -3c-6 -4.66699 -9 -7.33398 -9 -8.00098c-0.666992 -5.33301 -1 -11.166 -1 -17.499v-14.5c0 -11.333 0.666992 -28.666 2 -51.999s2 -41 2 -53
c0 -13.333 4.66699 -20 14 -20c30 -4 61.667 -6 95 -6c24.667 0 48.667 1.33301 72 4s44.666 7.33398 63.999 14.001c5.33301 0 8 -3.66699 8 -11v-11c1.33301 -8.66699 2 -16.834 2 -24.501v-22.5v-17c0 -6 -0.166992 -11.5 -0.5 -16.5s-0.833008 -9.5 -1.5 -13.5
c-24 0 -61.333 1 -112 3s-89.334 3 -116.001 3l-180 -2c-1.33301 2 -2.33301 3.33301 -3 4c7.33301 47.333 12.166 96 14.499 146s3.5 107.333 3.5 172v21v19v16v14v13c0 12.667 -0.166992 25.334 -0.5 38.001s-0.5 25.667 -0.5 39v11c0 25.333 -2.33301 51.5 -7 78.5
l-12 68.5l4 4c27.333 0 72.5 -1.66699 135.5 -5s105.833 -5 128.5 -5c32.667 0 58.667 0.833008 78 2.5s36.833 4 52.5 7s25.834 5.16699 30.501 6.5c2.66699 0 4 -1.66699 4 -5s-1.33301 -9.66602 -4 -18.999zM434 717.996l-63.9971 -26.001
c-12.667 9.33301 -28.334 19.333 -47.001 30s-38.334 20.334 -59.001 29.001c-23.333 -10.667 -43 -20.334 -59 -29.001s-31.667 -18.667 -47 -30c-10 2 -22.5 6.66699 -37.5 14s-23.833 11.333 -26.5 12v11c10.667 14.667 39.334 37.334 86.001 68.001s74.667 46 84 46
s37.166 -15 83.499 -45s75.166 -53 86.499 -69v-11z" />
    <glyph glyph-name="Edieresis" unicode="&#xcb;" horiz-adv-x="514" 
d="M482 620c-4 -10 -9 -26.3369 -15 -49.0039s-9.66699 -36 -11 -40l-10 -4c-26 0 -67.833 0.666992 -125.5 2s-89.167 2 -94.5 2c-6 -4.66699 -9.66699 -8.66699 -11 -12c-1.33301 -8.66699 -2.33301 -19.167 -3 -31.5s-1 -24.5 -1 -36.5c0 -10 0.333008 -25 1 -45
s1 -34.667 1 -44c0.666992 -2 3.33398 -4 8.00098 -6c16 -2.66699 30.833 -4.33398 44.5 -5.00098s30.167 -1 49.5 -1c28 0 53.167 1 75.5 3s48.5 5 78.5 9c0 -14.667 -1.16699 -33.167 -3.5 -55.5s-4.16602 -39.166 -5.49902 -50.499
c-4 -1.33301 -7.66699 -2.66602 -11 -3.99902c-18.667 0 -49.5 1.66699 -92.5 5s-72.167 5 -87.5 5c-16 0 -32.667 -1 -50 -3c-6 -4.66699 -9 -7.33398 -9 -8.00098c-0.666992 -5.33301 -1 -11.166 -1 -17.499v-14.5c0 -11.333 0.666992 -28.666 2 -51.999s2 -41 2 -53
c0 -13.333 4.66699 -20 14 -20c30 -4 61.667 -6 95 -6c24.667 0 48.667 1.33301 72 4s44.666 7.33398 63.999 14.001c5.33301 0 8 -3.66699 8 -11v-11c1.33301 -8.66699 2 -16.834 2 -24.501v-22.5v-17c0 -6 -0.166992 -11.5 -0.5 -16.5s-0.833008 -9.5 -1.5 -13.5
c-24 0 -61.333 1 -112 3s-89.334 3 -116.001 3l-180 -2c-1.33301 2 -2.33301 3.33301 -3 4c7.33301 47.333 12.166 96 14.499 146s3.5 107.333 3.5 172v21v19v16v14v13c0 12.667 -0.166992 25.334 -0.5 38.001s-0.5 25.667 -0.5 39v11c0 25.333 -2.33301 51.5 -7 78.5
l-12 68.5l4 4c27.333 0 72.5 -1.66699 135.5 -5s105.833 -5 128.5 -5c32.667 0 58.667 0.833008 78 2.5s36.833 4 52.5 7s25.834 5.16699 30.501 6.5c2.66699 0 4 -1.66699 4 -5s-1.33301 -9.66602 -4 -18.999zM469 787.996c-14 -14 -33.834 -31.332 -59.501 -51.999
s-41.167 -33.334 -46.5 -38.001c-13.333 4.66699 -27.166 11.667 -41.499 21l-41.5 28c-2 2.66699 -0.833008 5.83398 3.5 9.50098s10 9.16699 17 16.5l28 29.5c11.667 12.333 25.167 25.833 40.5 40.5c11.333 -4 24.333 -9.83301 39 -17.5l33 -17.5
c2 -2.66699 6.66699 -5.33398 14 -8.00098s12 -6.66699 14 -12zM243.999 787.997c-14 -14 -33.834 -31.332 -59.501 -51.999s-41.167 -33.334 -46.5 -38.001c-13.333 4.66699 -27.166 11.667 -41.499 21l-41.5 28c-2 2.66699 -0.833008 5.83398 3.5 9.50098
s10 9.16699 17 16.5l28 29.5c11.667 12.333 25.167 25.833 40.5 40.5c11.333 -4 24.333 -9.83301 39 -17.5l33 -17.5c2 -2.66699 6.66699 -5.33398 14 -8.00098s12 -6.66699 14 -12z" />
    <glyph glyph-name="Igrave" unicode="&#xcc;" horiz-adv-x="275" 
d="M223 1l-5 -4.99902h-167c-2.66699 0 -4 1.66699 -4 5c14.667 109.333 22 226.666 22 351.999c0 30.667 -2.33301 76 -7 136s-7 103.333 -7 130c0 3.33301 0.833008 5.33301 2.5 6s2.5 1.66699 2.5 3h158l5 -4c-6 -47.333 -10.333 -95.833 -13 -145.5
s-4 -101.167 -4 -154.5c0 -107.333 5.66699 -215 17 -323zM257 718.001l-64.001 -29c-19.333 14.667 -44.666 29.334 -75.999 44.001s-65.666 29.334 -102.999 44.001c-0.666992 2.66699 -1 6.66699 -1 12c0 7.33301 2.66699 13.666 8 18.999s13.666 11.166 24.999 17.499
s26.333 12.5 45 18.5c41.333 -22.667 77 -45 107 -67s49.667 -39.667 59 -53c1.33301 -2.66699 1.33301 -4.66699 0 -6z" />
    <glyph glyph-name="Iacute" unicode="&#xcd;" horiz-adv-x="275" 
d="M223 1l-5 -4.99902h-167c-2.66699 0 -4 1.66699 -4 5c14.667 109.333 22 226.666 22 351.999c0 30.667 -2.33301 76 -7 136s-7 103.333 -7 130c0 3.33301 0.833008 5.33301 2.5 6s2.5 1.66699 2.5 3h158l5 -4c-6 -47.333 -10.333 -95.833 -13 -145.5
s-4 -101.167 -4 -154.5c0 -107.333 5.66699 -215 17 -323zM271 777.001c-46.667 -18.667 -82.668 -33.833 -108.001 -45.5s-49 -25.834 -71 -42.501c-9.33301 2 -21.333 7 -36 15s-24 12.667 -28 14c-1.33301 1.33301 -1.33301 3.33301 0 6
c12.667 18 35.834 38.333 69.501 61s65.834 42.334 96.501 59.001c17.333 -5.33301 32.166 -11.5 44.499 -18.5s21 -13 26 -18s7.5 -11.5 7.5 -19.5c0 -5.33301 -0.333008 -9 -1 -11z" />
    <glyph glyph-name="Icircumflex" unicode="&#xce;" horiz-adv-x="275" 
d="M223 1l-5 -4.99902h-167c-2.66699 0 -4 1.66699 -4 5c14.667 109.333 22 226.666 22 351.999c0 30.667 -2.33301 76 -7 136s-7 103.333 -7 130c0 3.33301 0.833008 5.33301 2.5 6s2.5 1.66699 2.5 3h158l5 -4c-6 -47.333 -10.333 -95.833 -13 -145.5
s-4 -101.167 -4 -154.5c0 -107.333 5.66699 -215 17 -323zM308 718.001l-63.9971 -26.001c-12.667 9.33301 -28.334 19.333 -47.001 30s-38.334 20.334 -59.001 29.001c-23.333 -10.667 -43 -20.334 -59 -29.001s-31.667 -18.667 -47 -30c-10 2 -22.5 6.66699 -37.5 14
s-23.833 11.333 -26.5 12v11c10.667 14.667 39.334 37.334 86.001 68.001s74.667 46 84 46s37.166 -15 83.499 -45s75.166 -53 86.499 -69v-11z" />
    <glyph glyph-name="Idieresis" unicode="&#xcf;" horiz-adv-x="275" 
d="M223 1l-5 -4.99902h-167c-2.66699 0 -4 1.66699 -4 5c14.667 109.333 22 226.666 22 351.999c0 30.667 -2.33301 76 -7 136s-7 103.333 -7 130c0 3.33301 0.833008 5.33301 2.5 6s2.5 1.66699 2.5 3h158l5 -4c-6 -47.333 -10.333 -95.833 -13 -145.5
s-4 -101.167 -4 -154.5c0 -107.333 5.66699 -215 17 -323zM344 788.001c-14 -14 -33.834 -31.332 -59.501 -51.999s-41.167 -33.334 -46.5 -38.001c-13.333 4.66699 -27.166 11.667 -41.499 21l-41.5 28c-2 2.66699 -0.833008 5.83398 3.5 9.50098s10 9.16699 17 16.5
l28 29.5c11.667 12.333 25.167 25.833 40.5 40.5c11.333 -4 24.333 -9.83301 39 -17.5l33 -17.5c2 -2.66699 6.66699 -5.33398 14 -8.00098s12 -6.66699 14 -12zM118.999 788.002c-14 -14 -33.834 -31.332 -59.501 -51.999s-41.167 -33.334 -46.5 -38.001
c-13.333 4.66699 -27.166 11.667 -41.499 21l-41.5 28c-2 2.66699 -0.833008 5.83398 3.5 9.50098s10 9.16699 17 16.5l28 29.5c11.667 12.333 25.167 25.833 40.5 40.5c11.333 -4 24.333 -9.83301 39 -17.5l33 -17.5c2 -2.66699 6.66699 -5.33398 14 -8.00098
s12 -6.66699 14 -12z" />
    <glyph glyph-name="Eth" unicode="&#xd0;" 
 />
    <glyph glyph-name="Ntilde" unicode="&#xd1;" horiz-adv-x="775" 
d="M759 -4l-208.001 1.00195l-358 430v-332c0 -6 0.166992 -12.167 0.5 -18.5s2.83301 -16.5 7.5 -30.5l10 -50h-181c9.33301 13.333 16.333 25.166 21 35.499s8.83398 22 12.501 35s5.83398 24.5 6.50098 34.5s1 24 1 42v324v13c0 20.667 -0.5 35 -1.5 43s-4 19.333 -9 34
s-9 24.5 -12 29.5s-14.5 19.833 -34.5 44.5h159c2 0.666992 4.16699 1 6.5 1h4.5c10 0 18.667 -2.16699 26 -6.5s13 -9.5 17 -15.5s8 -11.667 12 -17l343 -421v314c0 17.333 -0.666992 31.666 -2 42.999l-4 33.5c-1.33301 11 -3 21.667 -5 32s-4.66699 22.5 -8 36.5h194
c-16 -14 -27.5 -29.5 -34.5 -46.5s-11.5 -32 -13.5 -45s-3 -26.167 -3 -39.5v-357c0 -14.667 0.166992 -28.5 0.5 -41.5s3.16602 -27.5 8.49902 -43.5c9.33301 -24 24 -44.667 44 -62zM543.999 750.002c-16 -12.667 -31.6699 -23.832 -47.0029 -33.499s-31 -14.5 -47 -14.5
c-9.33301 0 -32.166 7.16699 -68.499 21.5s-62.166 21.5 -77.499 21.5c-9.33301 0 -18 -4.83301 -26 -14.5l-24 -28.5c-11.333 6 -22 11 -32 15s-20.667 7.66699 -32 11v11c12.667 17.333 31.167 34.666 55.5 51.999s44.5 26 60.5 26s37.167 -4.33301 63.5 -13l80.5 -27
c12 0 23.5 5 34.5 15s18.833 15.667 23.5 17c2.66699 -0.666992 5.33398 -1 8.00098 -1c2 -7.33301 6.66699 -17.5 14 -30.5s12 -22.167 14 -27.5z" />
    <glyph glyph-name="Ograve" unicode="&#xd2;" horiz-adv-x="865" 
d="M789 499c12 -22 20.999 -46.5049 26.999 -73.5049s9 -53.833 9 -80.5c0 -37.333 -5.33301 -73.666 -16 -108.999s-30.334 -72.666 -59.001 -111.999s-71.167 -70.833 -127.5 -94.5s-118.5 -35.5 -186.5 -35.5c-38 -8.66699 -75 -13 -111 -13
c-42 0 -80.833 6.33301 -116.5 19s-66.167 33.334 -91.5 62.001s-45.166 62.334 -59.499 101.001s-21.5 78.667 -21.5 120c0 40 7.83301 82.5 23.5 127.5s48.834 88.167 99.501 129.5s105 66.333 163 75c40 4 69.167 7.33301 87.5 10s35 6.33398 50 11.001
s28.667 7.66699 41 9s24.5 2 36.5 2c53.333 0 102.833 -13.5 148.5 -40.5s80.167 -62.833 103.5 -107.5zM633.999 453.995c-22 37.333 -45.333 63.499 -70 78.499s-49.834 25.667 -75.501 32s-45.834 9.5 -60.501 9.5c-25.333 0 -49.166 -5.66699 -71.499 -17
s-47.166 -28 -74.499 -50c-28.667 -28.667 -51 -61.667 -67 -99s-24 -76 -24 -116c0 -34 7.83301 -70.167 23.5 -108.5s43.5 -70.333 83.5 -96s84 -38.5 132 -38.5c81.333 11.333 141.333 44.833 180 100.5s58 113.834 58 174.501c0 50 -11.333 93.333 -34 130z
M526.999 717.994l-64.001 -29c-19.333 14.667 -44.666 29.334 -75.999 44.001s-65.666 29.334 -102.999 44.001c-0.666992 2.66699 -1 6.66699 -1 12c0 7.33301 2.66699 13.666 8 18.999s13.666 11.166 24.999 17.499s26.333 12.5 45 18.5c41.333 -22.667 77 -45 107 -67
s49.667 -39.667 59 -53c1.33301 -2.66699 1.33301 -4.66699 0 -6z" />
    <glyph glyph-name="Oacute" unicode="&#xd3;" horiz-adv-x="865" 
d="M789 499c12 -22 20.999 -46.5049 26.999 -73.5049s9 -53.833 9 -80.5c0 -37.333 -5.33301 -73.666 -16 -108.999s-30.334 -72.666 -59.001 -111.999s-71.167 -70.833 -127.5 -94.5s-118.5 -35.5 -186.5 -35.5c-38 -8.66699 -75 -13 -111 -13
c-42 0 -80.833 6.33301 -116.5 19s-66.167 33.334 -91.5 62.001s-45.166 62.334 -59.499 101.001s-21.5 78.667 -21.5 120c0 40 7.83301 82.5 23.5 127.5s48.834 88.167 99.501 129.5s105 66.333 163 75c40 4 69.167 7.33301 87.5 10s35 6.33398 50 11.001
s28.667 7.66699 41 9s24.5 2 36.5 2c53.333 0 102.833 -13.5 148.5 -40.5s80.167 -62.833 103.5 -107.5zM633.999 453.995c-22 37.333 -45.333 63.499 -70 78.499s-49.834 25.667 -75.501 32s-45.834 9.5 -60.501 9.5c-25.333 0 -49.166 -5.66699 -71.499 -17
s-47.166 -28 -74.499 -50c-28.667 -28.667 -51 -61.667 -67 -99s-24 -76 -24 -116c0 -34 7.83301 -70.167 23.5 -108.5s43.5 -70.333 83.5 -96s84 -38.5 132 -38.5c81.333 11.333 141.333 44.833 180 100.5s58 113.834 58 174.501c0 50 -11.333 93.333 -34 130z
M522.999 776.994c-46.667 -18.667 -82.668 -33.833 -108.001 -45.5s-49 -25.834 -71 -42.501c-9.33301 2 -21.333 7 -36 15s-24 12.667 -28 14c-1.33301 1.33301 -1.33301 3.33301 0 6c12.667 18 35.834 38.333 69.501 61s65.834 42.334 96.501 59.001
c17.333 -5.33301 32.166 -11.5 44.499 -18.5s21 -13 26 -18s7.5 -11.5 7.5 -19.5c0 -5.33301 -0.333008 -9 -1 -11z" />
    <glyph glyph-name="Ocircumflex" unicode="&#xd4;" horiz-adv-x="865" 
d="M789 499c12 -22 20.999 -46.5049 26.999 -73.5049s9 -53.833 9 -80.5c0 -37.333 -5.33301 -73.666 -16 -108.999s-30.334 -72.666 -59.001 -111.999s-71.167 -70.833 -127.5 -94.5s-118.5 -35.5 -186.5 -35.5c-38 -8.66699 -75 -13 -111 -13
c-42 0 -80.833 6.33301 -116.5 19s-66.167 33.334 -91.5 62.001s-45.166 62.334 -59.499 101.001s-21.5 78.667 -21.5 120c0 40 7.83301 82.5 23.5 127.5s48.834 88.167 99.501 129.5s105 66.333 163 75c40 4 69.167 7.33301 87.5 10s35 6.33398 50 11.001
s28.667 7.66699 41 9s24.5 2 36.5 2c53.333 0 102.833 -13.5 148.5 -40.5s80.167 -62.833 103.5 -107.5zM633.999 453.995c-22 37.333 -45.333 63.499 -70 78.499s-49.834 25.667 -75.501 32s-45.834 9.5 -60.501 9.5c-25.333 0 -49.166 -5.66699 -71.499 -17
s-47.166 -28 -74.499 -50c-28.667 -28.667 -51 -61.667 -67 -99s-24 -76 -24 -116c0 -34 7.83301 -70.167 23.5 -108.5s43.5 -70.333 83.5 -96s84 -38.5 132 -38.5c81.333 11.333 141.333 44.833 180 100.5s58 113.834 58 174.501c0 50 -11.333 93.333 -34 130z
M577.999 717.994l-63.9971 -26.001c-12.667 9.33301 -28.334 19.333 -47.001 30s-38.334 20.334 -59.001 29.001c-23.333 -10.667 -43 -20.334 -59 -29.001s-31.667 -18.667 -47 -30c-10 2 -22.5 6.66699 -37.5 14s-23.833 11.333 -26.5 12v11
c10.667 14.667 39.334 37.334 86.001 68.001s74.667 46 84 46s37.166 -15 83.499 -45s75.166 -53 86.499 -69v-11z" />
    <glyph glyph-name="Otilde" unicode="&#xd5;" horiz-adv-x="865" 
d="M789 499c12 -22 20.999 -46.5049 26.999 -73.5049s9 -53.833 9 -80.5c0 -37.333 -5.33301 -73.666 -16 -108.999s-30.334 -72.666 -59.001 -111.999s-71.167 -70.833 -127.5 -94.5s-118.5 -35.5 -186.5 -35.5c-38 -8.66699 -75 -13 -111 -13
c-42 0 -80.833 6.33301 -116.5 19s-66.167 33.334 -91.5 62.001s-45.166 62.334 -59.499 101.001s-21.5 78.667 -21.5 120c0 40 7.83301 82.5 23.5 127.5s48.834 88.167 99.501 129.5s105 66.333 163 75c40 4 69.167 7.33301 87.5 10s35 6.33398 50 11.001
s28.667 7.66699 41 9s24.5 2 36.5 2c53.333 0 102.833 -13.5 148.5 -40.5s80.167 -62.833 103.5 -107.5zM633.999 453.995c-22 37.333 -45.333 63.499 -70 78.499s-49.834 25.667 -75.501 32s-45.834 9.5 -60.501 9.5c-25.333 0 -49.166 -5.66699 -71.499 -17
s-47.166 -28 -74.499 -50c-28.667 -28.667 -51 -61.667 -67 -99s-24 -76 -24 -116c0 -34 7.83301 -70.167 23.5 -108.5s43.5 -70.333 83.5 -96s84 -38.5 132 -38.5c81.333 11.333 141.333 44.833 180 100.5s58 113.834 58 174.501c0 50 -11.333 93.333 -34 130z
M597.999 749.994c-16 -12.667 -31.6699 -23.832 -47.0029 -33.499s-31 -14.5 -47 -14.5c-9.33301 0 -32.166 7.16699 -68.499 21.5s-62.166 21.5 -77.499 21.5c-9.33301 0 -18 -4.83301 -26 -14.5l-24 -28.5c-11.333 6 -22 11 -32 15s-20.667 7.66699 -32 11v11
c12.667 17.333 31.167 34.666 55.5 51.999s44.5 26 60.5 26s37.167 -4.33301 63.5 -13l80.5 -27c12 0 23.5 5 34.5 15s18.833 15.667 23.5 17c2.66699 -0.666992 5.33398 -1 8.00098 -1c2 -7.33301 6.66699 -17.5 14 -30.5s12 -22.167 14 -27.5z" />
    <glyph glyph-name="Odieresis" unicode="&#xd6;" horiz-adv-x="865" 
d="M789 499c12 -22 20.999 -46.5049 26.999 -73.5049s9 -53.833 9 -80.5c0 -37.333 -5.33301 -73.666 -16 -108.999s-30.334 -72.666 -59.001 -111.999s-71.167 -70.833 -127.5 -94.5s-118.5 -35.5 -186.5 -35.5c-38 -8.66699 -75 -13 -111 -13
c-42 0 -80.833 6.33301 -116.5 19s-66.167 33.334 -91.5 62.001s-45.166 62.334 -59.499 101.001s-21.5 78.667 -21.5 120c0 40 7.83301 82.5 23.5 127.5s48.834 88.167 99.501 129.5s105 66.333 163 75c40 4 69.167 7.33301 87.5 10s35 6.33398 50 11.001
s28.667 7.66699 41 9s24.5 2 36.5 2c53.333 0 102.833 -13.5 148.5 -40.5s80.167 -62.833 103.5 -107.5zM633.999 453.995c-22 37.333 -45.333 63.499 -70 78.499s-49.834 25.667 -75.501 32s-45.834 9.5 -60.501 9.5c-25.333 0 -49.166 -5.66699 -71.499 -17
s-47.166 -28 -74.499 -50c-28.667 -28.667 -51 -61.667 -67 -99s-24 -76 -24 -116c0 -34 7.83301 -70.167 23.5 -108.5s43.5 -70.333 83.5 -96s84 -38.5 132 -38.5c81.333 11.333 141.333 44.833 180 100.5s58 113.834 58 174.501c0 50 -11.333 93.333 -34 130z
M628.999 787.994c-14 -14 -33.834 -31.332 -59.501 -51.999s-41.167 -33.334 -46.5 -38.001c-13.333 4.66699 -27.166 11.667 -41.499 21l-41.5 28c-2 2.66699 -0.833008 5.83398 3.5 9.50098s10 9.16699 17 16.5l28 29.5c11.667 12.333 25.167 25.833 40.5 40.5
c11.333 -4 24.333 -9.83301 39 -17.5l33 -17.5c2 -2.66699 6.66699 -5.33398 14 -8.00098s12 -6.66699 14 -12zM403.998 787.995c-14 -14 -33.834 -31.332 -59.501 -51.999s-41.167 -33.334 -46.5 -38.001c-13.333 4.66699 -27.166 11.667 -41.499 21l-41.5 28
c-2 2.66699 -0.833008 5.83398 3.5 9.50098s10 9.16699 17 16.5l28 29.5c11.667 12.333 25.167 25.833 40.5 40.5c11.333 -4 24.333 -9.83301 39 -17.5l33 -17.5c2 -2.66699 6.66699 -5.33398 14 -8.00098s12 -6.66699 14 -12z" />
    <glyph glyph-name="multiply" unicode="&#xd7;" 
 />
    <glyph glyph-name="Oslash" unicode="&#xd8;" horiz-adv-x="865" 
d="M851 633l-97.998 -83.0029c14 -16 26.5 -34 37.5 -54s19.5 -43.5 25.5 -70.5s9 -53.833 9 -80.5c0 -37.333 -5.33301 -73.666 -16 -108.999s-30.334 -72.666 -59.001 -111.999s-71.167 -70.833 -127.5 -94.5s-118.5 -35.5 -186.5 -35.5c-38 -8.66699 -75 -13 -111 -13
c-27.333 0 -53.5 2.83301 -78.5 8.5s-48.167 14.167 -69.5 25.5l-44 -42c-10.667 -0.666992 -22.834 -1.16699 -36.501 -1.5s-28.5 -0.5 -44.5 -0.5c-26.667 0 -46.667 1 -60 3l112 104c-22 28 -38.833 59.5 -50.5 94.5s-17.5 71.5 -17.5 109.5
c0 39.333 7.83301 81.833 23.5 127.5s48.834 89.167 99.501 130.5s105 66.333 163 75c40 4 69.167 7.33301 87.5 10s35 6.33398 50 11.001s28.667 7.66699 41 9s24.166 2 35.499 2c52 0 101 -13.333 147 -40l23 22c0.666992 0.666992 14.5 2 41.5 4s52.167 3 75.5 3h25
c0.666992 -1.33301 1.66699 -2.33301 3 -3zM585.002 515.997c-15.333 14 -31.6689 24.667 -49.002 32s-36 13.5 -56 18.5s-37.333 7.5 -52 7.5c-25.333 0 -49.166 -5.66699 -71.499 -17s-47.166 -28 -74.499 -50c-28.667 -28.667 -51 -61.667 -67 -99s-24 -76 -24 -116
c0 -34 6.66699 -68 20 -102l4 -10zM636.999 446.997l-136.999 -125.998l-121.5 -113l-106.5 -101c44.667 -38.667 97.334 -58 158.001 -58c81.333 11.333 137.166 39.166 167.499 83.499s49.666 80 57.999 107s12.5 54.833 12.5 83.5c0 47.333 -10.333 88.666 -31 123.999z
" />
    <glyph glyph-name="Ugrave" unicode="&#xd9;" horiz-adv-x="740" 
d="M700 4l-164 -10.002c-2 3.33301 -3 9.33301 -3 18v15c0 9.33301 -1.66699 16.666 -5 21.999c-9.33301 0 -24 -3 -44 -9s-32.667 -9.33301 -38 -10s-37.5 -9.16699 -96.5 -25.5s-105.5 -24.5 -139.5 -24.5c-44.667 0 -81 14.333 -109 43
c-8 9.33301 -14.5 21.166 -19.5 35.499s-8.5 29.5 -10.5 45.5c0 63.333 -0.5 117.333 -1.5 162s-2 98.834 -3 162.501s-1.5 107.167 -1.5 130.5c-3.33301 7.33301 -7.33301 18.5 -12 33.5s-8.66699 27.167 -12 36.5l4 2c30.667 0 61.334 0.333008 92.001 1l91 2l3 -5
c-6.66699 -33.333 -11.5 -71.833 -14.5 -115.5s-4.5 -88.167 -4.5 -133.5c0 -21.333 0.333008 -53.666 1 -96.999s1 -75.666 1 -96.999c4 -28 11.5 -52.5 22.5 -73.5s28.167 -34.833 51.5 -41.5c13.333 -2.66699 28.333 -4 45 -4c55.333 0 98.166 17.667 128.499 53
s50.5 74.666 60.5 117.999s15 94 15 152c0 20.667 -0.666992 54.5 -2 101.5s-2 70.833 -2 71.5c0 8.66699 -1.5 21.334 -4.5 38.001s-4.5 26.334 -4.5 29.001c27.333 0 55 0.333008 83 1l85 2l3 -11c-8 -33.333 -13.667 -70 -17 -110s-5 -79.667 -5 -119
c0 -35.333 1.83301 -93.833 5.5 -175.5s5.5 -134.167 5.5 -157.5zM485 717.998l-64.001 -29c-19.333 14.667 -44.666 29.334 -75.999 44.001s-65.666 29.334 -102.999 44.001c-0.666992 2.66699 -1 6.66699 -1 12c0 7.33301 2.66699 13.666 8 18.999
s13.666 11.166 24.999 17.499s26.333 12.5 45 18.5c41.333 -22.667 77 -45 107 -67s49.667 -39.667 59 -53c1.33301 -2.66699 1.33301 -4.66699 0 -6z" />
    <glyph glyph-name="Uacute" unicode="&#xda;" horiz-adv-x="740" 
d="M700 4l-164 -10.002c-2 3.33301 -3 9.33301 -3 18v15c0 9.33301 -1.66699 16.666 -5 21.999c-9.33301 0 -24 -3 -44 -9s-32.667 -9.33301 -38 -10s-37.5 -9.16699 -96.5 -25.5s-105.5 -24.5 -139.5 -24.5c-44.667 0 -81 14.333 -109 43
c-8 9.33301 -14.5 21.166 -19.5 35.499s-8.5 29.5 -10.5 45.5c0 63.333 -0.5 117.333 -1.5 162s-2 98.834 -3 162.501s-1.5 107.167 -1.5 130.5c-3.33301 7.33301 -7.33301 18.5 -12 33.5s-8.66699 27.167 -12 36.5l4 2c30.667 0 61.334 0.333008 92.001 1l91 2l3 -5
c-6.66699 -33.333 -11.5 -71.833 -14.5 -115.5s-4.5 -88.167 -4.5 -133.5c0 -21.333 0.333008 -53.666 1 -96.999s1 -75.666 1 -96.999c4 -28 11.5 -52.5 22.5 -73.5s28.167 -34.833 51.5 -41.5c13.333 -2.66699 28.333 -4 45 -4c55.333 0 98.166 17.667 128.499 53
s50.5 74.666 60.5 117.999s15 94 15 152c0 20.667 -0.666992 54.5 -2 101.5s-2 70.833 -2 71.5c0 8.66699 -1.5 21.334 -4.5 38.001s-4.5 26.334 -4.5 29.001c27.333 0 55 0.333008 83 1l85 2l3 -11c-8 -33.333 -13.667 -70 -17 -110s-5 -79.667 -5 -119
c0 -35.333 1.83301 -93.833 5.5 -175.5s5.5 -134.167 5.5 -157.5zM487 776.998c-46.667 -18.667 -82.668 -33.833 -108.001 -45.5s-49 -25.834 -71 -42.501c-9.33301 2 -21.333 7 -36 15s-24 12.667 -28 14c-1.33301 1.33301 -1.33301 3.33301 0 6
c12.667 18 35.834 38.333 69.501 61s65.834 42.334 96.501 59.001c17.333 -5.33301 32.166 -11.5 44.499 -18.5s21 -13 26 -18s7.5 -11.5 7.5 -19.5c0 -5.33301 -0.333008 -9 -1 -11z" />
    <glyph glyph-name="Ucircumflex" unicode="&#xdb;" horiz-adv-x="740" 
d="M700 4l-164 -10.002c-2 3.33301 -3 9.33301 -3 18v15c0 9.33301 -1.66699 16.666 -5 21.999c-9.33301 0 -24 -3 -44 -9s-32.667 -9.33301 -38 -10s-37.5 -9.16699 -96.5 -25.5s-105.5 -24.5 -139.5 -24.5c-44.667 0 -81 14.333 -109 43
c-8 9.33301 -14.5 21.166 -19.5 35.499s-8.5 29.5 -10.5 45.5c0 63.333 -0.5 117.333 -1.5 162s-2 98.834 -3 162.501s-1.5 107.167 -1.5 130.5c-3.33301 7.33301 -7.33301 18.5 -12 33.5s-8.66699 27.167 -12 36.5l4 2c30.667 0 61.334 0.333008 92.001 1l91 2l3 -5
c-6.66699 -33.333 -11.5 -71.833 -14.5 -115.5s-4.5 -88.167 -4.5 -133.5c0 -21.333 0.333008 -53.666 1 -96.999s1 -75.666 1 -96.999c4 -28 11.5 -52.5 22.5 -73.5s28.167 -34.833 51.5 -41.5c13.333 -2.66699 28.333 -4 45 -4c55.333 0 98.166 17.667 128.499 53
s50.5 74.666 60.5 117.999s15 94 15 152c0 20.667 -0.666992 54.5 -2 101.5s-2 70.833 -2 71.5c0 8.66699 -1.5 21.334 -4.5 38.001s-4.5 26.334 -4.5 29.001c27.333 0 55 0.333008 83 1l85 2l3 -11c-8 -33.333 -13.667 -70 -17 -110s-5 -79.667 -5 -119
c0 -35.333 1.83301 -93.833 5.5 -175.5s5.5 -134.167 5.5 -157.5zM548 717.998l-63.9971 -26.001c-12.667 9.33301 -28.334 19.333 -47.001 30s-38.334 20.334 -59.001 29.001c-23.333 -10.667 -43 -20.334 -59 -29.001s-31.667 -18.667 -47 -30
c-10 2 -22.5 6.66699 -37.5 14s-23.833 11.333 -26.5 12v11c10.667 14.667 39.334 37.334 86.001 68.001s74.667 46 84 46s37.166 -15 83.499 -45s75.166 -53 86.499 -69v-11z" />
    <glyph glyph-name="Udieresis" unicode="&#xdc;" horiz-adv-x="740" 
d="M700 4l-164 -10.002c-2 3.33301 -3 9.33301 -3 18v15c0 9.33301 -1.66699 16.666 -5 21.999c-9.33301 0 -24 -3 -44 -9s-32.667 -9.33301 -38 -10s-37.5 -9.16699 -96.5 -25.5s-105.5 -24.5 -139.5 -24.5c-44.667 0 -81 14.333 -109 43
c-8 9.33301 -14.5 21.166 -19.5 35.499s-8.5 29.5 -10.5 45.5c0 63.333 -0.5 117.333 -1.5 162s-2 98.834 -3 162.501s-1.5 107.167 -1.5 130.5c-3.33301 7.33301 -7.33301 18.5 -12 33.5s-8.66699 27.167 -12 36.5l4 2c30.667 0 61.334 0.333008 92.001 1l91 2l3 -5
c-6.66699 -33.333 -11.5 -71.833 -14.5 -115.5s-4.5 -88.167 -4.5 -133.5c0 -21.333 0.333008 -53.666 1 -96.999s1 -75.666 1 -96.999c4 -28 11.5 -52.5 22.5 -73.5s28.167 -34.833 51.5 -41.5c13.333 -2.66699 28.333 -4 45 -4c55.333 0 98.166 17.667 128.499 53
s50.5 74.666 60.5 117.999s15 94 15 152c0 20.667 -0.666992 54.5 -2 101.5s-2 70.833 -2 71.5c0 8.66699 -1.5 21.334 -4.5 38.001s-4.5 26.334 -4.5 29.001c27.333 0 55 0.333008 83 1l85 2l3 -11c-8 -33.333 -13.667 -70 -17 -110s-5 -79.667 -5 -119
c0 -35.333 1.83301 -93.833 5.5 -175.5s5.5 -134.167 5.5 -157.5zM589 787.998c-14 -14 -33.834 -31.332 -59.501 -51.999s-41.167 -33.334 -46.5 -38.001c-13.333 4.66699 -27.166 11.667 -41.499 21l-41.5 28c-2 2.66699 -0.833008 5.83398 3.5 9.50098
s10 9.16699 17 16.5l28 29.5c11.667 12.333 25.167 25.833 40.5 40.5c11.333 -4 24.333 -9.83301 39 -17.5l33 -17.5c2 -2.66699 6.66699 -5.33398 14 -8.00098s12 -6.66699 14 -12zM363.999 787.999c-14 -14 -33.834 -31.332 -59.501 -51.999
s-41.167 -33.334 -46.5 -38.001c-13.333 4.66699 -27.166 11.667 -41.499 21l-41.5 28c-2 2.66699 -0.833008 5.83398 3.5 9.50098s10 9.16699 17 16.5l28 29.5c11.667 12.333 25.167 25.833 40.5 40.5c11.333 -4 24.333 -9.83301 39 -17.5l33 -17.5
c2 -2.66699 6.66699 -5.33398 14 -8.00098s12 -6.66699 14 -12z" />
    <glyph glyph-name="Yacute" unicode="&#xdd;" 
 />
    <glyph glyph-name="Thorn" unicode="&#xde;" 
 />
    <glyph glyph-name="germandbls" unicode="&#xdf;" horiz-adv-x="807" 
d="M785 169c0 -32.667 -10.3301 -63.0068 -30.9971 -91.0068s-46.334 -47.333 -77.001 -58c-12 -6.66699 -25.833 -11.5 -41.5 -14.5s-31.834 -4.5 -48.501 -4.5h-28c-9.33301 0 -18.666 0.333008 -27.999 1c-19.333 0 -38 -2.33301 -56 -7c-36 0 -67 4 -93 12
s-47 24 -63 48c-10 18 -15 38.667 -15 62c0 8.66699 1 17.667 3 27c3.33301 3.33301 5.33301 5 6 5l134 -3c4 -2.66699 6 -6 6 -10l-4 -23c0 -14.667 4.33301 -27.667 13 -39c16 -14 36.333 -21 61 -21c4 0 8.66699 0.333008 14 1s13.666 1.83398 24.999 3.50098
s26 10.334 44 26.001s29.667 33.834 35 54.501c0 16.667 -3.66699 27 -11 31c-8 7.33301 -17.833 12.5 -29.5 15.5s-24.167 4.5 -37.5 4.5c-8 0 -16 -0.166992 -24 -0.5s-15.667 -0.5 -23 -0.5c-19.333 -2 -32.166 -3.16699 -38.499 -3.5s-16.5 -0.5 -30.5 -0.5
c-27.333 0 -51.333 3.83301 -72 11.5s-37.334 21.5 -50.001 41.5c-10 14 -15 31.667 -15 53c0 16.667 4 32.667 12 48s15.667 26.333 23 33s15.333 10 24 10c8.66699 -1.33301 15 -2 19 -2c8 0 16.5 5.16699 25.5 15.5s14.833 20.833 17.5 31.5s4 27.334 4 50.001
c0 18.667 -8.16699 31.834 -24.5 39.501s-43.5 17.167 -81.5 28.5c-24 -2.66699 -40 -12.5 -48 -29.5s-16 -36.833 -24 -59.5c-6 -30 -12.833 -108.667 -20.5 -236s-11.5 -211 -11.5 -251c-6.66699 -0.666992 -11.334 -1.66699 -14.001 -3
c-20.667 -2.66699 -42.334 -5.66699 -65.001 -9s-42.667 -5 -60 -5c-2 0 -3.5 0.333008 -4.5 1s-0.5 10 1.5 28l9.5 87.5c4.33301 40.333 6.5 74.166 6.5 101.499l-5 6c-10.667 0 -26 -0.666992 -46 -2s-34.333 -2 -43 -2c0 13.333 1.66699 27.166 5 41.499
s7.66602 27.5 12.999 39.5c0 2 2.66699 3.66699 8 5c6 0 12 -0.166992 18 -0.5s12 -0.5 18 -0.5c14.667 0 25.167 1.16699 31.5 3.5s9.5 6.5 9.5 12.5c0 34 1 80 3 138s3 105 3 141c0 12 4.5 24.333 13.5 37s18.833 20.667 29.5 24s21.667 5 33 5c13.333 0 31.333 -3 54 -9
s37.334 -9.33301 44.001 -10c26 20.667 56.333 31 91 31c20.667 0 40.834 -5.16699 60.501 -15.5s43.5 -28.833 71.5 -55.5s42 -53.667 42 -81c0 -33.333 -16.667 -63.666 -50 -90.999s-50 -49.333 -50 -66c0 -7.33301 3.83301 -16.166 11.5 -26.499
s15.167 -17.166 22.5 -20.499s16.5 -5.66602 27.5 -6.99902s23.167 -2 36.5 -2c14 0 35.333 1.33301 64 4s49.667 4 63 4c35.333 0 62 -7 80 -21s27 -41.333 27 -82z" />
    <glyph glyph-name="agrave" unicode="&#xe0;" horiz-adv-x="631" 
d="M609 425c-14 -47.333 -24.501 -93.001 -31.501 -137.001s-10.5 -86.667 -10.5 -128c0 -45.333 4.33301 -97.666 13 -156.999c-1.33301 -4.66699 -3 -7 -5 -7l-145 3c-0.666992 0.666992 -2.33398 3.83398 -5.00098 9.50098s-6 8.5 -10 8.5
c-18 -6.66699 -37 -10.834 -57 -12.501s-45 -2.5 -75 -2.5c-25.333 -6.66699 -49.666 -10 -72.999 -10c-29.333 0 -56.166 5 -80.499 15s-43.666 25.333 -57.999 46s-24.833 42.667 -31.5 66s-10 47.333 -10 72c0 35.333 7.33301 68.666 22 99.999
c16 40.667 43.667 73.834 83 99.501s82 40.5 128 44.5c5.33301 -0.666992 10.333 -1 15 -1h15c12 0 30.667 1 56 3s44.333 3 57 3c14.667 0 28.667 -1 42 -3s25.166 -5.33301 35.499 -10s21.5 -7 33.5 -7c11.333 0 24.833 2.16699 40.5 6.5l44.5 12.5c6 0 9 -1.33301 9 -4z
M445.999 292.999c-3.33301 18 -19.1689 35.999 -47.502 53.999s-55.833 27 -82.5 27c-22.667 -8.66699 -44.167 -21.5 -64.5 -38.5s-37.166 -38 -50.499 -63s-20 -53.167 -20 -84.5c0 -30 7.66699 -55.667 23 -77c8 -14 18.167 -25.333 30.5 -34s25.5 -13 39.5 -13
c6.66699 0 17.834 2.66699 33.501 8s36 19.833 61 43.5s42.167 46.334 51.5 68.001s16.333 39.167 21 52.5s7 26 7 38c0 8.66699 -0.666992 15 -2 19zM436.996 543.998l-64.001 -29c-19.333 14.667 -44.666 29.334 -75.999 44.001s-65.666 29.334 -102.999 44.001
c-0.666992 2.66699 -1 6.66699 -1 12c0 7.33301 2.66699 13.666 8 18.999s13.666 11.166 24.999 17.499s26.333 12.5 45 18.5c41.333 -22.667 77 -45 107 -67s49.667 -39.667 59 -53c1.33301 -2.66699 1.33301 -4.66699 0 -6z" />
    <glyph glyph-name="aacute" unicode="&#xe1;" horiz-adv-x="631" 
d="M609 425c-14 -47.333 -24.501 -93.001 -31.501 -137.001s-10.5 -86.667 -10.5 -128c0 -45.333 4.33301 -97.666 13 -156.999c-1.33301 -4.66699 -3 -7 -5 -7l-145 3c-0.666992 0.666992 -2.33398 3.83398 -5.00098 9.50098s-6 8.5 -10 8.5
c-18 -6.66699 -37 -10.834 -57 -12.501s-45 -2.5 -75 -2.5c-25.333 -6.66699 -49.666 -10 -72.999 -10c-29.333 0 -56.166 5 -80.499 15s-43.666 25.333 -57.999 46s-24.833 42.667 -31.5 66s-10 47.333 -10 72c0 35.333 7.33301 68.666 22 99.999
c16 40.667 43.667 73.834 83 99.501s82 40.5 128 44.5c5.33301 -0.666992 10.333 -1 15 -1h15c12 0 30.667 1 56 3s44.333 3 57 3c14.667 0 28.667 -1 42 -3s25.166 -5.33301 35.499 -10s21.5 -7 33.5 -7c11.333 0 24.833 2.16699 40.5 6.5l44.5 12.5c6 0 9 -1.33301 9 -4z
M445.999 292.999c-3.33301 18 -19.1689 35.999 -47.502 53.999s-55.833 27 -82.5 27c-22.667 -8.66699 -44.167 -21.5 -64.5 -38.5s-37.166 -38 -50.499 -63s-20 -53.167 -20 -84.5c0 -30 7.66699 -55.667 23 -77c8 -14 18.167 -25.333 30.5 -34s25.5 -13 39.5 -13
c6.66699 0 17.834 2.66699 33.501 8s36 19.833 61 43.5s42.167 46.334 51.5 68.001s16.333 39.167 21 52.5s7 26 7 38c0 8.66699 -0.666992 15 -2 19zM444.996 602.998c-46.667 -18.667 -82.668 -33.833 -108.001 -45.5s-49 -25.834 -71 -42.501
c-9.33301 2 -21.333 7 -36 15s-24 12.667 -28 14c-1.33301 1.33301 -1.33301 3.33301 0 6c12.667 18 35.834 38.333 69.501 61s65.834 42.334 96.501 59.001c17.333 -5.33301 32.166 -11.5 44.499 -18.5s21 -13 26 -18s7.5 -11.5 7.5 -19.5c0 -5.33301 -0.333008 -9 -1 -11z
" />
    <glyph glyph-name="acircumflex" unicode="&#xe2;" horiz-adv-x="631" 
d="M609 425c-14 -47.333 -24.501 -93.001 -31.501 -137.001s-10.5 -86.667 -10.5 -128c0 -45.333 4.33301 -97.666 13 -156.999c-1.33301 -4.66699 -3 -7 -5 -7l-145 3c-0.666992 0.666992 -2.33398 3.83398 -5.00098 9.50098s-6 8.5 -10 8.5
c-18 -6.66699 -37 -10.834 -57 -12.501s-45 -2.5 -75 -2.5c-25.333 -6.66699 -49.666 -10 -72.999 -10c-29.333 0 -56.166 5 -80.499 15s-43.666 25.333 -57.999 46s-24.833 42.667 -31.5 66s-10 47.333 -10 72c0 35.333 7.33301 68.666 22 99.999
c16 40.667 43.667 73.834 83 99.501s82 40.5 128 44.5c5.33301 -0.666992 10.333 -1 15 -1h15c12 0 30.667 1 56 3s44.333 3 57 3c14.667 0 28.667 -1 42 -3s25.166 -5.33301 35.499 -10s21.5 -7 33.5 -7c11.333 0 24.833 2.16699 40.5 6.5l44.5 12.5c6 0 9 -1.33301 9 -4z
M445.999 292.999c-3.33301 18 -19.1689 35.999 -47.502 53.999s-55.833 27 -82.5 27c-22.667 -8.66699 -44.167 -21.5 -64.5 -38.5s-37.166 -38 -50.499 -63s-20 -53.167 -20 -84.5c0 -30 7.66699 -55.667 23 -77c8 -14 18.167 -25.333 30.5 -34s25.5 -13 39.5 -13
c6.66699 0 17.834 2.66699 33.501 8s36 19.833 61 43.5s42.167 46.334 51.5 68.001s16.333 39.167 21 52.5s7 26 7 38c0 8.66699 -0.666992 15 -2 19zM499.996 531.998l-63.9971 -26.001c-12.667 9.33301 -28.334 19.333 -47.001 30s-38.334 20.334 -59.001 29.001
c-23.333 -10.667 -43 -20.334 -59 -29.001s-31.667 -18.667 -47 -30c-10 2 -22.5 6.66699 -37.5 14s-23.833 11.333 -26.5 12v11c10.667 14.667 39.334 37.334 86.001 68.001s74.667 46 84 46s37.166 -15 83.499 -45s75.166 -53 86.499 -69v-11z" />
    <glyph glyph-name="atilde" unicode="&#xe3;" horiz-adv-x="631" 
d="M609 425c-14 -47.333 -24.501 -93.001 -31.501 -137.001s-10.5 -86.667 -10.5 -128c0 -45.333 4.33301 -97.666 13 -156.999c-1.33301 -4.66699 -3 -7 -5 -7l-145 3c-0.666992 0.666992 -2.33398 3.83398 -5.00098 9.50098s-6 8.5 -10 8.5
c-18 -6.66699 -37 -10.834 -57 -12.501s-45 -2.5 -75 -2.5c-25.333 -6.66699 -49.666 -10 -72.999 -10c-29.333 0 -56.166 5 -80.499 15s-43.666 25.333 -57.999 46s-24.833 42.667 -31.5 66s-10 47.333 -10 72c0 35.333 7.33301 68.666 22 99.999
c16 40.667 43.667 73.834 83 99.501s82 40.5 128 44.5c5.33301 -0.666992 10.333 -1 15 -1h15c12 0 30.667 1 56 3s44.333 3 57 3c14.667 0 28.667 -1 42 -3s25.166 -5.33301 35.499 -10s21.5 -7 33.5 -7c11.333 0 24.833 2.16699 40.5 6.5l44.5 12.5c6 0 9 -1.33301 9 -4z
M445.999 292.999c-3.33301 18 -19.1689 35.999 -47.502 53.999s-55.833 27 -82.5 27c-22.667 -8.66699 -44.167 -21.5 -64.5 -38.5s-37.166 -38 -50.499 -63s-20 -53.167 -20 -84.5c0 -30 7.66699 -55.667 23 -77c8 -14 18.167 -25.333 30.5 -34s25.5 -13 39.5 -13
c6.66699 0 17.834 2.66699 33.501 8s36 19.833 61 43.5s42.167 46.334 51.5 68.001s16.333 39.167 21 52.5s7 26 7 38c0 8.66699 -0.666992 15 -2 19zM495.996 575.998c-16 -12.667 -31.6699 -23.832 -47.0029 -33.499s-31 -14.5 -47 -14.5
c-9.33301 0 -32.166 7.16699 -68.499 21.5s-62.166 21.5 -77.499 21.5c-9.33301 0 -18 -4.83301 -26 -14.5l-24 -28.5c-11.333 6 -22 11 -32 15s-20.667 7.66699 -32 11v11c12.667 17.333 31.167 34.666 55.5 51.999s44.5 26 60.5 26s37.167 -4.33301 63.5 -13l80.5 -27
c12 0 23.5 5 34.5 15s18.833 15.667 23.5 17c2.66699 -0.666992 5.33398 -1 8.00098 -1c2 -7.33301 6.66699 -17.5 14 -30.5s12 -22.167 14 -27.5z" />
    <glyph glyph-name="adieresis" unicode="&#xe4;" horiz-adv-x="631" 
d="M609 425c-14 -47.333 -24.501 -93.001 -31.501 -137.001s-10.5 -86.667 -10.5 -128c0 -45.333 4.33301 -97.666 13 -156.999c-1.33301 -4.66699 -3 -7 -5 -7l-145 3c-0.666992 0.666992 -2.33398 3.83398 -5.00098 9.50098s-6 8.5 -10 8.5
c-18 -6.66699 -37 -10.834 -57 -12.501s-45 -2.5 -75 -2.5c-25.333 -6.66699 -49.666 -10 -72.999 -10c-29.333 0 -56.166 5 -80.499 15s-43.666 25.333 -57.999 46s-24.833 42.667 -31.5 66s-10 47.333 -10 72c0 35.333 7.33301 68.666 22 99.999
c16 40.667 43.667 73.834 83 99.501s82 40.5 128 44.5c5.33301 -0.666992 10.333 -1 15 -1h15c12 0 30.667 1 56 3s44.333 3 57 3c14.667 0 28.667 -1 42 -3s25.166 -5.33301 35.499 -10s21.5 -7 33.5 -7c11.333 0 24.833 2.16699 40.5 6.5l44.5 12.5c6 0 9 -1.33301 9 -4z
M445.999 292.999c-3.33301 18 -19.1689 35.999 -47.502 53.999s-55.833 27 -82.5 27c-22.667 -8.66699 -44.167 -21.5 -64.5 -38.5s-37.166 -38 -50.499 -63s-20 -53.167 -20 -84.5c0 -30 7.66699 -55.667 23 -77c8 -14 18.167 -25.333 30.5 -34s25.5 -13 39.5 -13
c6.66699 0 17.834 2.66699 33.501 8s36 19.833 61 43.5s42.167 46.334 51.5 68.001s16.333 39.167 21 52.5s7 26 7 38c0 8.66699 -0.666992 15 -2 19zM537.996 613.998c-14 -14 -33.834 -31.332 -59.501 -51.999s-41.167 -33.334 -46.5 -38.001
c-13.333 4.66699 -27.166 11.667 -41.499 21l-41.5 28c-2 2.66699 -0.833008 5.83398 3.5 9.50098s10 9.16699 17 16.5l28 29.5c11.667 12.333 25.167 25.833 40.5 40.5c11.333 -4 24.333 -9.83301 39 -17.5l33 -17.5c2 -2.66699 6.66699 -5.33398 14 -8.00098
s12 -6.66699 14 -12zM312.995 613.999c-14 -14 -33.834 -31.332 -59.501 -51.999s-41.167 -33.334 -46.5 -38.001c-13.333 4.66699 -27.166 11.667 -41.499 21l-41.5 28c-2 2.66699 -0.833008 5.83398 3.5 9.50098s10 9.16699 17 16.5l28 29.5
c11.667 12.333 25.167 25.833 40.5 40.5c11.333 -4 24.333 -9.83301 39 -17.5l33 -17.5c2 -2.66699 6.66699 -5.33398 14 -8.00098s12 -6.66699 14 -12z" />
    <glyph glyph-name="aring" unicode="&#xe5;" horiz-adv-x="631" 
d="M609 425c-14 -47.333 -24.501 -93.001 -31.501 -137.001s-10.5 -86.667 -10.5 -128c0 -45.333 4.33301 -97.666 13 -156.999c-1.33301 -4.66699 -3 -7 -5 -7l-145 3c-0.666992 0.666992 -2.33398 3.83398 -5.00098 9.50098s-6 8.5 -10 8.5
c-18 -6.66699 -37 -10.834 -57 -12.501s-45 -2.5 -75 -2.5c-25.333 -6.66699 -49.666 -10 -72.999 -10c-29.333 0 -56.166 5 -80.499 15s-43.666 25.333 -57.999 46s-24.833 42.667 -31.5 66s-10 47.333 -10 72c0 35.333 7.33301 68.666 22 99.999
c16 40.667 43.667 73.834 83 99.501s82 40.5 128 44.5c5.33301 -0.666992 10.333 -1 15 -1h15c12 0 30.667 1 56 3s44.333 3 57 3c14.667 0 28.667 -1 42 -3s25.166 -5.33301 35.499 -10s21.5 -7 33.5 -7c11.333 0 24.833 2.16699 40.5 6.5l44.5 12.5c6 0 9 -1.33301 9 -4z
M445.999 292.999c-3.33301 18 -19.1689 35.999 -47.502 53.999s-55.833 27 -82.5 27c-22.667 -8.66699 -44.167 -21.5 -64.5 -38.5s-37.166 -38 -50.499 -63s-20 -53.167 -20 -84.5c0 -30 7.66699 -55.667 23 -77c8 -14 18.167 -25.333 30.5 -34s25.5 -13 39.5 -13
c6.66699 0 17.834 2.66699 33.501 8s36 19.833 61 43.5s42.167 46.334 51.5 68.001s16.333 39.167 21 52.5s7 26 7 38c0 8.66699 -0.666992 15 -2 19zM414.996 619.998c0 -28.667 -10 -53 -30 -73s-44.667 -30 -74 -30c-28.667 0 -53 10 -73 30s-30 44.333 -30 73
c0 28 10 52.333 30 73s44.333 31 73 31c29.333 0 54 -10 74 -30s30 -44.667 30 -74zM363.996 619.998c0 15.333 -4.99805 27.999 -14.998 37.999s-22.667 15 -38 15c-14.667 0 -27.334 -5 -38.001 -15s-16 -22.667 -16 -38s5.16699 -28.166 15.5 -38.499
s23.166 -15.5 38.499 -15.5s28 5 38 15s15 23 15 39z" />
    <glyph glyph-name="ae" unicode="&#xe6;" horiz-adv-x="974" 
d="M950 142l-74.0059 -145.002l-8 -5c-26 0 -65.833 1.5 -119.5 4.5s-84.834 4.5 -93.501 4.5c-14 0 -27.667 -0.333008 -41 -1s-26.333 -2 -39 -4l-145 3c-0.666992 0.666992 0 7.83398 2 21.501s1.33301 20.5 -2 20.5c-36.667 -13.333 -65.334 -23.166 -86.001 -29.499
s-41 -9.5 -61 -9.5c-25.333 -6.66699 -49.666 -10 -72.999 -10c-29.333 0 -56.166 5 -80.499 15s-43.666 25.333 -57.999 46s-24.833 42.667 -31.5 66s-10 47.333 -10 72c0 35.333 7.33301 68.666 22 99.999c16 40.667 43.667 73.834 83 99.501s82 40.5 128 44.5
c5.33301 -0.666992 10.333 -1 15 -1h15c12 0 30.667 1 56 3s44.333 3 57 3c14.667 0 28.667 -1 42 -3s26 -6 38 -12c13.333 -4.66699 30 -7 50 -7c15.333 0 28.833 0.833008 40.5 2.5s22.5 3.83398 32.5 6.50098c6.66699 0 15.5 0.833008 26.5 2.5s17.5 2.5 19.5 2.5l63 6
c22 2 38.333 3 49 3c24 0 44.667 -1.83301 62 -5.5s32.333 -9.66699 45 -18s23.334 -14.833 32.001 -19.5c8.66699 -7.33301 18.167 -20.833 28.5 -40.5s15.5 -42.5 15.5 -68.5c0 -30 -6.66699 -56.667 -20 -80l-9 -4c-24.667 3.33301 -47.167 5.33301 -67.5 6
s-47.166 1 -80.499 1c-49.333 0 -88.666 -0.333008 -117.999 -1s-56.666 -1.33398 -81.999 -2.00098l-4 -49c0 -16 4.83301 -31.5 14.5 -46.5s25.334 -28.333 47.001 -40s48.5 -17.5 80.5 -17.5c22.667 0 43 4.33301 61 13c22.667 7.33301 46.5 16.333 71.5 27
s60.5 29 106.5 55v-9zM822.994 289.998c2 5.33301 2.49805 10.6689 1.49805 16.002s-2.66699 10.833 -5 16.5s-11.666 15.667 -27.999 30s-30.666 22.666 -42.999 24.999s-22.166 3.5 -29.499 3.5c-18.667 0 -35.834 -5.33301 -51.501 -16s-31.5 -25.334 -47.5 -44.001
c-4 -6 -7.16699 -11.167 -9.5 -15.5s-3.5 -8.16602 -3.5 -11.499c0 -2.66699 1.33301 -5.33398 4 -8.00098c10 -2 20.5 -3.33301 31.5 -4s23.833 -1 38.5 -1c20.667 0 47 0.833008 79 2.5s50 2.5 54 2.5zM441.992 283.001c0 16 -15.0029 35.1689 -45.0029 57.502
s-57 33.5 -81 33.5c-22.667 -8.66699 -44.167 -21.5 -64.5 -38.5s-37.166 -38 -50.499 -63s-20 -53.167 -20 -84.5c0 -30 7.66699 -55.667 23 -77c8 -14 18.167 -25.333 30.5 -34s25.5 -13 39.5 -13c6.66699 0 17.834 2.66699 33.501 8s37.334 17.166 65.001 35.499
s47.5 38.166 59.5 59.499c6.66699 41.333 10 80 10 116z" />
    <glyph glyph-name="ccedilla" unicode="&#xe7;" horiz-adv-x="586" 
d="M582 426c-15.333 -19.333 -31.8281 -38.0049 -49.4951 -56.0049s-34.167 -32 -49.5 -42l-66 23c-42 14.667 -71 22 -87 22c-14.667 0 -28.334 -2.66699 -41.001 -8c-36 -23.333 -64.833 -50.166 -86.5 -80.499s-32.5 -65.166 -32.5 -104.499
c4 -25.333 11 -48.166 21 -68.499s25 -35.166 45 -44.499c25.333 -14 52.666 -21 81.999 -21c36 0 77.167 11.667 123.5 35l132.5 67l-64 -141c-24 -4.66699 -48.333 -7.83398 -73 -9.50098s-55 -2.5 -91 -2.5l-2 -3l-14 -29l-3 -17c7.33301 2 13 3.33301 17 4
s8.66699 1 14 1c25.333 0 45.166 -5 59.499 -15s21.5 -24 21.5 -42c0 -24 -12 -44.167 -36 -60.5s-54.667 -24.5 -92 -24.5c-36 0 -76.333 11.333 -121 34c3.33301 4.66699 7 11 11 19s7 13.333 9 16c25.333 -19.333 54.333 -29 87 -29c36.667 0 55 11.667 55 35
c0 9.33301 -2.5 16 -7.5 20s-14.5 6 -28.5 6c-12.667 0 -23.5 -0.333008 -32.5 -1s-19.5 -3 -31.5 -7c6 9.33301 11.833 19.5 17.5 30.5l13.5 26.5l18 36l-65 -2h-22c-7.33301 0 -15 -0.333008 -23 -1c-10.667 0 -20.667 0.666992 -30 2s-17.333 4.33301 -24 9
c-33.333 16.667 -59.5 41 -78.5 73s-28.5 66.667 -28.5 104c0 38.667 8.66699 73.334 26 104.001s42.666 60 75.999 88c42 20 94.167 35.667 156.5 47s150.833 17 265.5 17c2 -2.66699 7.83301 -2.5 17.5 0.5s15.167 4.5 16.5 4.5c2 0 2.66699 -1.16699 2 -3.5
s-3.33398 -6.16602 -8.00098 -11.499z" />
    <glyph glyph-name="egrave" unicode="&#xe8;" horiz-adv-x="600" 
d="M566 139l-74.0039 -144.996c-2.66699 -1.33301 -5.33398 -3 -8.00098 -5c-20.667 0 -52.667 1.66699 -96 5s-72 5 -86 5c-8 0 -15.167 -0.166992 -21.5 -0.5s-20.5 -1.83301 -42.5 -4.5c-48 0 -83.667 4.66699 -107 14s-42.5 22.666 -57.5 39.999s-26 37.166 -33 59.499
s-10.5 46.166 -10.5 71.499c0 38 8.33301 75.5 25 112.5s45.5 69.167 86.5 96.5s84.167 41 129.5 41l63 6c22 2 38.333 3 49 3c24 0 44.667 -1.83301 62 -5.5s32.333 -9.66699 45 -18s23.334 -14.833 32.001 -19.5c8.66699 -7.33301 18.167 -20.833 28.5 -40.5
s15.5 -42.5 15.5 -68.5c0 -30 -6.66699 -56.667 -20 -80c-4.66699 -1.33301 -7.66699 -2.66602 -9 -3.99902c-24.667 3.33301 -47.167 5.33301 -67.5 6s-47.166 1 -80.499 1c-49.333 0 -88.666 -0.333008 -117.999 -1s-56.666 -1.33398 -81.999 -2.00098
c-4 -4 -6 -10.667 -6 -20c0 -5.33301 0.333008 -11.333 1 -18s1 -10.334 1 -11.001c0 -16 4.83301 -31.5 14.5 -46.5s25.334 -28.333 47.001 -40s48.5 -17.5 80.5 -17.5c22.667 0 43 4.33301 61 13c22.667 7.33301 46.5 16.333 71.5 27s60.5 29 106.5 55
c0.666992 -1.33301 0.666992 -4.33301 0 -9zM414.996 287.004c2 5.33301 2.49805 10.6699 1.49805 16.0029s-2.66699 10.833 -5 16.5s-11.666 15.667 -27.999 30s-30.666 22.666 -42.999 24.999s-22.166 3.5 -29.499 3.5c-18.667 0 -35.834 -5.33301 -51.501 -16
s-31.5 -25.334 -47.5 -44.001c-4 -6 -7.16699 -11.167 -9.5 -15.5s-3.5 -8.16602 -3.5 -11.499c0 -2.66699 1.33301 -5.33398 4 -8.00098c10 -2 20.5 -3.33301 31.5 -4s23.833 -1 38.5 -1c20.667 0 47 0.833008 79 2.5s50 2.5 54 2.5
c4.66699 1.33301 7.66699 2.66602 9 3.99902zM436.994 544.008l-64.001 -29c-19.333 14.667 -44.666 29.334 -75.999 44.001s-65.666 29.334 -102.999 44.001c-0.666992 2.66699 -1 6.66699 -1 12c0 7.33301 2.66699 13.666 8 18.999s13.666 11.166 24.999 17.499
s26.333 12.5 45 18.5c41.333 -22.667 77 -45 107 -67s49.667 -39.667 59 -53c1.33301 -2.66699 1.33301 -4.66699 0 -6z" />
    <glyph glyph-name="eacute" unicode="&#xe9;" horiz-adv-x="600" 
d="M566 139l-74.0039 -144.996c-2.66699 -1.33301 -5.33398 -3 -8.00098 -5c-20.667 0 -52.667 1.66699 -96 5s-72 5 -86 5c-8 0 -15.167 -0.166992 -21.5 -0.5s-20.5 -1.83301 -42.5 -4.5c-48 0 -83.667 4.66699 -107 14s-42.5 22.666 -57.5 39.999s-26 37.166 -33 59.499
s-10.5 46.166 -10.5 71.499c0 38 8.33301 75.5 25 112.5s45.5 69.167 86.5 96.5s84.167 41 129.5 41l63 6c22 2 38.333 3 49 3c24 0 44.667 -1.83301 62 -5.5s32.333 -9.66699 45 -18s23.334 -14.833 32.001 -19.5c8.66699 -7.33301 18.167 -20.833 28.5 -40.5
s15.5 -42.5 15.5 -68.5c0 -30 -6.66699 -56.667 -20 -80c-4.66699 -1.33301 -7.66699 -2.66602 -9 -3.99902c-24.667 3.33301 -47.167 5.33301 -67.5 6s-47.166 1 -80.499 1c-49.333 0 -88.666 -0.333008 -117.999 -1s-56.666 -1.33398 -81.999 -2.00098
c-4 -4 -6 -10.667 -6 -20c0 -5.33301 0.333008 -11.333 1 -18s1 -10.334 1 -11.001c0 -16 4.83301 -31.5 14.5 -46.5s25.334 -28.333 47.001 -40s48.5 -17.5 80.5 -17.5c22.667 0 43 4.33301 61 13c22.667 7.33301 46.5 16.333 71.5 27s60.5 29 106.5 55
c0.666992 -1.33301 0.666992 -4.33301 0 -9zM414.996 287.004c2 5.33301 2.49805 10.6699 1.49805 16.0029s-2.66699 10.833 -5 16.5s-11.666 15.667 -27.999 30s-30.666 22.666 -42.999 24.999s-22.166 3.5 -29.499 3.5c-18.667 0 -35.834 -5.33301 -51.501 -16
s-31.5 -25.334 -47.5 -44.001c-4 -6 -7.16699 -11.167 -9.5 -15.5s-3.5 -8.16602 -3.5 -11.499c0 -2.66699 1.33301 -5.33398 4 -8.00098c10 -2 20.5 -3.33301 31.5 -4s23.833 -1 38.5 -1c20.667 0 47 0.833008 79 2.5s50 2.5 54 2.5
c4.66699 1.33301 7.66699 2.66602 9 3.99902zM444.994 603.008c-46.667 -18.667 -82.668 -33.833 -108.001 -45.5s-49 -25.834 -71 -42.501c-9.33301 2 -21.333 7 -36 15s-24 12.667 -28 14c-1.33301 1.33301 -1.33301 3.33301 0 6c12.667 18 35.834 38.333 69.501 61
s65.834 42.334 96.501 59.001c17.333 -5.33301 32.166 -11.5 44.499 -18.5s21 -13 26 -18s7.5 -11.5 7.5 -19.5c0 -5.33301 -0.333008 -9 -1 -11z" />
    <glyph glyph-name="ecircumflex" unicode="&#xea;" horiz-adv-x="600" 
d="M566 139l-74.0039 -144.996c-2.66699 -1.33301 -5.33398 -3 -8.00098 -5c-20.667 0 -52.667 1.66699 -96 5s-72 5 -86 5c-8 0 -15.167 -0.166992 -21.5 -0.5s-20.5 -1.83301 -42.5 -4.5c-48 0 -83.667 4.66699 -107 14s-42.5 22.666 -57.5 39.999s-26 37.166 -33 59.499
s-10.5 46.166 -10.5 71.499c0 38 8.33301 75.5 25 112.5s45.5 69.167 86.5 96.5s84.167 41 129.5 41l63 6c22 2 38.333 3 49 3c24 0 44.667 -1.83301 62 -5.5s32.333 -9.66699 45 -18s23.334 -14.833 32.001 -19.5c8.66699 -7.33301 18.167 -20.833 28.5 -40.5
s15.5 -42.5 15.5 -68.5c0 -30 -6.66699 -56.667 -20 -80c-4.66699 -1.33301 -7.66699 -2.66602 -9 -3.99902c-24.667 3.33301 -47.167 5.33301 -67.5 6s-47.166 1 -80.499 1c-49.333 0 -88.666 -0.333008 -117.999 -1s-56.666 -1.33398 -81.999 -2.00098
c-4 -4 -6 -10.667 -6 -20c0 -5.33301 0.333008 -11.333 1 -18s1 -10.334 1 -11.001c0 -16 4.83301 -31.5 14.5 -46.5s25.334 -28.333 47.001 -40s48.5 -17.5 80.5 -17.5c22.667 0 43 4.33301 61 13c22.667 7.33301 46.5 16.333 71.5 27s60.5 29 106.5 55
c0.666992 -1.33301 0.666992 -4.33301 0 -9zM414.996 287.004c2 5.33301 2.49805 10.6699 1.49805 16.0029s-2.66699 10.833 -5 16.5s-11.666 15.667 -27.999 30s-30.666 22.666 -42.999 24.999s-22.166 3.5 -29.499 3.5c-18.667 0 -35.834 -5.33301 -51.501 -16
s-31.5 -25.334 -47.5 -44.001c-4 -6 -7.16699 -11.167 -9.5 -15.5s-3.5 -8.16602 -3.5 -11.499c0 -2.66699 1.33301 -5.33398 4 -8.00098c10 -2 20.5 -3.33301 31.5 -4s23.833 -1 38.5 -1c20.667 0 47 0.833008 79 2.5s50 2.5 54 2.5
c4.66699 1.33301 7.66699 2.66602 9 3.99902zM463.994 532.008l-63.9971 -26.001c-12.667 9.33301 -28.334 19.333 -47.001 30s-38.334 20.334 -59.001 29.001c-23.333 -10.667 -43 -20.334 -59 -29.001s-31.667 -18.667 -47 -30c-10 2 -22.5 6.66699 -37.5 14
s-23.833 11.333 -26.5 12v11c10.667 14.667 39.334 37.334 86.001 68.001s74.667 46 84 46s37.166 -15 83.499 -45s75.166 -53 86.499 -69v-11z" />
    <glyph glyph-name="edieresis" unicode="&#xeb;" horiz-adv-x="600" 
d="M566 139l-74.0039 -144.996c-2.66699 -1.33301 -5.33398 -3 -8.00098 -5c-20.667 0 -52.667 1.66699 -96 5s-72 5 -86 5c-8 0 -15.167 -0.166992 -21.5 -0.5s-20.5 -1.83301 -42.5 -4.5c-48 0 -83.667 4.66699 -107 14s-42.5 22.666 -57.5 39.999s-26 37.166 -33 59.499
s-10.5 46.166 -10.5 71.499c0 38 8.33301 75.5 25 112.5s45.5 69.167 86.5 96.5s84.167 41 129.5 41l63 6c22 2 38.333 3 49 3c24 0 44.667 -1.83301 62 -5.5s32.333 -9.66699 45 -18s23.334 -14.833 32.001 -19.5c8.66699 -7.33301 18.167 -20.833 28.5 -40.5
s15.5 -42.5 15.5 -68.5c0 -30 -6.66699 -56.667 -20 -80c-4.66699 -1.33301 -7.66699 -2.66602 -9 -3.99902c-24.667 3.33301 -47.167 5.33301 -67.5 6s-47.166 1 -80.499 1c-49.333 0 -88.666 -0.333008 -117.999 -1s-56.666 -1.33398 -81.999 -2.00098
c-4 -4 -6 -10.667 -6 -20c0 -5.33301 0.333008 -11.333 1 -18s1 -10.334 1 -11.001c0 -16 4.83301 -31.5 14.5 -46.5s25.334 -28.333 47.001 -40s48.5 -17.5 80.5 -17.5c22.667 0 43 4.33301 61 13c22.667 7.33301 46.5 16.333 71.5 27s60.5 29 106.5 55
c0.666992 -1.33301 0.666992 -4.33301 0 -9zM414.996 287.004c2 5.33301 2.49805 10.6699 1.49805 16.0029s-2.66699 10.833 -5 16.5s-11.666 15.667 -27.999 30s-30.666 22.666 -42.999 24.999s-22.166 3.5 -29.499 3.5c-18.667 0 -35.834 -5.33301 -51.501 -16
s-31.5 -25.334 -47.5 -44.001c-4 -6 -7.16699 -11.167 -9.5 -15.5s-3.5 -8.16602 -3.5 -11.499c0 -2.66699 1.33301 -5.33398 4 -8.00098c10 -2 20.5 -3.33301 31.5 -4s23.833 -1 38.5 -1c20.667 0 47 0.833008 79 2.5s50 2.5 54 2.5
c4.66699 1.33301 7.66699 2.66602 9 3.99902zM513.994 614.008c-14 -14 -33.834 -31.332 -59.501 -51.999s-41.167 -33.334 -46.5 -38.001c-13.333 4.66699 -27.166 11.667 -41.499 21l-41.5 28c-2 2.66699 -0.833008 5.83398 3.5 9.50098s10 9.16699 17 16.5l28 29.5
c11.667 12.333 25.167 25.833 40.5 40.5c11.333 -4 24.333 -9.83301 39 -17.5l33 -17.5c2 -2.66699 6.66699 -5.33398 14 -8.00098s12 -6.66699 14 -12zM288.993 614.009c-14 -14 -33.834 -31.332 -59.501 -51.999s-41.167 -33.334 -46.5 -38.001
c-13.333 4.66699 -27.166 11.667 -41.499 21l-41.5 28c-2 2.66699 -0.833008 5.83398 3.5 9.50098s10 9.16699 17 16.5l28 29.5c11.667 12.333 25.167 25.833 40.5 40.5c11.333 -4 24.333 -9.83301 39 -17.5l33 -17.5c2 -2.66699 6.66699 -5.33398 14 -8.00098
s12 -6.66699 14 -12z" />
    <glyph glyph-name="igrave" unicode="&#xec;" horiz-adv-x="275" 
d="M222 443c0 -14 -1.5 -33.835 -4.5 -59.502s-4.5 -40.5 -4.5 -44.5c0 -39.333 0.666992 -104.166 2 -194.499s2 -137.166 2 -140.499l1 -5l-161 2c0 14.667 1.66699 30.334 5 47.001l10 50c1.33301 14 2.33301 35.833 3 65.5s1 52.5 1 68.5v81
c-3.33301 21.333 -13 41.666 -29 60.999l-40 49c1.33301 2 3.66602 3 6.99902 3s5.33301 0.333008 6 1c18 0 50.833 4.5 98.5 13.5s74.834 13.5 81.501 13.5c14.667 0 22 -3.66699 22 -11zM263 543.998l-64.001 -29c-19.333 14.667 -44.666 29.334 -75.999 44.001
s-65.666 29.334 -102.999 44.001c-0.666992 2.66699 -1 6.66699 -1 12c0 7.33301 2.66699 13.666 8 18.999s13.666 11.166 24.999 17.499s26.333 12.5 45 18.5c41.333 -22.667 77 -45 107 -67s49.667 -39.667 59 -53c1.33301 -2.66699 1.33301 -4.66699 0 -6z" />
    <glyph glyph-name="iacute" unicode="&#xed;" horiz-adv-x="275" 
d="M222 443c0 -14 -1.5 -33.835 -4.5 -59.502s-4.5 -40.5 -4.5 -44.5c0 -39.333 0.666992 -104.166 2 -194.499s2 -137.166 2 -140.499l1 -5l-161 2c0 14.667 1.66699 30.334 5 47.001l10 50c1.33301 14 2.33301 35.833 3 65.5s1 52.5 1 68.5v81
c-3.33301 21.333 -13 41.666 -29 60.999l-40 49c1.33301 2 3.66602 3 6.99902 3s5.33301 0.333008 6 1c18 0 50.833 4.5 98.5 13.5s74.834 13.5 81.501 13.5c14.667 0 22 -3.66699 22 -11zM265 602.998c-46.667 -18.667 -82.668 -33.833 -108.001 -45.5
s-49 -25.834 -71 -42.501c-9.33301 2 -21.333 7 -36 15s-24 12.667 -28 14c-1.33301 1.33301 -1.33301 3.33301 0 6c12.667 18 35.834 38.333 69.501 61s65.834 42.334 96.501 59.001c17.333 -5.33301 32.166 -11.5 44.499 -18.5s21 -13 26 -18s7.5 -11.5 7.5 -19.5
c0 -5.33301 -0.333008 -9 -1 -11z" />
    <glyph glyph-name="icircumflex" unicode="&#xee;" horiz-adv-x="275" 
d="M222 443c0 -14 -1.5 -33.835 -4.5 -59.502s-4.5 -40.5 -4.5 -44.5c0 -39.333 0.666992 -104.166 2 -194.499s2 -137.166 2 -140.499l1 -5l-161 2c0 14.667 1.66699 30.334 5 47.001l10 50c1.33301 14 2.33301 35.833 3 65.5s1 52.5 1 68.5v81
c-3.33301 21.333 -13 41.666 -29 60.999l-40 49c1.33301 2 3.66602 3 6.99902 3s5.33301 0.333008 6 1c18 0 50.833 4.5 98.5 13.5s74.834 13.5 81.501 13.5c14.667 0 22 -3.66699 22 -11zM302 531.998l-63.9971 -26.001c-12.667 9.33301 -28.334 19.333 -47.001 30
s-38.334 20.334 -59.001 29.001c-23.333 -10.667 -43 -20.334 -59 -29.001s-31.667 -18.667 -47 -30c-10 2 -22.5 6.66699 -37.5 14s-23.833 11.333 -26.5 12v11c10.667 14.667 39.334 37.334 86.001 68.001s74.667 46 84 46s37.166 -15 83.499 -45s75.166 -53 86.499 -69
v-11z" />
    <glyph glyph-name="idieresis" unicode="&#xef;" horiz-adv-x="275" 
d="M222 443c0 -14 -1.5 -33.835 -4.5 -59.502s-4.5 -40.5 -4.5 -44.5c0 -39.333 0.666992 -104.166 2 -194.499s2 -137.166 2 -140.499l1 -5l-161 2c0 14.667 1.66699 30.334 5 47.001l10 50c1.33301 14 2.33301 35.833 3 65.5s1 52.5 1 68.5v81
c-3.33301 21.333 -13 41.666 -29 60.999l-40 49c1.33301 2 3.66602 3 6.99902 3s5.33301 0.333008 6 1c18 0 50.833 4.5 98.5 13.5s74.834 13.5 81.501 13.5c14.667 0 22 -3.66699 22 -11zM352 613.998c-14 -14 -33.834 -31.332 -59.501 -51.999
s-41.167 -33.334 -46.5 -38.001c-13.333 4.66699 -27.166 11.667 -41.499 21l-41.5 28c-2 2.66699 -0.833008 5.83398 3.5 9.50098s10 9.16699 17 16.5l28 29.5c11.667 12.333 25.167 25.833 40.5 40.5c11.333 -4 24.333 -9.83301 39 -17.5l33 -17.5
c2 -2.66699 6.66699 -5.33398 14 -8.00098s12 -6.66699 14 -12zM126.999 613.999c-14 -14 -33.834 -31.332 -59.501 -51.999s-41.167 -33.334 -46.5 -38.001c-13.333 4.66699 -27.166 11.667 -41.499 21l-41.5 28c-2 2.66699 -0.833008 5.83398 3.5 9.50098
s10 9.16699 17 16.5l28 29.5c11.667 12.333 25.167 25.833 40.5 40.5c11.333 -4 24.333 -9.83301 39 -17.5l33 -17.5c2 -2.66699 6.66699 -5.33398 14 -8.00098s12 -6.66699 14 -12z" />
    <glyph glyph-name="eth" unicode="&#xf0;" 
 />
    <glyph glyph-name="ntilde" unicode="&#xf1;" horiz-adv-x="664" 
d="M639 94c-6 -12.667 -13.834 -27.5029 -23.501 -44.5029l-27.5 -48.5l-6 -6c-23.333 2 -50.5 3.5 -81.5 4.5s-65.167 1.5 -102.5 1.5h-110l76.5 70.5c21.667 20.333 40.167 41.5 55.5 63.5c12 20.667 22.167 42 30.5 64s12.5 43 12.5 63c0 12 -1.83301 23.667 -5.5 35
s-9.5 22 -17.5 32s-18.167 17.833 -30.5 23.5s-26.833 9.5 -43.5 11.5c-37.333 -6 -70.833 -24.667 -100.5 -56s-48.834 -59.666 -57.501 -84.999s-14 -45.833 -16 -61.5s-3 -30.167 -3 -43.5c0 -16.667 0.833008 -38.834 2.5 -66.501s2.5 -43.5 2.5 -47.5l-1 -3h-156l-3 2
c10.667 47.333 19.5 89.666 26.5 126.999s10.5 73 10.5 107c0 36 -3.66699 67.667 -11 95s-20.333 53.333 -39 78v6c29.333 0 57.833 1.33301 85.5 4s53.834 7.33398 78.501 14.001c8 2.66699 13 1 15 -5c1.33301 -9.33301 2.33301 -15.666 3 -18.999s1.5 -6.5 2.5 -9.5
s3.83301 -5.5 8.5 -7.5c28.667 8.66699 55 15.167 79 19.5s50.333 6.5 79 6.5c14.667 3.33301 30.834 6.33301 48.501 9s34.167 4 49.5 4c18 0 34 -1.66699 48 -5s29.333 -11.166 46 -23.499s29.5 -29.666 38.5 -51.999s13.5 -47.5 13.5 -75.5v-16
c-1.33301 -8 -3 -20 -5 -36s-9.83301 -37.667 -23.5 -65s-31.167 -53.333 -52.5 -78c0 -8 2 -12 6 -12l53 12.5c13.333 3 28.333 7.16699 45 12.5zM495.999 575.997c-16 -12.667 -31.6699 -23.832 -47.0029 -33.499s-31 -14.5 -47 -14.5
c-9.33301 0 -32.166 7.16699 -68.499 21.5s-62.166 21.5 -77.499 21.5c-9.33301 0 -18 -4.83301 -26 -14.5l-24 -28.5c-11.333 6 -22 11 -32 15s-20.667 7.66699 -32 11v11c12.667 17.333 31.167 34.666 55.5 51.999s44.5 26 60.5 26s37.167 -4.33301 63.5 -13l80.5 -27
c12 0 23.5 5 34.5 15s18.833 15.667 23.5 17c2.66699 -0.666992 5.33398 -1 8.00098 -1c2 -7.33301 6.66699 -17.5 14 -30.5s12 -22.167 14 -27.5z" />
    <glyph glyph-name="ograve" unicode="&#xf2;" horiz-adv-x="620" 
d="M560 347c17.333 -31.333 25.999 -67.999 25.999 -109.999c0 -48 -12.667 -89.5 -38 -124.5s-55.666 -59 -90.999 -72s-76.5 -24.833 -123.5 -35.5s-73.167 -16.334 -78.5 -17.001s-13.666 -1 -24.999 -1c-34 0 -65 6.66699 -93 20s-50.667 34 -68 62
c-23.333 33.333 -35 72.333 -35 117s11.667 84.167 35 118.5s53.5 59.833 90.5 76.5s80.833 29 131.5 37c35.333 13.333 71.666 20 108.999 20c22 0 42 -2.5 60 -7.5s34.667 -13.5 50 -25.5c8.66699 -4 15 -6.83301 19 -8.5s14.333 -18.167 31 -49.5zM432.999 288.001
c-12 27.333 -29.499 47.167 -52.499 59.5s-48.833 18.5 -77.5 18.5c-22.667 -6.66699 -42.334 -14.834 -59.001 -24.501s-33 -25.667 -49 -48s-24 -52.166 -24 -89.499c0 -24 5.5 -47 16.5 -69s28 -40.5 51 -55.5s48.167 -22.5 75.5 -22.5c16 -2 29.333 0.666992 40 8
s26 20.333 46 39c30.667 32.667 46 73 46 121c0 24 -4.33301 45 -13 63zM419 544.002l-64.001 -29c-19.333 14.667 -44.666 29.334 -75.999 44.001s-65.666 29.334 -102.999 44.001c-0.666992 2.66699 -1 6.66699 -1 12c0 7.33301 2.66699 13.666 8 18.999
s13.666 11.166 24.999 17.499s26.333 12.5 45 18.5c41.333 -22.667 77 -45 107 -67s49.667 -39.667 59 -53c1.33301 -2.66699 1.33301 -4.66699 0 -6z" />
    <glyph glyph-name="oacute" unicode="&#xf3;" horiz-adv-x="620" 
d="M560 347c17.333 -31.333 25.999 -67.999 25.999 -109.999c0 -48 -12.667 -89.5 -38 -124.5s-55.666 -59 -90.999 -72s-76.5 -24.833 -123.5 -35.5s-73.167 -16.334 -78.5 -17.001s-13.666 -1 -24.999 -1c-34 0 -65 6.66699 -93 20s-50.667 34 -68 62
c-23.333 33.333 -35 72.333 -35 117s11.667 84.167 35 118.5s53.5 59.833 90.5 76.5s80.833 29 131.5 37c35.333 13.333 71.666 20 108.999 20c22 0 42 -2.5 60 -7.5s34.667 -13.5 50 -25.5c8.66699 -4 15 -6.83301 19 -8.5s14.333 -18.167 31 -49.5zM432.999 288.001
c-12 27.333 -29.499 47.167 -52.499 59.5s-48.833 18.5 -77.5 18.5c-22.667 -6.66699 -42.334 -14.834 -59.001 -24.501s-33 -25.667 -49 -48s-24 -52.166 -24 -89.499c0 -24 5.5 -47 16.5 -69s28 -40.5 51 -55.5s48.167 -22.5 75.5 -22.5c16 -2 29.333 0.666992 40 8
s26 20.333 46 39c30.667 32.667 46 73 46 121c0 24 -4.33301 45 -13 63zM427 603.002c-46.667 -18.667 -82.668 -33.833 -108.001 -45.5s-49 -25.834 -71 -42.501c-9.33301 2 -21.333 7 -36 15s-24 12.667 -28 14c-1.33301 1.33301 -1.33301 3.33301 0 6
c12.667 18 35.834 38.333 69.501 61s65.834 42.334 96.501 59.001c17.333 -5.33301 32.166 -11.5 44.499 -18.5s21 -13 26 -18s7.5 -11.5 7.5 -19.5c0 -5.33301 -0.333008 -9 -1 -11z" />
    <glyph glyph-name="ocircumflex" unicode="&#xf4;" horiz-adv-x="620" 
d="M560 347c17.333 -31.333 25.999 -67.999 25.999 -109.999c0 -48 -12.667 -89.5 -38 -124.5s-55.666 -59 -90.999 -72s-76.5 -24.833 -123.5 -35.5s-73.167 -16.334 -78.5 -17.001s-13.666 -1 -24.999 -1c-34 0 -65 6.66699 -93 20s-50.667 34 -68 62
c-23.333 33.333 -35 72.333 -35 117s11.667 84.167 35 118.5s53.5 59.833 90.5 76.5s80.833 29 131.5 37c35.333 13.333 71.666 20 108.999 20c22 0 42 -2.5 60 -7.5s34.667 -13.5 50 -25.5c8.66699 -4 15 -6.83301 19 -8.5s14.333 -18.167 31 -49.5zM432.999 288.001
c-12 27.333 -29.499 47.167 -52.499 59.5s-48.833 18.5 -77.5 18.5c-22.667 -6.66699 -42.334 -14.834 -59.001 -24.501s-33 -25.667 -49 -48s-24 -52.166 -24 -89.499c0 -24 5.5 -47 16.5 -69s28 -40.5 51 -55.5s48.167 -22.5 75.5 -22.5c16 -2 29.333 0.666992 40 8
s26 20.333 46 39c30.667 32.667 46 73 46 121c0 24 -4.33301 45 -13 63zM476 532.002l-63.9971 -26.001c-12.667 9.33301 -28.334 19.333 -47.001 30s-38.334 20.334 -59.001 29.001c-23.333 -10.667 -43 -20.334 -59 -29.001s-31.667 -18.667 -47 -30
c-10 2 -22.5 6.66699 -37.5 14s-23.833 11.333 -26.5 12v11c10.667 14.667 39.334 37.334 86.001 68.001s74.667 46 84 46s37.166 -15 83.499 -45s75.166 -53 86.499 -69v-11z" />
    <glyph glyph-name="otilde" unicode="&#xf5;" horiz-adv-x="620" 
d="M560 347c17.333 -31.333 25.999 -67.999 25.999 -109.999c0 -48 -12.667 -89.5 -38 -124.5s-55.666 -59 -90.999 -72s-76.5 -24.833 -123.5 -35.5s-73.167 -16.334 -78.5 -17.001s-13.666 -1 -24.999 -1c-34 0 -65 6.66699 -93 20s-50.667 34 -68 62
c-23.333 33.333 -35 72.333 -35 117s11.667 84.167 35 118.5s53.5 59.833 90.5 76.5s80.833 29 131.5 37c35.333 13.333 71.666 20 108.999 20c22 0 42 -2.5 60 -7.5s34.667 -13.5 50 -25.5c8.66699 -4 15 -6.83301 19 -8.5s14.333 -18.167 31 -49.5zM432.999 288.001
c-12 27.333 -29.499 47.167 -52.499 59.5s-48.833 18.5 -77.5 18.5c-22.667 -6.66699 -42.334 -14.834 -59.001 -24.501s-33 -25.667 -49 -48s-24 -52.166 -24 -89.499c0 -24 5.5 -47 16.5 -69s28 -40.5 51 -55.5s48.167 -22.5 75.5 -22.5c16 -2 29.333 0.666992 40 8
s26 20.333 46 39c30.667 32.667 46 73 46 121c0 24 -4.33301 45 -13 63zM490 576.002c-16 -12.667 -31.6699 -23.832 -47.0029 -33.499s-31 -14.5 -47 -14.5c-9.33301 0 -32.166 7.16699 -68.499 21.5s-62.166 21.5 -77.499 21.5c-9.33301 0 -18 -4.83301 -26 -14.5
l-24 -28.5c-11.333 6 -22 11 -32 15s-20.667 7.66699 -32 11v11c12.667 17.333 31.167 34.666 55.5 51.999s44.5 26 60.5 26s37.167 -4.33301 63.5 -13l80.5 -27c12 0 23.5 5 34.5 15s18.833 15.667 23.5 17c2.66699 -0.666992 5.33398 -1 8.00098 -1
c2 -7.33301 6.66699 -17.5 14 -30.5s12 -22.167 14 -27.5z" />
    <glyph glyph-name="odieresis" unicode="&#xf6;" horiz-adv-x="620" 
d="M560 347c17.333 -31.333 25.999 -67.999 25.999 -109.999c0 -48 -12.667 -89.5 -38 -124.5s-55.666 -59 -90.999 -72s-76.5 -24.833 -123.5 -35.5s-73.167 -16.334 -78.5 -17.001s-13.666 -1 -24.999 -1c-34 0 -65 6.66699 -93 20s-50.667 34 -68 62
c-23.333 33.333 -35 72.333 -35 117s11.667 84.167 35 118.5s53.5 59.833 90.5 76.5s80.833 29 131.5 37c35.333 13.333 71.666 20 108.999 20c22 0 42 -2.5 60 -7.5s34.667 -13.5 50 -25.5c8.66699 -4 15 -6.83301 19 -8.5s14.333 -18.167 31 -49.5zM432.999 288.001
c-12 27.333 -29.499 47.167 -52.499 59.5s-48.833 18.5 -77.5 18.5c-22.667 -6.66699 -42.334 -14.834 -59.001 -24.501s-33 -25.667 -49 -48s-24 -52.166 -24 -89.499c0 -24 5.5 -47 16.5 -69s28 -40.5 51 -55.5s48.167 -22.5 75.5 -22.5c16 -2 29.333 0.666992 40 8
s26 20.333 46 39c30.667 32.667 46 73 46 121c0 24 -4.33301 45 -13 63zM520 614.002c-14 -14 -33.834 -31.332 -59.501 -51.999s-41.167 -33.334 -46.5 -38.001c-13.333 4.66699 -27.166 11.667 -41.499 21l-41.5 28c-2 2.66699 -0.833008 5.83398 3.5 9.50098
s10 9.16699 17 16.5l28 29.5c11.667 12.333 25.167 25.833 40.5 40.5c11.333 -4 24.333 -9.83301 39 -17.5l33 -17.5c2 -2.66699 6.66699 -5.33398 14 -8.00098s12 -6.66699 14 -12zM294.999 614.003c-14 -14 -33.834 -31.332 -59.501 -51.999
s-41.167 -33.334 -46.5 -38.001c-13.333 4.66699 -27.166 11.667 -41.499 21l-41.5 28c-2 2.66699 -0.833008 5.83398 3.5 9.50098s10 9.16699 17 16.5l28 29.5c11.667 12.333 25.167 25.833 40.5 40.5c11.333 -4 24.333 -9.83301 39 -17.5l33 -17.5
c2 -2.66699 6.66699 -5.33398 14 -8.00098s12 -6.66699 14 -12z" />
    <glyph glyph-name="divide" unicode="&#xf7;" 
 />
    <glyph glyph-name="oslash" unicode="&#xf8;" horiz-adv-x="620" 
d="M617 495c-34 -28 -68.0029 -59.001 -102.003 -93.001c5.33301 -2.66699 11 -5.33398 17 -8.00098c4 -4 14 -20.667 30 -50s24 -65 24 -107c0 -48 -12.667 -89.5 -38 -124.5s-55.666 -59 -90.999 -72s-78.166 -25.167 -128.499 -36.5s-83.5 -17 -99.5 -17
c-23.333 0 -44.666 3.33301 -63.999 10l-56 -66l-58.5 2c-19.667 0.666992 -39.167 2.33398 -58.5 5.00098c31.333 29.333 64.333 63.333 99 102c-3.33301 3.33301 -6.83301 7.5 -10.5 12.5l-26 37c-13.667 19.667 -20.5 51.834 -20.5 96.501s11.667 84.167 35 118.5
s53.5 59.833 90.5 76.5s80.833 29 131.5 37c35.333 13.333 71 20 107 20h15c6.66699 -1.33301 11.667 -2 15 -2l44 55c0.666992 0.666992 14.5 2 41.5 4s52.167 3 75.5 3h25c0.666992 -1.33301 1.66699 -2.33301 3 -3zM363.997 356.999
c-8 3.33301 -16.999 5.66797 -26.999 7.00098s-21.333 2 -34 2c-22.667 -6.66699 -42.334 -14.834 -59.001 -24.501s-33.167 -26.167 -49.5 -49.5s-24.5 -53 -24.5 -89c0 -22.667 4.33301 -43 13 -61l90.5 106.5zM432.998 288.001c0 2 -1.5 5.16699 -4.5 9.5
s-4.5 6.83301 -4.5 7.5l-102.5 -119.5l-85.5 -103.5c24 -16.667 50 -25 78 -25c16 -2 29.333 0.666992 40 8s26 20.333 46 39c30.667 32.667 46 73 46 121c0 24 -4.33301 45 -13 63z" />
    <glyph glyph-name="ugrave" unicode="&#xf9;" horiz-adv-x="616" 
d="M602 425c-0.666992 -9.33301 -7.16504 -56.998 -19.498 -142.998s-18.5 -143.333 -18.5 -172c0 -26 1.5 -48 4.5 -66s5.5 -31.333 7.5 -40h-152c-1.33301 2 -2.33301 6.5 -3 13.5s-2.33398 11.833 -5.00098 14.5c-14.667 -3.33301 -40.334 -7 -77.001 -11
s-61 -7.33301 -73 -10c-26.667 -10 -54.334 -15 -83.001 -15c-18 0 -33.833 1.83301 -47.5 5.5s-35.167 17.167 -64.5 40.5s-44 66.333 -44 129v15c1.33301 7.33301 3 18 5 32s8.16699 31.833 18.5 53.5s24.166 43.5 41.499 65.5c0.666992 2 0.166992 3.83301 -1.5 5.5
s-3.83398 3.16699 -6.50098 4.5c-5.33301 0.666992 -12.166 0.666992 -20.499 0s-16.166 -1 -23.499 -1c-6 0 -10.333 0.333008 -13 1c2.66699 12.667 5.5 23.667 8.5 33s8.5 22.333 16.5 39h23h20h18h15h14h12h36.5c12.333 0 24.833 0.333008 37.5 1h10
c14.667 0 33.334 0.5 56.001 1.5s34.334 1.5 35.001 1.5c16.667 0 33 -1 49 -3l-128 -94c-47.333 -42.667 -71 -87.334 -71 -134.001c0 -7.33301 1.16699 -18 3.5 -32s9 -29.833 20 -47.5s22.833 -29.5 35.5 -35.5s22.5 -9.33301 29.5 -10s10.833 -1 11.5 -1
c17.333 0 34.166 5 50.499 15s33.5 23.667 51.5 41c23.333 25.333 39 55.333 47 90s12 75.667 12 123v11c0 11.333 -0.166992 22.666 -0.5 33.999s-0.5 23 -0.5 35v10l5 2h153zM437.002 544.002l-64.001 -29c-19.333 14.667 -44.666 29.334 -75.999 44.001
s-65.666 29.334 -102.999 44.001c-0.666992 2.66699 -1 6.66699 -1 12c0 7.33301 2.66699 13.666 8 18.999s13.666 11.166 24.999 17.499s26.333 12.5 45 18.5c41.333 -22.667 77 -45 107 -67s49.667 -39.667 59 -53c1.33301 -2.66699 1.33301 -4.66699 0 -6z" />
    <glyph glyph-name="uacute" unicode="&#xfa;" horiz-adv-x="616" 
d="M602 425c-0.666992 -9.33301 -7.16504 -56.998 -19.498 -142.998s-18.5 -143.333 -18.5 -172c0 -26 1.5 -48 4.5 -66s5.5 -31.333 7.5 -40h-152c-1.33301 2 -2.33301 6.5 -3 13.5s-2.33398 11.833 -5.00098 14.5c-14.667 -3.33301 -40.334 -7 -77.001 -11
s-61 -7.33301 -73 -10c-26.667 -10 -54.334 -15 -83.001 -15c-18 0 -33.833 1.83301 -47.5 5.5s-35.167 17.167 -64.5 40.5s-44 66.333 -44 129v15c1.33301 7.33301 3 18 5 32s8.16699 31.833 18.5 53.5s24.166 43.5 41.499 65.5c0.666992 2 0.166992 3.83301 -1.5 5.5
s-3.83398 3.16699 -6.50098 4.5c-5.33301 0.666992 -12.166 0.666992 -20.499 0s-16.166 -1 -23.499 -1c-6 0 -10.333 0.333008 -13 1c2.66699 12.667 5.5 23.667 8.5 33s8.5 22.333 16.5 39h23h20h18h15h14h12h36.5c12.333 0 24.833 0.333008 37.5 1h10
c14.667 0 33.334 0.5 56.001 1.5s34.334 1.5 35.001 1.5c16.667 0 33 -1 49 -3l-128 -94c-47.333 -42.667 -71 -87.334 -71 -134.001c0 -7.33301 1.16699 -18 3.5 -32s9 -29.833 20 -47.5s22.833 -29.5 35.5 -35.5s22.5 -9.33301 29.5 -10s10.833 -1 11.5 -1
c17.333 0 34.166 5 50.499 15s33.5 23.667 51.5 41c23.333 25.333 39 55.333 47 90s12 75.667 12 123v11c0 11.333 -0.166992 22.666 -0.5 33.999s-0.5 23 -0.5 35v10l5 2h153zM445.002 603.002c-46.667 -18.667 -82.668 -33.833 -108.001 -45.5s-49 -25.834 -71 -42.501
c-9.33301 2 -21.333 7 -36 15s-24 12.667 -28 14c-1.33301 1.33301 -1.33301 3.33301 0 6c12.667 18 35.834 38.333 69.501 61s65.834 42.334 96.501 59.001c17.333 -5.33301 32.166 -11.5 44.499 -18.5s21 -13 26 -18s7.5 -11.5 7.5 -19.5c0 -5.33301 -0.333008 -9 -1 -11z
" />
    <glyph glyph-name="ucircumflex" unicode="&#xfb;" horiz-adv-x="616" 
d="M602 425c-0.666992 -9.33301 -7.16504 -56.998 -19.498 -142.998s-18.5 -143.333 -18.5 -172c0 -26 1.5 -48 4.5 -66s5.5 -31.333 7.5 -40h-152c-1.33301 2 -2.33301 6.5 -3 13.5s-2.33398 11.833 -5.00098 14.5c-14.667 -3.33301 -40.334 -7 -77.001 -11
s-61 -7.33301 -73 -10c-26.667 -10 -54.334 -15 -83.001 -15c-18 0 -33.833 1.83301 -47.5 5.5s-35.167 17.167 -64.5 40.5s-44 66.333 -44 129v15c1.33301 7.33301 3 18 5 32s8.16699 31.833 18.5 53.5s24.166 43.5 41.499 65.5c0.666992 2 0.166992 3.83301 -1.5 5.5
s-3.83398 3.16699 -6.50098 4.5c-5.33301 0.666992 -12.166 0.666992 -20.499 0s-16.166 -1 -23.499 -1c-6 0 -10.333 0.333008 -13 1c2.66699 12.667 5.5 23.667 8.5 33s8.5 22.333 16.5 39h23h20h18h15h14h12h36.5c12.333 0 24.833 0.333008 37.5 1h10
c14.667 0 33.334 0.5 56.001 1.5s34.334 1.5 35.001 1.5c16.667 0 33 -1 49 -3l-128 -94c-47.333 -42.667 -71 -87.334 -71 -134.001c0 -7.33301 1.16699 -18 3.5 -32s9 -29.833 20 -47.5s22.833 -29.5 35.5 -35.5s22.5 -9.33301 29.5 -10s10.833 -1 11.5 -1
c17.333 0 34.166 5 50.499 15s33.5 23.667 51.5 41c23.333 25.333 39 55.333 47 90s12 75.667 12 123v11c0 11.333 -0.166992 22.666 -0.5 33.999s-0.5 23 -0.5 35v10l5 2h153zM488.002 532.002l-63.9971 -26.001c-12.667 9.33301 -28.334 19.333 -47.001 30
s-38.334 20.334 -59.001 29.001c-23.333 -10.667 -43 -20.334 -59 -29.001s-31.667 -18.667 -47 -30c-10 2 -22.5 6.66699 -37.5 14s-23.833 11.333 -26.5 12v11c10.667 14.667 39.334 37.334 86.001 68.001s74.667 46 84 46s37.166 -15 83.499 -45s75.166 -53 86.499 -69
v-11z" />
    <glyph glyph-name="udieresis" unicode="&#xfc;" horiz-adv-x="616" 
d="M602 425c-0.666992 -9.33301 -7.16504 -56.998 -19.498 -142.998s-18.5 -143.333 -18.5 -172c0 -26 1.5 -48 4.5 -66s5.5 -31.333 7.5 -40h-152c-1.33301 2 -2.33301 6.5 -3 13.5s-2.33398 11.833 -5.00098 14.5c-14.667 -3.33301 -40.334 -7 -77.001 -11
s-61 -7.33301 -73 -10c-26.667 -10 -54.334 -15 -83.001 -15c-18 0 -33.833 1.83301 -47.5 5.5s-35.167 17.167 -64.5 40.5s-44 66.333 -44 129v15c1.33301 7.33301 3 18 5 32s8.16699 31.833 18.5 53.5s24.166 43.5 41.499 65.5c0.666992 2 0.166992 3.83301 -1.5 5.5
s-3.83398 3.16699 -6.50098 4.5c-5.33301 0.666992 -12.166 0.666992 -20.499 0s-16.166 -1 -23.499 -1c-6 0 -10.333 0.333008 -13 1c2.66699 12.667 5.5 23.667 8.5 33s8.5 22.333 16.5 39h23h20h18h15h14h12h36.5c12.333 0 24.833 0.333008 37.5 1h10
c14.667 0 33.334 0.5 56.001 1.5s34.334 1.5 35.001 1.5c16.667 0 33 -1 49 -3l-128 -94c-47.333 -42.667 -71 -87.334 -71 -134.001c0 -7.33301 1.16699 -18 3.5 -32s9 -29.833 20 -47.5s22.833 -29.5 35.5 -35.5s22.5 -9.33301 29.5 -10s10.833 -1 11.5 -1
c17.333 0 34.166 5 50.499 15s33.5 23.667 51.5 41c23.333 25.333 39 55.333 47 90s12 75.667 12 123v11c0 11.333 -0.166992 22.666 -0.5 33.999s-0.5 23 -0.5 35v10l5 2h153zM538.002 614.002c-14 -14 -33.834 -31.332 -59.501 -51.999s-41.167 -33.334 -46.5 -38.001
c-13.333 4.66699 -27.166 11.667 -41.499 21l-41.5 28c-2 2.66699 -0.833008 5.83398 3.5 9.50098s10 9.16699 17 16.5l28 29.5c11.667 12.333 25.167 25.833 40.5 40.5c11.333 -4 24.333 -9.83301 39 -17.5l33 -17.5c2 -2.66699 6.66699 -5.33398 14 -8.00098
s12 -6.66699 14 -12zM313.001 614.003c-14 -14 -33.834 -31.332 -59.501 -51.999s-41.167 -33.334 -46.5 -38.001c-13.333 4.66699 -27.166 11.667 -41.499 21l-41.5 28c-2 2.66699 -0.833008 5.83398 3.5 9.50098s10 9.16699 17 16.5l28 29.5
c11.667 12.333 25.167 25.833 40.5 40.5c11.333 -4 24.333 -9.83301 39 -17.5l33 -17.5c2 -2.66699 6.66699 -5.33398 14 -8.00098s12 -6.66699 14 -12z" />
    <glyph glyph-name="yacute" unicode="&#xfd;" 
 />
    <glyph glyph-name="thorn" unicode="&#xfe;" 
 />
    <glyph glyph-name="ydieresis" unicode="&#xff;" horiz-adv-x="632" 
d="M625 420l-88.9941 -171.503c-30.667 -59.667 -57.334 -115.667 -80.001 -168s-42.334 -107.5 -59.001 -165.5c-14.667 -38 -39.834 -65.167 -75.501 -81.5s-78.167 -27.166 -127.5 -32.499c-16.667 -4 -33.5 -7.5 -50.5 -10.5s-33.167 -4.5 -48.5 -4.5
c-17.333 0 -33.5 2.16699 -48.5 6.5s-28.167 11.5 -39.5 21.5c-9.33301 11.333 -16.333 25.166 -21 41.499s-7 32.5 -7 48.5c0 20.667 3.16699 42.334 9.5 65.001s14 42 23 58s17.167 29.5 24.5 40.5s15.666 21.167 24.999 30.5c34.667 3.33301 69.667 7 105 11
c-2.66699 -8 -10 -19.333 -22 -34s-20.833 -27.667 -26.5 -39s-10.834 -25.5 -15.501 -42.5s-7 -34.167 -7 -51.5c0 -26 6.33301 -48.333 19 -67c14 -18 30.667 -27 50 -27c3.33301 0 9 0.666992 17 2c29.333 8.66699 52.666 26 69.999 52s31.333 57 42 93
c2 4 0 7.66699 -6 11c-12 0 -29.167 -1.5 -51.5 -4.5s-34.833 -4.5 -37.5 -4.5c0 32.667 0.333008 58.834 1 78.501s1.33398 38.167 2.00098 55.5c0 40 -2.33301 74 -7 102s-14.334 55.333 -29.001 82c-5.33301 4 -13 6 -23 6l-41 -2c-8.66699 0 -21.667 -1 -39 -3
s-30.333 -3 -39 -3c9.33301 14.667 24.666 34.334 45.999 59.001l38 44c16.667 0 42 0.333008 76 1s59.333 1 76 1l9 -2c26.667 -37.333 45.5 -79.833 56.5 -127.5s16.5 -99.834 16.5 -156.501c2.66699 -4 5.33398 -4.66699 8.00098 -2s10 16.334 22 41.001l54 111
c24 49.333 48 92.333 72 129c2 6 10.333 10.333 25 13h98c1.33301 0 3 -1.33301 5 -4zM538.006 613.997c-14 -14 -33.834 -31.332 -59.501 -51.999s-41.167 -33.334 -46.5 -38.001c-13.333 4.66699 -27.166 11.667 -41.499 21l-41.5 28
c-2 2.66699 -0.833008 5.83398 3.5 9.50098s10 9.16699 17 16.5l28 29.5c11.667 12.333 25.167 25.833 40.5 40.5c11.333 -4 24.333 -9.83301 39 -17.5l33 -17.5c2 -2.66699 6.66699 -5.33398 14 -8.00098s12 -6.66699 14 -12zM313.005 613.998
c-14 -14 -33.834 -31.332 -59.501 -51.999s-41.167 -33.334 -46.5 -38.001c-13.333 4.66699 -27.166 11.667 -41.499 21l-41.5 28c-2 2.66699 -0.833008 5.83398 3.5 9.50098s10 9.16699 17 16.5l28 29.5c11.667 12.333 25.167 25.833 40.5 40.5
c11.333 -4 24.333 -9.83301 39 -17.5l33 -17.5c2 -2.66699 6.66699 -5.33398 14 -8.00098s12 -6.66699 14 -12z" />
    <glyph glyph-name="dotlessi" unicode="&#x131;" horiz-adv-x="275" 
d="M222 443c0 -14 -1.5 -33.835 -4.5 -59.502s-4.5 -40.5 -4.5 -44.5c0 -39.333 0.666992 -104.166 2 -194.499s2 -137.166 2 -140.499l1 -5l-161 2c0 14.667 1.66699 30.334 5 47.001l10 50c1.33301 14 2.33301 35.833 3 65.5s1 52.5 1 68.5v81
c-3.33301 21.333 -13 41.666 -29 60.999l-40 49c1.33301 2 3.66602 3 6.99902 3s5.33301 0.333008 6 1c18 0 50.833 4.5 98.5 13.5s74.834 13.5 81.501 13.5c14.667 0 22 -3.66699 22 -11z" />
    <glyph glyph-name="Lslash" unicode="&#x141;" 
 />
    <glyph glyph-name="lslash" unicode="&#x142;" 
 />
    </font>
</defs>
</svg>
