<?xml version="1.0" encoding="utf-8"?>
<!-- Generator: Adobe Illustrator 16.2.0, SVG Export Plug-In . SVG Version: 6.00 Build 0)  -->
<!DOCTYPE svg PUBLIC "-//W3C//DTD SVG 1.1//EN" "http://www.w3.org/Graphics/SVG/1.1/DTD/svg11.dtd">
<svg version="1.1" id="Layer_1" xmlns="http://www.w3.org/2000/svg" xmlns:xlink="http://www.w3.org/1999/xlink" x="0px" y="0px"
	 width="100px" height="96px" viewBox="0 0 100 96" enable-background="new 0 0 100 96" xml:space="preserve">
<path fill="#b0b0b0" fill-rule="evenodd" clip-rule="evenodd" d="M38.764,11.854c14.801,0,26.846,11.963,26.846,26.674
	c0,4.971-1.422,9.841-4.102,14.103l-2.437,3.857l-3.422,2.76c-4.836,3.899-10.669,5.954-16.885,5.954
	c-14.792,0-26.829-11.964-26.829-26.67C11.935,23.817,23.971,11.854,38.764,11.854L38.764,11.854z M38.764,0
	C17.361,0,0,17.251,0,38.528C0,59.81,17.361,77.061,38.764,77.061c9.26,0,17.726-3.232,24.396-8.601
	c0.302,0.536,0.573,1.084,1.036,1.549l24.149,24.007C89.674,95.337,91.424,96,93.173,96c1.741,0,3.486-0.654,4.828-1.992
	c2.666-2.646,2.666-6.942,0-9.592L73.854,60.404c-0.667-0.646-1.422-1.139-2.246-1.481c3.74-5.912,5.923-12.883,5.923-20.391
	C77.532,17.251,60.183,0,38.764,0L38.764,0z"/>
</svg>
